M48
; DRILL file {KiCad (5.1.4)-1} date 12/10/2020 1:14:24 PM
; FORMAT={-:-/ absolute / inch / decimal}
; #@! TF.CreationDate,2020-12-10T13:14:24-06:00
; #@! TF.GenerationSoftware,Kicad,Pcbnew,(5.1.4)-1
; #@! TF.FileFunction,Plated,1,2,PTH
FMAT,2
INCH
T1C0.0157
T2C0.0315
T3C0.0354
T4C0.0394
T5C0.0400
T6C0.0409
%
G90
G05
T1
X3.73Y-2.6
X3.73Y-3.2
X3.88Y-4.225
X3.91Y-4.165
X3.91Y-4.285
X4.015Y-2.745
X4.04Y-2.55
X4.04Y-3.15
X4.1Y-3.4
X4.1Y-3.465
X4.115Y-4.295
X4.2344Y-2.6356
X4.2344Y-3.2356
X4.235Y-4.555
X4.3Y-4.55
X4.33Y-4.485
X4.35Y-2.74
X4.415Y-4.335
X4.42Y-3.13
X4.46Y-3.17
X4.46Y-3.25
X4.47Y-2.91
X4.47Y-3.395
X4.48Y-2.55
X4.485Y-3.515
X4.49Y-4.05
X4.5Y-3.21
X4.5007Y-3.29
X4.505Y-2.875
X4.54Y-2.84
X4.55Y-3.495
X4.735Y-3.635
X4.735Y-3.74
X4.77Y-4.42
X4.825Y-4.295
X4.83Y-2.6
X4.83Y-3.2
X4.84Y-3.6
X4.875Y-3.995
X4.8953Y-3.9253
X4.8953Y-4.1553
X4.93Y-3.67
X4.93Y-3.735
X4.93Y-3.97
X4.93Y-4.24
X4.9653Y-3.9253
X4.9653Y-4.1553
X4.985Y-4.21
X5.0Y-3.505
X5.0Y-3.97
X5.0Y-3.97
X5.065Y-4.43
X5.065Y-4.485
X5.12Y-3.9
X5.125Y-2.77
X5.13Y-3.77
X5.13Y-4.0
X5.14Y-2.55
X5.14Y-3.15
X5.14Y-3.61
X5.145Y-3.37
X5.15Y-5.2
X5.16Y-3.495
X5.21Y-3.715
X5.215Y-3.46
X5.22Y-3.945
X5.225Y-3.04
X5.24Y-3.37
X5.3Y-3.56
X5.3Y-3.7
X5.3Y-3.79
X5.3Y-3.86
X5.3Y-3.93
X5.3Y-4.02
X5.3Y-4.09
X5.3Y-4.16
X5.3344Y-2.6356
X5.3344Y-3.2356
X5.34Y-3.52
X5.34Y-3.63
X5.34Y-4.56
X5.375Y-3.175
X5.3875Y-3.7875
X5.4Y-4.16
X5.405Y-4.09
X5.41Y-3.59
X5.4144Y-3.6706
X5.425Y-3.485
X5.435Y-2.84
X5.44Y-3.77
X5.44Y-3.86
X5.475Y-3.63
X5.475Y-5.45
X5.495Y-3.425
X5.495Y-3.475
X5.5Y-3.33
X5.505Y-3.085
X5.52Y-2.35
X5.52Y-2.87
X5.53Y-2.71
X5.54Y-2.61
X5.54Y-2.775
X5.54Y-2.91
X5.54Y-3.13
X5.54Y-3.29
X5.56Y-2.95
X5.575Y-2.535
X5.58Y-3.17
X5.58Y-3.25
X5.62Y-3.21
X5.625Y-3.335
X5.63Y-3.67
X5.64Y-2.61
X5.65Y-3.43
X5.66Y-3.52
X5.68Y-3.95
X5.69Y-3.815
X5.69Y-4.13
X5.705Y-2.61
X5.71Y-3.62
X5.74Y-2.49
X5.76Y-2.77
X5.77Y-3.07
X5.8Y-3.26
X5.845Y-4.525
X5.975Y-3.06
X6.07Y-2.525
X6.13Y-4.015
X6.165Y-3.965
X6.2Y-3.915
X6.205Y-2.83
X6.33Y-2.835
X6.335Y-5.295
X6.38Y-4.45
X6.405Y-4.58
X6.42Y-4.49
X6.43Y-3.48
X6.46Y-4.53
X6.515Y-5.23
X6.535Y-2.735
X6.545Y-3.155
X6.545Y-3.25
X6.555Y-5.1425
X6.555Y-5.2725
X6.69Y-2.295
X6.725Y-3.28
X6.99Y-3.56
T2
X4.555Y-4.28
X4.6534Y-4.28
T3
X4.65Y-2.55
X4.65Y-2.65
X3.55Y-3.15
X3.55Y-3.25
X4.65Y-3.15
X4.65Y-3.25
X3.55Y-5.05
X3.55Y-5.15
X3.55Y-5.25
X3.55Y-5.35
X3.55Y-5.45
X3.55Y-3.75
X3.55Y-3.85
X3.55Y-3.95
X3.55Y-2.55
X3.55Y-2.65
X3.55Y-4.45
X3.55Y-4.55
T4
X3.985Y-3.75
X3.985Y-3.85
X3.985Y-3.95
T5
X4.2Y-5.05
X4.2Y-5.15
X4.2Y-5.25
X4.2Y-5.35
X4.2Y-5.45
X5.0Y-5.35
X5.0Y-5.45
X5.3Y-5.05
X5.3Y-5.15
X5.3Y-5.25
X5.3Y-5.35
X5.3Y-5.45
T6
X5.875Y-2.507
X5.875Y-2.607
X5.875Y-2.707
X5.875Y-2.807
X5.875Y-2.907
X5.875Y-3.007
X5.875Y-3.107
X5.875Y-3.207
X5.875Y-3.307
X5.875Y-3.407
X5.875Y-3.507
X5.875Y-3.607
X5.875Y-3.707
X5.875Y-3.807
X5.875Y-3.907
X5.875Y-4.007
X5.875Y-4.107
X5.875Y-4.207
X5.875Y-4.307
X6.875Y-2.507
X6.875Y-2.607
X6.875Y-2.707
X6.875Y-2.807
X6.875Y-2.907
X6.875Y-3.007
X6.875Y-3.107
X6.875Y-3.207
X6.875Y-3.307
X6.875Y-3.407
X6.875Y-3.507
X6.875Y-3.607
X6.875Y-3.707
X6.875Y-3.807
X6.875Y-3.907
X6.875Y-4.007
X6.875Y-4.107
X6.875Y-4.207
X6.875Y-4.307
T0
M30
