G04 #@! TF.GenerationSoftware,KiCad,Pcbnew,(5.1.4)-1*
G04 #@! TF.CreationDate,2020-12-10T13:14:28-06:00*
G04 #@! TF.ProjectId,InstrumentationBoard2021,496e7374-7275-46d6-956e-746174696f6e,rev?*
G04 #@! TF.SameCoordinates,Original*
G04 #@! TF.FileFunction,Paste,Top*
G04 #@! TF.FilePolarity,Positive*
%FSLAX46Y46*%
G04 Gerber Fmt 4.6, Leading zero omitted, Abs format (unit mm)*
G04 Created by KiCad (PCBNEW (5.1.4)-1) date 2020-12-10 13:14:28*
%MOMM*%
%LPD*%
G04 APERTURE LIST*
%ADD10R,1.480000X0.410000*%
%ADD11R,1.400000X0.300000*%
%ADD12C,0.100000*%
%ADD13C,0.950000*%
%ADD14R,1.400000X0.700000*%
%ADD15R,1.900000X1.500000*%
%ADD16R,1.400000X1.000000*%
%ADD17R,1.200000X1.200000*%
%ADD18R,3.200000X1.200000*%
%ADD19R,1.200000X0.700000*%
%ADD20R,0.500000X0.500000*%
%ADD21R,0.800000X1.200000*%
%ADD22C,0.200000*%
G04 APERTURE END LIST*
D10*
X110307000Y-79584000D03*
X110307000Y-80234000D03*
X110307000Y-80884000D03*
X110307000Y-81534000D03*
X110307000Y-82184000D03*
X110307000Y-82834000D03*
X110307000Y-83484000D03*
X104577000Y-83484000D03*
X104577000Y-82834000D03*
X104577000Y-82184000D03*
X104577000Y-81534000D03*
X104577000Y-80884000D03*
X104577000Y-80234000D03*
X104577000Y-79584000D03*
X138247000Y-79584000D03*
X138247000Y-80234000D03*
X138247000Y-80884000D03*
X138247000Y-81534000D03*
X138247000Y-82184000D03*
X138247000Y-82834000D03*
X138247000Y-83484000D03*
X132517000Y-83484000D03*
X132517000Y-82834000D03*
X132517000Y-82184000D03*
X132517000Y-81534000D03*
X132517000Y-80884000D03*
X132517000Y-80234000D03*
X132517000Y-79584000D03*
D11*
X127848000Y-104886000D03*
X127848000Y-104386000D03*
X127848000Y-103886000D03*
X127848000Y-103386000D03*
X127848000Y-102886000D03*
X132248000Y-102886000D03*
X132248000Y-103386000D03*
X132248000Y-103886000D03*
X132248000Y-104386000D03*
X132248000Y-104886000D03*
X127848000Y-99044000D03*
X127848000Y-98544000D03*
X127848000Y-98044000D03*
X127848000Y-97544000D03*
X127848000Y-97044000D03*
X132248000Y-97044000D03*
X132248000Y-97544000D03*
X132248000Y-98044000D03*
X132248000Y-98544000D03*
X132248000Y-99044000D03*
D10*
X138247000Y-64344000D03*
X138247000Y-64994000D03*
X138247000Y-65644000D03*
X138247000Y-66294000D03*
X138247000Y-66944000D03*
X138247000Y-67594000D03*
X138247000Y-68244000D03*
X132517000Y-68244000D03*
X132517000Y-67594000D03*
X132517000Y-66944000D03*
X132517000Y-66294000D03*
X132517000Y-65644000D03*
X132517000Y-64994000D03*
X132517000Y-64344000D03*
X110307000Y-64344000D03*
X110307000Y-64994000D03*
X110307000Y-65644000D03*
X110307000Y-66294000D03*
X110307000Y-66944000D03*
X110307000Y-67594000D03*
X110307000Y-68244000D03*
X104577000Y-68244000D03*
X104577000Y-67594000D03*
X104577000Y-66944000D03*
X104577000Y-66294000D03*
X104577000Y-65644000D03*
X104577000Y-64994000D03*
X104577000Y-64344000D03*
D11*
X127848000Y-93202000D03*
X127848000Y-92702000D03*
X127848000Y-92202000D03*
X127848000Y-91702000D03*
X127848000Y-91202000D03*
X132248000Y-91202000D03*
X132248000Y-91702000D03*
X132248000Y-92202000D03*
X132248000Y-92702000D03*
X132248000Y-93202000D03*
X107483000Y-107331000D03*
X107483000Y-107831000D03*
X107483000Y-108331000D03*
X107483000Y-108831000D03*
X107483000Y-109331000D03*
X103083000Y-109331000D03*
X103083000Y-108831000D03*
X103083000Y-108331000D03*
X103083000Y-107831000D03*
X103083000Y-107331000D03*
D12*
G36*
X159469779Y-117763144D02*
G01*
X159492834Y-117766563D01*
X159515443Y-117772227D01*
X159537387Y-117780079D01*
X159558457Y-117790044D01*
X159578448Y-117802026D01*
X159597168Y-117815910D01*
X159614438Y-117831562D01*
X159630090Y-117848832D01*
X159643974Y-117867552D01*
X159655956Y-117887543D01*
X159665921Y-117908613D01*
X159673773Y-117930557D01*
X159679437Y-117953166D01*
X159682856Y-117976221D01*
X159684000Y-117999500D01*
X159684000Y-118474500D01*
X159682856Y-118497779D01*
X159679437Y-118520834D01*
X159673773Y-118543443D01*
X159665921Y-118565387D01*
X159655956Y-118586457D01*
X159643974Y-118606448D01*
X159630090Y-118625168D01*
X159614438Y-118642438D01*
X159597168Y-118658090D01*
X159578448Y-118671974D01*
X159558457Y-118683956D01*
X159537387Y-118693921D01*
X159515443Y-118701773D01*
X159492834Y-118707437D01*
X159469779Y-118710856D01*
X159446500Y-118712000D01*
X158871500Y-118712000D01*
X158848221Y-118710856D01*
X158825166Y-118707437D01*
X158802557Y-118701773D01*
X158780613Y-118693921D01*
X158759543Y-118683956D01*
X158739552Y-118671974D01*
X158720832Y-118658090D01*
X158703562Y-118642438D01*
X158687910Y-118625168D01*
X158674026Y-118606448D01*
X158662044Y-118586457D01*
X158652079Y-118565387D01*
X158644227Y-118543443D01*
X158638563Y-118520834D01*
X158635144Y-118497779D01*
X158634000Y-118474500D01*
X158634000Y-117999500D01*
X158635144Y-117976221D01*
X158638563Y-117953166D01*
X158644227Y-117930557D01*
X158652079Y-117908613D01*
X158662044Y-117887543D01*
X158674026Y-117867552D01*
X158687910Y-117848832D01*
X158703562Y-117831562D01*
X158720832Y-117815910D01*
X158739552Y-117802026D01*
X158759543Y-117790044D01*
X158780613Y-117780079D01*
X158802557Y-117772227D01*
X158825166Y-117766563D01*
X158848221Y-117763144D01*
X158871500Y-117762000D01*
X159446500Y-117762000D01*
X159469779Y-117763144D01*
X159469779Y-117763144D01*
G37*
D13*
X159159000Y-118237000D03*
D12*
G36*
X161219779Y-117763144D02*
G01*
X161242834Y-117766563D01*
X161265443Y-117772227D01*
X161287387Y-117780079D01*
X161308457Y-117790044D01*
X161328448Y-117802026D01*
X161347168Y-117815910D01*
X161364438Y-117831562D01*
X161380090Y-117848832D01*
X161393974Y-117867552D01*
X161405956Y-117887543D01*
X161415921Y-117908613D01*
X161423773Y-117930557D01*
X161429437Y-117953166D01*
X161432856Y-117976221D01*
X161434000Y-117999500D01*
X161434000Y-118474500D01*
X161432856Y-118497779D01*
X161429437Y-118520834D01*
X161423773Y-118543443D01*
X161415921Y-118565387D01*
X161405956Y-118586457D01*
X161393974Y-118606448D01*
X161380090Y-118625168D01*
X161364438Y-118642438D01*
X161347168Y-118658090D01*
X161328448Y-118671974D01*
X161308457Y-118683956D01*
X161287387Y-118693921D01*
X161265443Y-118701773D01*
X161242834Y-118707437D01*
X161219779Y-118710856D01*
X161196500Y-118712000D01*
X160621500Y-118712000D01*
X160598221Y-118710856D01*
X160575166Y-118707437D01*
X160552557Y-118701773D01*
X160530613Y-118693921D01*
X160509543Y-118683956D01*
X160489552Y-118671974D01*
X160470832Y-118658090D01*
X160453562Y-118642438D01*
X160437910Y-118625168D01*
X160424026Y-118606448D01*
X160412044Y-118586457D01*
X160402079Y-118565387D01*
X160394227Y-118543443D01*
X160388563Y-118520834D01*
X160385144Y-118497779D01*
X160384000Y-118474500D01*
X160384000Y-117999500D01*
X160385144Y-117976221D01*
X160388563Y-117953166D01*
X160394227Y-117930557D01*
X160402079Y-117908613D01*
X160412044Y-117887543D01*
X160424026Y-117867552D01*
X160437910Y-117848832D01*
X160453562Y-117831562D01*
X160470832Y-117815910D01*
X160489552Y-117802026D01*
X160509543Y-117790044D01*
X160530613Y-117780079D01*
X160552557Y-117772227D01*
X160575166Y-117766563D01*
X160598221Y-117763144D01*
X160621500Y-117762000D01*
X161196500Y-117762000D01*
X161219779Y-117763144D01*
X161219779Y-117763144D01*
G37*
D13*
X160909000Y-118237000D03*
D12*
G36*
X164775779Y-117763144D02*
G01*
X164798834Y-117766563D01*
X164821443Y-117772227D01*
X164843387Y-117780079D01*
X164864457Y-117790044D01*
X164884448Y-117802026D01*
X164903168Y-117815910D01*
X164920438Y-117831562D01*
X164936090Y-117848832D01*
X164949974Y-117867552D01*
X164961956Y-117887543D01*
X164971921Y-117908613D01*
X164979773Y-117930557D01*
X164985437Y-117953166D01*
X164988856Y-117976221D01*
X164990000Y-117999500D01*
X164990000Y-118474500D01*
X164988856Y-118497779D01*
X164985437Y-118520834D01*
X164979773Y-118543443D01*
X164971921Y-118565387D01*
X164961956Y-118586457D01*
X164949974Y-118606448D01*
X164936090Y-118625168D01*
X164920438Y-118642438D01*
X164903168Y-118658090D01*
X164884448Y-118671974D01*
X164864457Y-118683956D01*
X164843387Y-118693921D01*
X164821443Y-118701773D01*
X164798834Y-118707437D01*
X164775779Y-118710856D01*
X164752500Y-118712000D01*
X164177500Y-118712000D01*
X164154221Y-118710856D01*
X164131166Y-118707437D01*
X164108557Y-118701773D01*
X164086613Y-118693921D01*
X164065543Y-118683956D01*
X164045552Y-118671974D01*
X164026832Y-118658090D01*
X164009562Y-118642438D01*
X163993910Y-118625168D01*
X163980026Y-118606448D01*
X163968044Y-118586457D01*
X163958079Y-118565387D01*
X163950227Y-118543443D01*
X163944563Y-118520834D01*
X163941144Y-118497779D01*
X163940000Y-118474500D01*
X163940000Y-117999500D01*
X163941144Y-117976221D01*
X163944563Y-117953166D01*
X163950227Y-117930557D01*
X163958079Y-117908613D01*
X163968044Y-117887543D01*
X163980026Y-117867552D01*
X163993910Y-117848832D01*
X164009562Y-117831562D01*
X164026832Y-117815910D01*
X164045552Y-117802026D01*
X164065543Y-117790044D01*
X164086613Y-117780079D01*
X164108557Y-117772227D01*
X164131166Y-117766563D01*
X164154221Y-117763144D01*
X164177500Y-117762000D01*
X164752500Y-117762000D01*
X164775779Y-117763144D01*
X164775779Y-117763144D01*
G37*
D13*
X164465000Y-118237000D03*
D12*
G36*
X166525779Y-117763144D02*
G01*
X166548834Y-117766563D01*
X166571443Y-117772227D01*
X166593387Y-117780079D01*
X166614457Y-117790044D01*
X166634448Y-117802026D01*
X166653168Y-117815910D01*
X166670438Y-117831562D01*
X166686090Y-117848832D01*
X166699974Y-117867552D01*
X166711956Y-117887543D01*
X166721921Y-117908613D01*
X166729773Y-117930557D01*
X166735437Y-117953166D01*
X166738856Y-117976221D01*
X166740000Y-117999500D01*
X166740000Y-118474500D01*
X166738856Y-118497779D01*
X166735437Y-118520834D01*
X166729773Y-118543443D01*
X166721921Y-118565387D01*
X166711956Y-118586457D01*
X166699974Y-118606448D01*
X166686090Y-118625168D01*
X166670438Y-118642438D01*
X166653168Y-118658090D01*
X166634448Y-118671974D01*
X166614457Y-118683956D01*
X166593387Y-118693921D01*
X166571443Y-118701773D01*
X166548834Y-118707437D01*
X166525779Y-118710856D01*
X166502500Y-118712000D01*
X165927500Y-118712000D01*
X165904221Y-118710856D01*
X165881166Y-118707437D01*
X165858557Y-118701773D01*
X165836613Y-118693921D01*
X165815543Y-118683956D01*
X165795552Y-118671974D01*
X165776832Y-118658090D01*
X165759562Y-118642438D01*
X165743910Y-118625168D01*
X165730026Y-118606448D01*
X165718044Y-118586457D01*
X165708079Y-118565387D01*
X165700227Y-118543443D01*
X165694563Y-118520834D01*
X165691144Y-118497779D01*
X165690000Y-118474500D01*
X165690000Y-117999500D01*
X165691144Y-117976221D01*
X165694563Y-117953166D01*
X165700227Y-117930557D01*
X165708079Y-117908613D01*
X165718044Y-117887543D01*
X165730026Y-117867552D01*
X165743910Y-117848832D01*
X165759562Y-117831562D01*
X165776832Y-117815910D01*
X165795552Y-117802026D01*
X165815543Y-117790044D01*
X165836613Y-117780079D01*
X165858557Y-117772227D01*
X165881166Y-117766563D01*
X165904221Y-117763144D01*
X165927500Y-117762000D01*
X166502500Y-117762000D01*
X166525779Y-117763144D01*
X166525779Y-117763144D01*
G37*
D13*
X166215000Y-118237000D03*
D12*
G36*
X163505779Y-134019144D02*
G01*
X163528834Y-134022563D01*
X163551443Y-134028227D01*
X163573387Y-134036079D01*
X163594457Y-134046044D01*
X163614448Y-134058026D01*
X163633168Y-134071910D01*
X163650438Y-134087562D01*
X163666090Y-134104832D01*
X163679974Y-134123552D01*
X163691956Y-134143543D01*
X163701921Y-134164613D01*
X163709773Y-134186557D01*
X163715437Y-134209166D01*
X163718856Y-134232221D01*
X163720000Y-134255500D01*
X163720000Y-134730500D01*
X163718856Y-134753779D01*
X163715437Y-134776834D01*
X163709773Y-134799443D01*
X163701921Y-134821387D01*
X163691956Y-134842457D01*
X163679974Y-134862448D01*
X163666090Y-134881168D01*
X163650438Y-134898438D01*
X163633168Y-134914090D01*
X163614448Y-134927974D01*
X163594457Y-134939956D01*
X163573387Y-134949921D01*
X163551443Y-134957773D01*
X163528834Y-134963437D01*
X163505779Y-134966856D01*
X163482500Y-134968000D01*
X162907500Y-134968000D01*
X162884221Y-134966856D01*
X162861166Y-134963437D01*
X162838557Y-134957773D01*
X162816613Y-134949921D01*
X162795543Y-134939956D01*
X162775552Y-134927974D01*
X162756832Y-134914090D01*
X162739562Y-134898438D01*
X162723910Y-134881168D01*
X162710026Y-134862448D01*
X162698044Y-134842457D01*
X162688079Y-134821387D01*
X162680227Y-134799443D01*
X162674563Y-134776834D01*
X162671144Y-134753779D01*
X162670000Y-134730500D01*
X162670000Y-134255500D01*
X162671144Y-134232221D01*
X162674563Y-134209166D01*
X162680227Y-134186557D01*
X162688079Y-134164613D01*
X162698044Y-134143543D01*
X162710026Y-134123552D01*
X162723910Y-134104832D01*
X162739562Y-134087562D01*
X162756832Y-134071910D01*
X162775552Y-134058026D01*
X162795543Y-134046044D01*
X162816613Y-134036079D01*
X162838557Y-134028227D01*
X162861166Y-134022563D01*
X162884221Y-134019144D01*
X162907500Y-134018000D01*
X163482500Y-134018000D01*
X163505779Y-134019144D01*
X163505779Y-134019144D01*
G37*
D13*
X163195000Y-134493000D03*
D12*
G36*
X165255779Y-134019144D02*
G01*
X165278834Y-134022563D01*
X165301443Y-134028227D01*
X165323387Y-134036079D01*
X165344457Y-134046044D01*
X165364448Y-134058026D01*
X165383168Y-134071910D01*
X165400438Y-134087562D01*
X165416090Y-134104832D01*
X165429974Y-134123552D01*
X165441956Y-134143543D01*
X165451921Y-134164613D01*
X165459773Y-134186557D01*
X165465437Y-134209166D01*
X165468856Y-134232221D01*
X165470000Y-134255500D01*
X165470000Y-134730500D01*
X165468856Y-134753779D01*
X165465437Y-134776834D01*
X165459773Y-134799443D01*
X165451921Y-134821387D01*
X165441956Y-134842457D01*
X165429974Y-134862448D01*
X165416090Y-134881168D01*
X165400438Y-134898438D01*
X165383168Y-134914090D01*
X165364448Y-134927974D01*
X165344457Y-134939956D01*
X165323387Y-134949921D01*
X165301443Y-134957773D01*
X165278834Y-134963437D01*
X165255779Y-134966856D01*
X165232500Y-134968000D01*
X164657500Y-134968000D01*
X164634221Y-134966856D01*
X164611166Y-134963437D01*
X164588557Y-134957773D01*
X164566613Y-134949921D01*
X164545543Y-134939956D01*
X164525552Y-134927974D01*
X164506832Y-134914090D01*
X164489562Y-134898438D01*
X164473910Y-134881168D01*
X164460026Y-134862448D01*
X164448044Y-134842457D01*
X164438079Y-134821387D01*
X164430227Y-134799443D01*
X164424563Y-134776834D01*
X164421144Y-134753779D01*
X164420000Y-134730500D01*
X164420000Y-134255500D01*
X164421144Y-134232221D01*
X164424563Y-134209166D01*
X164430227Y-134186557D01*
X164438079Y-134164613D01*
X164448044Y-134143543D01*
X164460026Y-134123552D01*
X164473910Y-134104832D01*
X164489562Y-134087562D01*
X164506832Y-134071910D01*
X164525552Y-134058026D01*
X164545543Y-134046044D01*
X164566613Y-134036079D01*
X164588557Y-134028227D01*
X164611166Y-134022563D01*
X164634221Y-134019144D01*
X164657500Y-134018000D01*
X165232500Y-134018000D01*
X165255779Y-134019144D01*
X165255779Y-134019144D01*
G37*
D13*
X164945000Y-134493000D03*
D12*
G36*
X108627779Y-87156144D02*
G01*
X108650834Y-87159563D01*
X108673443Y-87165227D01*
X108695387Y-87173079D01*
X108716457Y-87183044D01*
X108736448Y-87195026D01*
X108755168Y-87208910D01*
X108772438Y-87224562D01*
X108788090Y-87241832D01*
X108801974Y-87260552D01*
X108813956Y-87280543D01*
X108823921Y-87301613D01*
X108831773Y-87323557D01*
X108837437Y-87346166D01*
X108840856Y-87369221D01*
X108842000Y-87392500D01*
X108842000Y-87867500D01*
X108840856Y-87890779D01*
X108837437Y-87913834D01*
X108831773Y-87936443D01*
X108823921Y-87958387D01*
X108813956Y-87979457D01*
X108801974Y-87999448D01*
X108788090Y-88018168D01*
X108772438Y-88035438D01*
X108755168Y-88051090D01*
X108736448Y-88064974D01*
X108716457Y-88076956D01*
X108695387Y-88086921D01*
X108673443Y-88094773D01*
X108650834Y-88100437D01*
X108627779Y-88103856D01*
X108604500Y-88105000D01*
X108029500Y-88105000D01*
X108006221Y-88103856D01*
X107983166Y-88100437D01*
X107960557Y-88094773D01*
X107938613Y-88086921D01*
X107917543Y-88076956D01*
X107897552Y-88064974D01*
X107878832Y-88051090D01*
X107861562Y-88035438D01*
X107845910Y-88018168D01*
X107832026Y-87999448D01*
X107820044Y-87979457D01*
X107810079Y-87958387D01*
X107802227Y-87936443D01*
X107796563Y-87913834D01*
X107793144Y-87890779D01*
X107792000Y-87867500D01*
X107792000Y-87392500D01*
X107793144Y-87369221D01*
X107796563Y-87346166D01*
X107802227Y-87323557D01*
X107810079Y-87301613D01*
X107820044Y-87280543D01*
X107832026Y-87260552D01*
X107845910Y-87241832D01*
X107861562Y-87224562D01*
X107878832Y-87208910D01*
X107897552Y-87195026D01*
X107917543Y-87183044D01*
X107938613Y-87173079D01*
X107960557Y-87165227D01*
X107983166Y-87159563D01*
X108006221Y-87156144D01*
X108029500Y-87155000D01*
X108604500Y-87155000D01*
X108627779Y-87156144D01*
X108627779Y-87156144D01*
G37*
D13*
X108317000Y-87630000D03*
D12*
G36*
X106877779Y-87156144D02*
G01*
X106900834Y-87159563D01*
X106923443Y-87165227D01*
X106945387Y-87173079D01*
X106966457Y-87183044D01*
X106986448Y-87195026D01*
X107005168Y-87208910D01*
X107022438Y-87224562D01*
X107038090Y-87241832D01*
X107051974Y-87260552D01*
X107063956Y-87280543D01*
X107073921Y-87301613D01*
X107081773Y-87323557D01*
X107087437Y-87346166D01*
X107090856Y-87369221D01*
X107092000Y-87392500D01*
X107092000Y-87867500D01*
X107090856Y-87890779D01*
X107087437Y-87913834D01*
X107081773Y-87936443D01*
X107073921Y-87958387D01*
X107063956Y-87979457D01*
X107051974Y-87999448D01*
X107038090Y-88018168D01*
X107022438Y-88035438D01*
X107005168Y-88051090D01*
X106986448Y-88064974D01*
X106966457Y-88076956D01*
X106945387Y-88086921D01*
X106923443Y-88094773D01*
X106900834Y-88100437D01*
X106877779Y-88103856D01*
X106854500Y-88105000D01*
X106279500Y-88105000D01*
X106256221Y-88103856D01*
X106233166Y-88100437D01*
X106210557Y-88094773D01*
X106188613Y-88086921D01*
X106167543Y-88076956D01*
X106147552Y-88064974D01*
X106128832Y-88051090D01*
X106111562Y-88035438D01*
X106095910Y-88018168D01*
X106082026Y-87999448D01*
X106070044Y-87979457D01*
X106060079Y-87958387D01*
X106052227Y-87936443D01*
X106046563Y-87913834D01*
X106043144Y-87890779D01*
X106042000Y-87867500D01*
X106042000Y-87392500D01*
X106043144Y-87369221D01*
X106046563Y-87346166D01*
X106052227Y-87323557D01*
X106060079Y-87301613D01*
X106070044Y-87280543D01*
X106082026Y-87260552D01*
X106095910Y-87241832D01*
X106111562Y-87224562D01*
X106128832Y-87208910D01*
X106147552Y-87195026D01*
X106167543Y-87183044D01*
X106188613Y-87173079D01*
X106210557Y-87165227D01*
X106233166Y-87159563D01*
X106256221Y-87156144D01*
X106279500Y-87155000D01*
X106854500Y-87155000D01*
X106877779Y-87156144D01*
X106877779Y-87156144D01*
G37*
D13*
X106567000Y-87630000D03*
D12*
G36*
X136567779Y-87156144D02*
G01*
X136590834Y-87159563D01*
X136613443Y-87165227D01*
X136635387Y-87173079D01*
X136656457Y-87183044D01*
X136676448Y-87195026D01*
X136695168Y-87208910D01*
X136712438Y-87224562D01*
X136728090Y-87241832D01*
X136741974Y-87260552D01*
X136753956Y-87280543D01*
X136763921Y-87301613D01*
X136771773Y-87323557D01*
X136777437Y-87346166D01*
X136780856Y-87369221D01*
X136782000Y-87392500D01*
X136782000Y-87867500D01*
X136780856Y-87890779D01*
X136777437Y-87913834D01*
X136771773Y-87936443D01*
X136763921Y-87958387D01*
X136753956Y-87979457D01*
X136741974Y-87999448D01*
X136728090Y-88018168D01*
X136712438Y-88035438D01*
X136695168Y-88051090D01*
X136676448Y-88064974D01*
X136656457Y-88076956D01*
X136635387Y-88086921D01*
X136613443Y-88094773D01*
X136590834Y-88100437D01*
X136567779Y-88103856D01*
X136544500Y-88105000D01*
X135969500Y-88105000D01*
X135946221Y-88103856D01*
X135923166Y-88100437D01*
X135900557Y-88094773D01*
X135878613Y-88086921D01*
X135857543Y-88076956D01*
X135837552Y-88064974D01*
X135818832Y-88051090D01*
X135801562Y-88035438D01*
X135785910Y-88018168D01*
X135772026Y-87999448D01*
X135760044Y-87979457D01*
X135750079Y-87958387D01*
X135742227Y-87936443D01*
X135736563Y-87913834D01*
X135733144Y-87890779D01*
X135732000Y-87867500D01*
X135732000Y-87392500D01*
X135733144Y-87369221D01*
X135736563Y-87346166D01*
X135742227Y-87323557D01*
X135750079Y-87301613D01*
X135760044Y-87280543D01*
X135772026Y-87260552D01*
X135785910Y-87241832D01*
X135801562Y-87224562D01*
X135818832Y-87208910D01*
X135837552Y-87195026D01*
X135857543Y-87183044D01*
X135878613Y-87173079D01*
X135900557Y-87165227D01*
X135923166Y-87159563D01*
X135946221Y-87156144D01*
X135969500Y-87155000D01*
X136544500Y-87155000D01*
X136567779Y-87156144D01*
X136567779Y-87156144D01*
G37*
D13*
X136257000Y-87630000D03*
D12*
G36*
X134817779Y-87156144D02*
G01*
X134840834Y-87159563D01*
X134863443Y-87165227D01*
X134885387Y-87173079D01*
X134906457Y-87183044D01*
X134926448Y-87195026D01*
X134945168Y-87208910D01*
X134962438Y-87224562D01*
X134978090Y-87241832D01*
X134991974Y-87260552D01*
X135003956Y-87280543D01*
X135013921Y-87301613D01*
X135021773Y-87323557D01*
X135027437Y-87346166D01*
X135030856Y-87369221D01*
X135032000Y-87392500D01*
X135032000Y-87867500D01*
X135030856Y-87890779D01*
X135027437Y-87913834D01*
X135021773Y-87936443D01*
X135013921Y-87958387D01*
X135003956Y-87979457D01*
X134991974Y-87999448D01*
X134978090Y-88018168D01*
X134962438Y-88035438D01*
X134945168Y-88051090D01*
X134926448Y-88064974D01*
X134906457Y-88076956D01*
X134885387Y-88086921D01*
X134863443Y-88094773D01*
X134840834Y-88100437D01*
X134817779Y-88103856D01*
X134794500Y-88105000D01*
X134219500Y-88105000D01*
X134196221Y-88103856D01*
X134173166Y-88100437D01*
X134150557Y-88094773D01*
X134128613Y-88086921D01*
X134107543Y-88076956D01*
X134087552Y-88064974D01*
X134068832Y-88051090D01*
X134051562Y-88035438D01*
X134035910Y-88018168D01*
X134022026Y-87999448D01*
X134010044Y-87979457D01*
X134000079Y-87958387D01*
X133992227Y-87936443D01*
X133986563Y-87913834D01*
X133983144Y-87890779D01*
X133982000Y-87867500D01*
X133982000Y-87392500D01*
X133983144Y-87369221D01*
X133986563Y-87346166D01*
X133992227Y-87323557D01*
X134000079Y-87301613D01*
X134010044Y-87280543D01*
X134022026Y-87260552D01*
X134035910Y-87241832D01*
X134051562Y-87224562D01*
X134068832Y-87208910D01*
X134087552Y-87195026D01*
X134107543Y-87183044D01*
X134128613Y-87173079D01*
X134150557Y-87165227D01*
X134173166Y-87159563D01*
X134196221Y-87156144D01*
X134219500Y-87155000D01*
X134794500Y-87155000D01*
X134817779Y-87156144D01*
X134817779Y-87156144D01*
G37*
D13*
X134507000Y-87630000D03*
D12*
G36*
X98072779Y-79536144D02*
G01*
X98095834Y-79539563D01*
X98118443Y-79545227D01*
X98140387Y-79553079D01*
X98161457Y-79563044D01*
X98181448Y-79575026D01*
X98200168Y-79588910D01*
X98217438Y-79604562D01*
X98233090Y-79621832D01*
X98246974Y-79640552D01*
X98258956Y-79660543D01*
X98268921Y-79681613D01*
X98276773Y-79703557D01*
X98282437Y-79726166D01*
X98285856Y-79749221D01*
X98287000Y-79772500D01*
X98287000Y-80247500D01*
X98285856Y-80270779D01*
X98282437Y-80293834D01*
X98276773Y-80316443D01*
X98268921Y-80338387D01*
X98258956Y-80359457D01*
X98246974Y-80379448D01*
X98233090Y-80398168D01*
X98217438Y-80415438D01*
X98200168Y-80431090D01*
X98181448Y-80444974D01*
X98161457Y-80456956D01*
X98140387Y-80466921D01*
X98118443Y-80474773D01*
X98095834Y-80480437D01*
X98072779Y-80483856D01*
X98049500Y-80485000D01*
X97474500Y-80485000D01*
X97451221Y-80483856D01*
X97428166Y-80480437D01*
X97405557Y-80474773D01*
X97383613Y-80466921D01*
X97362543Y-80456956D01*
X97342552Y-80444974D01*
X97323832Y-80431090D01*
X97306562Y-80415438D01*
X97290910Y-80398168D01*
X97277026Y-80379448D01*
X97265044Y-80359457D01*
X97255079Y-80338387D01*
X97247227Y-80316443D01*
X97241563Y-80293834D01*
X97238144Y-80270779D01*
X97237000Y-80247500D01*
X97237000Y-79772500D01*
X97238144Y-79749221D01*
X97241563Y-79726166D01*
X97247227Y-79703557D01*
X97255079Y-79681613D01*
X97265044Y-79660543D01*
X97277026Y-79640552D01*
X97290910Y-79621832D01*
X97306562Y-79604562D01*
X97323832Y-79588910D01*
X97342552Y-79575026D01*
X97362543Y-79563044D01*
X97383613Y-79553079D01*
X97405557Y-79545227D01*
X97428166Y-79539563D01*
X97451221Y-79536144D01*
X97474500Y-79535000D01*
X98049500Y-79535000D01*
X98072779Y-79536144D01*
X98072779Y-79536144D01*
G37*
D13*
X97762000Y-80010000D03*
D12*
G36*
X96322779Y-79536144D02*
G01*
X96345834Y-79539563D01*
X96368443Y-79545227D01*
X96390387Y-79553079D01*
X96411457Y-79563044D01*
X96431448Y-79575026D01*
X96450168Y-79588910D01*
X96467438Y-79604562D01*
X96483090Y-79621832D01*
X96496974Y-79640552D01*
X96508956Y-79660543D01*
X96518921Y-79681613D01*
X96526773Y-79703557D01*
X96532437Y-79726166D01*
X96535856Y-79749221D01*
X96537000Y-79772500D01*
X96537000Y-80247500D01*
X96535856Y-80270779D01*
X96532437Y-80293834D01*
X96526773Y-80316443D01*
X96518921Y-80338387D01*
X96508956Y-80359457D01*
X96496974Y-80379448D01*
X96483090Y-80398168D01*
X96467438Y-80415438D01*
X96450168Y-80431090D01*
X96431448Y-80444974D01*
X96411457Y-80456956D01*
X96390387Y-80466921D01*
X96368443Y-80474773D01*
X96345834Y-80480437D01*
X96322779Y-80483856D01*
X96299500Y-80485000D01*
X95724500Y-80485000D01*
X95701221Y-80483856D01*
X95678166Y-80480437D01*
X95655557Y-80474773D01*
X95633613Y-80466921D01*
X95612543Y-80456956D01*
X95592552Y-80444974D01*
X95573832Y-80431090D01*
X95556562Y-80415438D01*
X95540910Y-80398168D01*
X95527026Y-80379448D01*
X95515044Y-80359457D01*
X95505079Y-80338387D01*
X95497227Y-80316443D01*
X95491563Y-80293834D01*
X95488144Y-80270779D01*
X95487000Y-80247500D01*
X95487000Y-79772500D01*
X95488144Y-79749221D01*
X95491563Y-79726166D01*
X95497227Y-79703557D01*
X95505079Y-79681613D01*
X95515044Y-79660543D01*
X95527026Y-79640552D01*
X95540910Y-79621832D01*
X95556562Y-79604562D01*
X95573832Y-79588910D01*
X95592552Y-79575026D01*
X95612543Y-79563044D01*
X95633613Y-79553079D01*
X95655557Y-79545227D01*
X95678166Y-79539563D01*
X95701221Y-79536144D01*
X95724500Y-79535000D01*
X96299500Y-79535000D01*
X96322779Y-79536144D01*
X96322779Y-79536144D01*
G37*
D13*
X96012000Y-80010000D03*
D12*
G36*
X98100779Y-82076144D02*
G01*
X98123834Y-82079563D01*
X98146443Y-82085227D01*
X98168387Y-82093079D01*
X98189457Y-82103044D01*
X98209448Y-82115026D01*
X98228168Y-82128910D01*
X98245438Y-82144562D01*
X98261090Y-82161832D01*
X98274974Y-82180552D01*
X98286956Y-82200543D01*
X98296921Y-82221613D01*
X98304773Y-82243557D01*
X98310437Y-82266166D01*
X98313856Y-82289221D01*
X98315000Y-82312500D01*
X98315000Y-82787500D01*
X98313856Y-82810779D01*
X98310437Y-82833834D01*
X98304773Y-82856443D01*
X98296921Y-82878387D01*
X98286956Y-82899457D01*
X98274974Y-82919448D01*
X98261090Y-82938168D01*
X98245438Y-82955438D01*
X98228168Y-82971090D01*
X98209448Y-82984974D01*
X98189457Y-82996956D01*
X98168387Y-83006921D01*
X98146443Y-83014773D01*
X98123834Y-83020437D01*
X98100779Y-83023856D01*
X98077500Y-83025000D01*
X97502500Y-83025000D01*
X97479221Y-83023856D01*
X97456166Y-83020437D01*
X97433557Y-83014773D01*
X97411613Y-83006921D01*
X97390543Y-82996956D01*
X97370552Y-82984974D01*
X97351832Y-82971090D01*
X97334562Y-82955438D01*
X97318910Y-82938168D01*
X97305026Y-82919448D01*
X97293044Y-82899457D01*
X97283079Y-82878387D01*
X97275227Y-82856443D01*
X97269563Y-82833834D01*
X97266144Y-82810779D01*
X97265000Y-82787500D01*
X97265000Y-82312500D01*
X97266144Y-82289221D01*
X97269563Y-82266166D01*
X97275227Y-82243557D01*
X97283079Y-82221613D01*
X97293044Y-82200543D01*
X97305026Y-82180552D01*
X97318910Y-82161832D01*
X97334562Y-82144562D01*
X97351832Y-82128910D01*
X97370552Y-82115026D01*
X97390543Y-82103044D01*
X97411613Y-82093079D01*
X97433557Y-82085227D01*
X97456166Y-82079563D01*
X97479221Y-82076144D01*
X97502500Y-82075000D01*
X98077500Y-82075000D01*
X98100779Y-82076144D01*
X98100779Y-82076144D01*
G37*
D13*
X97790000Y-82550000D03*
D12*
G36*
X96350779Y-82076144D02*
G01*
X96373834Y-82079563D01*
X96396443Y-82085227D01*
X96418387Y-82093079D01*
X96439457Y-82103044D01*
X96459448Y-82115026D01*
X96478168Y-82128910D01*
X96495438Y-82144562D01*
X96511090Y-82161832D01*
X96524974Y-82180552D01*
X96536956Y-82200543D01*
X96546921Y-82221613D01*
X96554773Y-82243557D01*
X96560437Y-82266166D01*
X96563856Y-82289221D01*
X96565000Y-82312500D01*
X96565000Y-82787500D01*
X96563856Y-82810779D01*
X96560437Y-82833834D01*
X96554773Y-82856443D01*
X96546921Y-82878387D01*
X96536956Y-82899457D01*
X96524974Y-82919448D01*
X96511090Y-82938168D01*
X96495438Y-82955438D01*
X96478168Y-82971090D01*
X96459448Y-82984974D01*
X96439457Y-82996956D01*
X96418387Y-83006921D01*
X96396443Y-83014773D01*
X96373834Y-83020437D01*
X96350779Y-83023856D01*
X96327500Y-83025000D01*
X95752500Y-83025000D01*
X95729221Y-83023856D01*
X95706166Y-83020437D01*
X95683557Y-83014773D01*
X95661613Y-83006921D01*
X95640543Y-82996956D01*
X95620552Y-82984974D01*
X95601832Y-82971090D01*
X95584562Y-82955438D01*
X95568910Y-82938168D01*
X95555026Y-82919448D01*
X95543044Y-82899457D01*
X95533079Y-82878387D01*
X95525227Y-82856443D01*
X95519563Y-82833834D01*
X95516144Y-82810779D01*
X95515000Y-82787500D01*
X95515000Y-82312500D01*
X95516144Y-82289221D01*
X95519563Y-82266166D01*
X95525227Y-82243557D01*
X95533079Y-82221613D01*
X95543044Y-82200543D01*
X95555026Y-82180552D01*
X95568910Y-82161832D01*
X95584562Y-82144562D01*
X95601832Y-82128910D01*
X95620552Y-82115026D01*
X95640543Y-82103044D01*
X95661613Y-82093079D01*
X95683557Y-82085227D01*
X95706166Y-82079563D01*
X95729221Y-82076144D01*
X95752500Y-82075000D01*
X96327500Y-82075000D01*
X96350779Y-82076144D01*
X96350779Y-82076144D01*
G37*
D13*
X96040000Y-82550000D03*
D12*
G36*
X126026779Y-79536144D02*
G01*
X126049834Y-79539563D01*
X126072443Y-79545227D01*
X126094387Y-79553079D01*
X126115457Y-79563044D01*
X126135448Y-79575026D01*
X126154168Y-79588910D01*
X126171438Y-79604562D01*
X126187090Y-79621832D01*
X126200974Y-79640552D01*
X126212956Y-79660543D01*
X126222921Y-79681613D01*
X126230773Y-79703557D01*
X126236437Y-79726166D01*
X126239856Y-79749221D01*
X126241000Y-79772500D01*
X126241000Y-80247500D01*
X126239856Y-80270779D01*
X126236437Y-80293834D01*
X126230773Y-80316443D01*
X126222921Y-80338387D01*
X126212956Y-80359457D01*
X126200974Y-80379448D01*
X126187090Y-80398168D01*
X126171438Y-80415438D01*
X126154168Y-80431090D01*
X126135448Y-80444974D01*
X126115457Y-80456956D01*
X126094387Y-80466921D01*
X126072443Y-80474773D01*
X126049834Y-80480437D01*
X126026779Y-80483856D01*
X126003500Y-80485000D01*
X125428500Y-80485000D01*
X125405221Y-80483856D01*
X125382166Y-80480437D01*
X125359557Y-80474773D01*
X125337613Y-80466921D01*
X125316543Y-80456956D01*
X125296552Y-80444974D01*
X125277832Y-80431090D01*
X125260562Y-80415438D01*
X125244910Y-80398168D01*
X125231026Y-80379448D01*
X125219044Y-80359457D01*
X125209079Y-80338387D01*
X125201227Y-80316443D01*
X125195563Y-80293834D01*
X125192144Y-80270779D01*
X125191000Y-80247500D01*
X125191000Y-79772500D01*
X125192144Y-79749221D01*
X125195563Y-79726166D01*
X125201227Y-79703557D01*
X125209079Y-79681613D01*
X125219044Y-79660543D01*
X125231026Y-79640552D01*
X125244910Y-79621832D01*
X125260562Y-79604562D01*
X125277832Y-79588910D01*
X125296552Y-79575026D01*
X125316543Y-79563044D01*
X125337613Y-79553079D01*
X125359557Y-79545227D01*
X125382166Y-79539563D01*
X125405221Y-79536144D01*
X125428500Y-79535000D01*
X126003500Y-79535000D01*
X126026779Y-79536144D01*
X126026779Y-79536144D01*
G37*
D13*
X125716000Y-80010000D03*
D12*
G36*
X124276779Y-79536144D02*
G01*
X124299834Y-79539563D01*
X124322443Y-79545227D01*
X124344387Y-79553079D01*
X124365457Y-79563044D01*
X124385448Y-79575026D01*
X124404168Y-79588910D01*
X124421438Y-79604562D01*
X124437090Y-79621832D01*
X124450974Y-79640552D01*
X124462956Y-79660543D01*
X124472921Y-79681613D01*
X124480773Y-79703557D01*
X124486437Y-79726166D01*
X124489856Y-79749221D01*
X124491000Y-79772500D01*
X124491000Y-80247500D01*
X124489856Y-80270779D01*
X124486437Y-80293834D01*
X124480773Y-80316443D01*
X124472921Y-80338387D01*
X124462956Y-80359457D01*
X124450974Y-80379448D01*
X124437090Y-80398168D01*
X124421438Y-80415438D01*
X124404168Y-80431090D01*
X124385448Y-80444974D01*
X124365457Y-80456956D01*
X124344387Y-80466921D01*
X124322443Y-80474773D01*
X124299834Y-80480437D01*
X124276779Y-80483856D01*
X124253500Y-80485000D01*
X123678500Y-80485000D01*
X123655221Y-80483856D01*
X123632166Y-80480437D01*
X123609557Y-80474773D01*
X123587613Y-80466921D01*
X123566543Y-80456956D01*
X123546552Y-80444974D01*
X123527832Y-80431090D01*
X123510562Y-80415438D01*
X123494910Y-80398168D01*
X123481026Y-80379448D01*
X123469044Y-80359457D01*
X123459079Y-80338387D01*
X123451227Y-80316443D01*
X123445563Y-80293834D01*
X123442144Y-80270779D01*
X123441000Y-80247500D01*
X123441000Y-79772500D01*
X123442144Y-79749221D01*
X123445563Y-79726166D01*
X123451227Y-79703557D01*
X123459079Y-79681613D01*
X123469044Y-79660543D01*
X123481026Y-79640552D01*
X123494910Y-79621832D01*
X123510562Y-79604562D01*
X123527832Y-79588910D01*
X123546552Y-79575026D01*
X123566543Y-79563044D01*
X123587613Y-79553079D01*
X123609557Y-79545227D01*
X123632166Y-79539563D01*
X123655221Y-79536144D01*
X123678500Y-79535000D01*
X124253500Y-79535000D01*
X124276779Y-79536144D01*
X124276779Y-79536144D01*
G37*
D13*
X123966000Y-80010000D03*
D12*
G36*
X126026779Y-82076144D02*
G01*
X126049834Y-82079563D01*
X126072443Y-82085227D01*
X126094387Y-82093079D01*
X126115457Y-82103044D01*
X126135448Y-82115026D01*
X126154168Y-82128910D01*
X126171438Y-82144562D01*
X126187090Y-82161832D01*
X126200974Y-82180552D01*
X126212956Y-82200543D01*
X126222921Y-82221613D01*
X126230773Y-82243557D01*
X126236437Y-82266166D01*
X126239856Y-82289221D01*
X126241000Y-82312500D01*
X126241000Y-82787500D01*
X126239856Y-82810779D01*
X126236437Y-82833834D01*
X126230773Y-82856443D01*
X126222921Y-82878387D01*
X126212956Y-82899457D01*
X126200974Y-82919448D01*
X126187090Y-82938168D01*
X126171438Y-82955438D01*
X126154168Y-82971090D01*
X126135448Y-82984974D01*
X126115457Y-82996956D01*
X126094387Y-83006921D01*
X126072443Y-83014773D01*
X126049834Y-83020437D01*
X126026779Y-83023856D01*
X126003500Y-83025000D01*
X125428500Y-83025000D01*
X125405221Y-83023856D01*
X125382166Y-83020437D01*
X125359557Y-83014773D01*
X125337613Y-83006921D01*
X125316543Y-82996956D01*
X125296552Y-82984974D01*
X125277832Y-82971090D01*
X125260562Y-82955438D01*
X125244910Y-82938168D01*
X125231026Y-82919448D01*
X125219044Y-82899457D01*
X125209079Y-82878387D01*
X125201227Y-82856443D01*
X125195563Y-82833834D01*
X125192144Y-82810779D01*
X125191000Y-82787500D01*
X125191000Y-82312500D01*
X125192144Y-82289221D01*
X125195563Y-82266166D01*
X125201227Y-82243557D01*
X125209079Y-82221613D01*
X125219044Y-82200543D01*
X125231026Y-82180552D01*
X125244910Y-82161832D01*
X125260562Y-82144562D01*
X125277832Y-82128910D01*
X125296552Y-82115026D01*
X125316543Y-82103044D01*
X125337613Y-82093079D01*
X125359557Y-82085227D01*
X125382166Y-82079563D01*
X125405221Y-82076144D01*
X125428500Y-82075000D01*
X126003500Y-82075000D01*
X126026779Y-82076144D01*
X126026779Y-82076144D01*
G37*
D13*
X125716000Y-82550000D03*
D12*
G36*
X124276779Y-82076144D02*
G01*
X124299834Y-82079563D01*
X124322443Y-82085227D01*
X124344387Y-82093079D01*
X124365457Y-82103044D01*
X124385448Y-82115026D01*
X124404168Y-82128910D01*
X124421438Y-82144562D01*
X124437090Y-82161832D01*
X124450974Y-82180552D01*
X124462956Y-82200543D01*
X124472921Y-82221613D01*
X124480773Y-82243557D01*
X124486437Y-82266166D01*
X124489856Y-82289221D01*
X124491000Y-82312500D01*
X124491000Y-82787500D01*
X124489856Y-82810779D01*
X124486437Y-82833834D01*
X124480773Y-82856443D01*
X124472921Y-82878387D01*
X124462956Y-82899457D01*
X124450974Y-82919448D01*
X124437090Y-82938168D01*
X124421438Y-82955438D01*
X124404168Y-82971090D01*
X124385448Y-82984974D01*
X124365457Y-82996956D01*
X124344387Y-83006921D01*
X124322443Y-83014773D01*
X124299834Y-83020437D01*
X124276779Y-83023856D01*
X124253500Y-83025000D01*
X123678500Y-83025000D01*
X123655221Y-83023856D01*
X123632166Y-83020437D01*
X123609557Y-83014773D01*
X123587613Y-83006921D01*
X123566543Y-82996956D01*
X123546552Y-82984974D01*
X123527832Y-82971090D01*
X123510562Y-82955438D01*
X123494910Y-82938168D01*
X123481026Y-82919448D01*
X123469044Y-82899457D01*
X123459079Y-82878387D01*
X123451227Y-82856443D01*
X123445563Y-82833834D01*
X123442144Y-82810779D01*
X123441000Y-82787500D01*
X123441000Y-82312500D01*
X123442144Y-82289221D01*
X123445563Y-82266166D01*
X123451227Y-82243557D01*
X123459079Y-82221613D01*
X123469044Y-82200543D01*
X123481026Y-82180552D01*
X123494910Y-82161832D01*
X123510562Y-82144562D01*
X123527832Y-82128910D01*
X123546552Y-82115026D01*
X123566543Y-82103044D01*
X123587613Y-82093079D01*
X123609557Y-82085227D01*
X123632166Y-82079563D01*
X123655221Y-82076144D01*
X123678500Y-82075000D01*
X124253500Y-82075000D01*
X124276779Y-82076144D01*
X124276779Y-82076144D01*
G37*
D13*
X123966000Y-82550000D03*
D12*
G36*
X136567779Y-71916144D02*
G01*
X136590834Y-71919563D01*
X136613443Y-71925227D01*
X136635387Y-71933079D01*
X136656457Y-71943044D01*
X136676448Y-71955026D01*
X136695168Y-71968910D01*
X136712438Y-71984562D01*
X136728090Y-72001832D01*
X136741974Y-72020552D01*
X136753956Y-72040543D01*
X136763921Y-72061613D01*
X136771773Y-72083557D01*
X136777437Y-72106166D01*
X136780856Y-72129221D01*
X136782000Y-72152500D01*
X136782000Y-72627500D01*
X136780856Y-72650779D01*
X136777437Y-72673834D01*
X136771773Y-72696443D01*
X136763921Y-72718387D01*
X136753956Y-72739457D01*
X136741974Y-72759448D01*
X136728090Y-72778168D01*
X136712438Y-72795438D01*
X136695168Y-72811090D01*
X136676448Y-72824974D01*
X136656457Y-72836956D01*
X136635387Y-72846921D01*
X136613443Y-72854773D01*
X136590834Y-72860437D01*
X136567779Y-72863856D01*
X136544500Y-72865000D01*
X135969500Y-72865000D01*
X135946221Y-72863856D01*
X135923166Y-72860437D01*
X135900557Y-72854773D01*
X135878613Y-72846921D01*
X135857543Y-72836956D01*
X135837552Y-72824974D01*
X135818832Y-72811090D01*
X135801562Y-72795438D01*
X135785910Y-72778168D01*
X135772026Y-72759448D01*
X135760044Y-72739457D01*
X135750079Y-72718387D01*
X135742227Y-72696443D01*
X135736563Y-72673834D01*
X135733144Y-72650779D01*
X135732000Y-72627500D01*
X135732000Y-72152500D01*
X135733144Y-72129221D01*
X135736563Y-72106166D01*
X135742227Y-72083557D01*
X135750079Y-72061613D01*
X135760044Y-72040543D01*
X135772026Y-72020552D01*
X135785910Y-72001832D01*
X135801562Y-71984562D01*
X135818832Y-71968910D01*
X135837552Y-71955026D01*
X135857543Y-71943044D01*
X135878613Y-71933079D01*
X135900557Y-71925227D01*
X135923166Y-71919563D01*
X135946221Y-71916144D01*
X135969500Y-71915000D01*
X136544500Y-71915000D01*
X136567779Y-71916144D01*
X136567779Y-71916144D01*
G37*
D13*
X136257000Y-72390000D03*
D12*
G36*
X134817779Y-71916144D02*
G01*
X134840834Y-71919563D01*
X134863443Y-71925227D01*
X134885387Y-71933079D01*
X134906457Y-71943044D01*
X134926448Y-71955026D01*
X134945168Y-71968910D01*
X134962438Y-71984562D01*
X134978090Y-72001832D01*
X134991974Y-72020552D01*
X135003956Y-72040543D01*
X135013921Y-72061613D01*
X135021773Y-72083557D01*
X135027437Y-72106166D01*
X135030856Y-72129221D01*
X135032000Y-72152500D01*
X135032000Y-72627500D01*
X135030856Y-72650779D01*
X135027437Y-72673834D01*
X135021773Y-72696443D01*
X135013921Y-72718387D01*
X135003956Y-72739457D01*
X134991974Y-72759448D01*
X134978090Y-72778168D01*
X134962438Y-72795438D01*
X134945168Y-72811090D01*
X134926448Y-72824974D01*
X134906457Y-72836956D01*
X134885387Y-72846921D01*
X134863443Y-72854773D01*
X134840834Y-72860437D01*
X134817779Y-72863856D01*
X134794500Y-72865000D01*
X134219500Y-72865000D01*
X134196221Y-72863856D01*
X134173166Y-72860437D01*
X134150557Y-72854773D01*
X134128613Y-72846921D01*
X134107543Y-72836956D01*
X134087552Y-72824974D01*
X134068832Y-72811090D01*
X134051562Y-72795438D01*
X134035910Y-72778168D01*
X134022026Y-72759448D01*
X134010044Y-72739457D01*
X134000079Y-72718387D01*
X133992227Y-72696443D01*
X133986563Y-72673834D01*
X133983144Y-72650779D01*
X133982000Y-72627500D01*
X133982000Y-72152500D01*
X133983144Y-72129221D01*
X133986563Y-72106166D01*
X133992227Y-72083557D01*
X134000079Y-72061613D01*
X134010044Y-72040543D01*
X134022026Y-72020552D01*
X134035910Y-72001832D01*
X134051562Y-71984562D01*
X134068832Y-71968910D01*
X134087552Y-71955026D01*
X134107543Y-71943044D01*
X134128613Y-71933079D01*
X134150557Y-71925227D01*
X134173166Y-71919563D01*
X134196221Y-71916144D01*
X134219500Y-71915000D01*
X134794500Y-71915000D01*
X134817779Y-71916144D01*
X134817779Y-71916144D01*
G37*
D13*
X134507000Y-72390000D03*
D12*
G36*
X108641779Y-71916144D02*
G01*
X108664834Y-71919563D01*
X108687443Y-71925227D01*
X108709387Y-71933079D01*
X108730457Y-71943044D01*
X108750448Y-71955026D01*
X108769168Y-71968910D01*
X108786438Y-71984562D01*
X108802090Y-72001832D01*
X108815974Y-72020552D01*
X108827956Y-72040543D01*
X108837921Y-72061613D01*
X108845773Y-72083557D01*
X108851437Y-72106166D01*
X108854856Y-72129221D01*
X108856000Y-72152500D01*
X108856000Y-72627500D01*
X108854856Y-72650779D01*
X108851437Y-72673834D01*
X108845773Y-72696443D01*
X108837921Y-72718387D01*
X108827956Y-72739457D01*
X108815974Y-72759448D01*
X108802090Y-72778168D01*
X108786438Y-72795438D01*
X108769168Y-72811090D01*
X108750448Y-72824974D01*
X108730457Y-72836956D01*
X108709387Y-72846921D01*
X108687443Y-72854773D01*
X108664834Y-72860437D01*
X108641779Y-72863856D01*
X108618500Y-72865000D01*
X108043500Y-72865000D01*
X108020221Y-72863856D01*
X107997166Y-72860437D01*
X107974557Y-72854773D01*
X107952613Y-72846921D01*
X107931543Y-72836956D01*
X107911552Y-72824974D01*
X107892832Y-72811090D01*
X107875562Y-72795438D01*
X107859910Y-72778168D01*
X107846026Y-72759448D01*
X107834044Y-72739457D01*
X107824079Y-72718387D01*
X107816227Y-72696443D01*
X107810563Y-72673834D01*
X107807144Y-72650779D01*
X107806000Y-72627500D01*
X107806000Y-72152500D01*
X107807144Y-72129221D01*
X107810563Y-72106166D01*
X107816227Y-72083557D01*
X107824079Y-72061613D01*
X107834044Y-72040543D01*
X107846026Y-72020552D01*
X107859910Y-72001832D01*
X107875562Y-71984562D01*
X107892832Y-71968910D01*
X107911552Y-71955026D01*
X107931543Y-71943044D01*
X107952613Y-71933079D01*
X107974557Y-71925227D01*
X107997166Y-71919563D01*
X108020221Y-71916144D01*
X108043500Y-71915000D01*
X108618500Y-71915000D01*
X108641779Y-71916144D01*
X108641779Y-71916144D01*
G37*
D13*
X108331000Y-72390000D03*
D12*
G36*
X106891779Y-71916144D02*
G01*
X106914834Y-71919563D01*
X106937443Y-71925227D01*
X106959387Y-71933079D01*
X106980457Y-71943044D01*
X107000448Y-71955026D01*
X107019168Y-71968910D01*
X107036438Y-71984562D01*
X107052090Y-72001832D01*
X107065974Y-72020552D01*
X107077956Y-72040543D01*
X107087921Y-72061613D01*
X107095773Y-72083557D01*
X107101437Y-72106166D01*
X107104856Y-72129221D01*
X107106000Y-72152500D01*
X107106000Y-72627500D01*
X107104856Y-72650779D01*
X107101437Y-72673834D01*
X107095773Y-72696443D01*
X107087921Y-72718387D01*
X107077956Y-72739457D01*
X107065974Y-72759448D01*
X107052090Y-72778168D01*
X107036438Y-72795438D01*
X107019168Y-72811090D01*
X107000448Y-72824974D01*
X106980457Y-72836956D01*
X106959387Y-72846921D01*
X106937443Y-72854773D01*
X106914834Y-72860437D01*
X106891779Y-72863856D01*
X106868500Y-72865000D01*
X106293500Y-72865000D01*
X106270221Y-72863856D01*
X106247166Y-72860437D01*
X106224557Y-72854773D01*
X106202613Y-72846921D01*
X106181543Y-72836956D01*
X106161552Y-72824974D01*
X106142832Y-72811090D01*
X106125562Y-72795438D01*
X106109910Y-72778168D01*
X106096026Y-72759448D01*
X106084044Y-72739457D01*
X106074079Y-72718387D01*
X106066227Y-72696443D01*
X106060563Y-72673834D01*
X106057144Y-72650779D01*
X106056000Y-72627500D01*
X106056000Y-72152500D01*
X106057144Y-72129221D01*
X106060563Y-72106166D01*
X106066227Y-72083557D01*
X106074079Y-72061613D01*
X106084044Y-72040543D01*
X106096026Y-72020552D01*
X106109910Y-72001832D01*
X106125562Y-71984562D01*
X106142832Y-71968910D01*
X106161552Y-71955026D01*
X106181543Y-71943044D01*
X106202613Y-71933079D01*
X106224557Y-71925227D01*
X106247166Y-71919563D01*
X106270221Y-71916144D01*
X106293500Y-71915000D01*
X106868500Y-71915000D01*
X106891779Y-71916144D01*
X106891779Y-71916144D01*
G37*
D13*
X106581000Y-72390000D03*
D12*
G36*
X126040779Y-64296144D02*
G01*
X126063834Y-64299563D01*
X126086443Y-64305227D01*
X126108387Y-64313079D01*
X126129457Y-64323044D01*
X126149448Y-64335026D01*
X126168168Y-64348910D01*
X126185438Y-64364562D01*
X126201090Y-64381832D01*
X126214974Y-64400552D01*
X126226956Y-64420543D01*
X126236921Y-64441613D01*
X126244773Y-64463557D01*
X126250437Y-64486166D01*
X126253856Y-64509221D01*
X126255000Y-64532500D01*
X126255000Y-65007500D01*
X126253856Y-65030779D01*
X126250437Y-65053834D01*
X126244773Y-65076443D01*
X126236921Y-65098387D01*
X126226956Y-65119457D01*
X126214974Y-65139448D01*
X126201090Y-65158168D01*
X126185438Y-65175438D01*
X126168168Y-65191090D01*
X126149448Y-65204974D01*
X126129457Y-65216956D01*
X126108387Y-65226921D01*
X126086443Y-65234773D01*
X126063834Y-65240437D01*
X126040779Y-65243856D01*
X126017500Y-65245000D01*
X125442500Y-65245000D01*
X125419221Y-65243856D01*
X125396166Y-65240437D01*
X125373557Y-65234773D01*
X125351613Y-65226921D01*
X125330543Y-65216956D01*
X125310552Y-65204974D01*
X125291832Y-65191090D01*
X125274562Y-65175438D01*
X125258910Y-65158168D01*
X125245026Y-65139448D01*
X125233044Y-65119457D01*
X125223079Y-65098387D01*
X125215227Y-65076443D01*
X125209563Y-65053834D01*
X125206144Y-65030779D01*
X125205000Y-65007500D01*
X125205000Y-64532500D01*
X125206144Y-64509221D01*
X125209563Y-64486166D01*
X125215227Y-64463557D01*
X125223079Y-64441613D01*
X125233044Y-64420543D01*
X125245026Y-64400552D01*
X125258910Y-64381832D01*
X125274562Y-64364562D01*
X125291832Y-64348910D01*
X125310552Y-64335026D01*
X125330543Y-64323044D01*
X125351613Y-64313079D01*
X125373557Y-64305227D01*
X125396166Y-64299563D01*
X125419221Y-64296144D01*
X125442500Y-64295000D01*
X126017500Y-64295000D01*
X126040779Y-64296144D01*
X126040779Y-64296144D01*
G37*
D13*
X125730000Y-64770000D03*
D12*
G36*
X124290779Y-64296144D02*
G01*
X124313834Y-64299563D01*
X124336443Y-64305227D01*
X124358387Y-64313079D01*
X124379457Y-64323044D01*
X124399448Y-64335026D01*
X124418168Y-64348910D01*
X124435438Y-64364562D01*
X124451090Y-64381832D01*
X124464974Y-64400552D01*
X124476956Y-64420543D01*
X124486921Y-64441613D01*
X124494773Y-64463557D01*
X124500437Y-64486166D01*
X124503856Y-64509221D01*
X124505000Y-64532500D01*
X124505000Y-65007500D01*
X124503856Y-65030779D01*
X124500437Y-65053834D01*
X124494773Y-65076443D01*
X124486921Y-65098387D01*
X124476956Y-65119457D01*
X124464974Y-65139448D01*
X124451090Y-65158168D01*
X124435438Y-65175438D01*
X124418168Y-65191090D01*
X124399448Y-65204974D01*
X124379457Y-65216956D01*
X124358387Y-65226921D01*
X124336443Y-65234773D01*
X124313834Y-65240437D01*
X124290779Y-65243856D01*
X124267500Y-65245000D01*
X123692500Y-65245000D01*
X123669221Y-65243856D01*
X123646166Y-65240437D01*
X123623557Y-65234773D01*
X123601613Y-65226921D01*
X123580543Y-65216956D01*
X123560552Y-65204974D01*
X123541832Y-65191090D01*
X123524562Y-65175438D01*
X123508910Y-65158168D01*
X123495026Y-65139448D01*
X123483044Y-65119457D01*
X123473079Y-65098387D01*
X123465227Y-65076443D01*
X123459563Y-65053834D01*
X123456144Y-65030779D01*
X123455000Y-65007500D01*
X123455000Y-64532500D01*
X123456144Y-64509221D01*
X123459563Y-64486166D01*
X123465227Y-64463557D01*
X123473079Y-64441613D01*
X123483044Y-64420543D01*
X123495026Y-64400552D01*
X123508910Y-64381832D01*
X123524562Y-64364562D01*
X123541832Y-64348910D01*
X123560552Y-64335026D01*
X123580543Y-64323044D01*
X123601613Y-64313079D01*
X123623557Y-64305227D01*
X123646166Y-64299563D01*
X123669221Y-64296144D01*
X123692500Y-64295000D01*
X124267500Y-64295000D01*
X124290779Y-64296144D01*
X124290779Y-64296144D01*
G37*
D13*
X123980000Y-64770000D03*
D12*
G36*
X126040779Y-66836144D02*
G01*
X126063834Y-66839563D01*
X126086443Y-66845227D01*
X126108387Y-66853079D01*
X126129457Y-66863044D01*
X126149448Y-66875026D01*
X126168168Y-66888910D01*
X126185438Y-66904562D01*
X126201090Y-66921832D01*
X126214974Y-66940552D01*
X126226956Y-66960543D01*
X126236921Y-66981613D01*
X126244773Y-67003557D01*
X126250437Y-67026166D01*
X126253856Y-67049221D01*
X126255000Y-67072500D01*
X126255000Y-67547500D01*
X126253856Y-67570779D01*
X126250437Y-67593834D01*
X126244773Y-67616443D01*
X126236921Y-67638387D01*
X126226956Y-67659457D01*
X126214974Y-67679448D01*
X126201090Y-67698168D01*
X126185438Y-67715438D01*
X126168168Y-67731090D01*
X126149448Y-67744974D01*
X126129457Y-67756956D01*
X126108387Y-67766921D01*
X126086443Y-67774773D01*
X126063834Y-67780437D01*
X126040779Y-67783856D01*
X126017500Y-67785000D01*
X125442500Y-67785000D01*
X125419221Y-67783856D01*
X125396166Y-67780437D01*
X125373557Y-67774773D01*
X125351613Y-67766921D01*
X125330543Y-67756956D01*
X125310552Y-67744974D01*
X125291832Y-67731090D01*
X125274562Y-67715438D01*
X125258910Y-67698168D01*
X125245026Y-67679448D01*
X125233044Y-67659457D01*
X125223079Y-67638387D01*
X125215227Y-67616443D01*
X125209563Y-67593834D01*
X125206144Y-67570779D01*
X125205000Y-67547500D01*
X125205000Y-67072500D01*
X125206144Y-67049221D01*
X125209563Y-67026166D01*
X125215227Y-67003557D01*
X125223079Y-66981613D01*
X125233044Y-66960543D01*
X125245026Y-66940552D01*
X125258910Y-66921832D01*
X125274562Y-66904562D01*
X125291832Y-66888910D01*
X125310552Y-66875026D01*
X125330543Y-66863044D01*
X125351613Y-66853079D01*
X125373557Y-66845227D01*
X125396166Y-66839563D01*
X125419221Y-66836144D01*
X125442500Y-66835000D01*
X126017500Y-66835000D01*
X126040779Y-66836144D01*
X126040779Y-66836144D01*
G37*
D13*
X125730000Y-67310000D03*
D12*
G36*
X124290779Y-66836144D02*
G01*
X124313834Y-66839563D01*
X124336443Y-66845227D01*
X124358387Y-66853079D01*
X124379457Y-66863044D01*
X124399448Y-66875026D01*
X124418168Y-66888910D01*
X124435438Y-66904562D01*
X124451090Y-66921832D01*
X124464974Y-66940552D01*
X124476956Y-66960543D01*
X124486921Y-66981613D01*
X124494773Y-67003557D01*
X124500437Y-67026166D01*
X124503856Y-67049221D01*
X124505000Y-67072500D01*
X124505000Y-67547500D01*
X124503856Y-67570779D01*
X124500437Y-67593834D01*
X124494773Y-67616443D01*
X124486921Y-67638387D01*
X124476956Y-67659457D01*
X124464974Y-67679448D01*
X124451090Y-67698168D01*
X124435438Y-67715438D01*
X124418168Y-67731090D01*
X124399448Y-67744974D01*
X124379457Y-67756956D01*
X124358387Y-67766921D01*
X124336443Y-67774773D01*
X124313834Y-67780437D01*
X124290779Y-67783856D01*
X124267500Y-67785000D01*
X123692500Y-67785000D01*
X123669221Y-67783856D01*
X123646166Y-67780437D01*
X123623557Y-67774773D01*
X123601613Y-67766921D01*
X123580543Y-67756956D01*
X123560552Y-67744974D01*
X123541832Y-67731090D01*
X123524562Y-67715438D01*
X123508910Y-67698168D01*
X123495026Y-67679448D01*
X123483044Y-67659457D01*
X123473079Y-67638387D01*
X123465227Y-67616443D01*
X123459563Y-67593834D01*
X123456144Y-67570779D01*
X123455000Y-67547500D01*
X123455000Y-67072500D01*
X123456144Y-67049221D01*
X123459563Y-67026166D01*
X123465227Y-67003557D01*
X123473079Y-66981613D01*
X123483044Y-66960543D01*
X123495026Y-66940552D01*
X123508910Y-66921832D01*
X123524562Y-66904562D01*
X123541832Y-66888910D01*
X123560552Y-66875026D01*
X123580543Y-66863044D01*
X123601613Y-66853079D01*
X123623557Y-66845227D01*
X123646166Y-66839563D01*
X123669221Y-66836144D01*
X123692500Y-66835000D01*
X124267500Y-66835000D01*
X124290779Y-66836144D01*
X124290779Y-66836144D01*
G37*
D13*
X123980000Y-67310000D03*
D12*
G36*
X142790779Y-104428144D02*
G01*
X142813834Y-104431563D01*
X142836443Y-104437227D01*
X142858387Y-104445079D01*
X142879457Y-104455044D01*
X142899448Y-104467026D01*
X142918168Y-104480910D01*
X142935438Y-104496562D01*
X142951090Y-104513832D01*
X142964974Y-104532552D01*
X142976956Y-104552543D01*
X142986921Y-104573613D01*
X142994773Y-104595557D01*
X143000437Y-104618166D01*
X143003856Y-104641221D01*
X143005000Y-104664500D01*
X143005000Y-105139500D01*
X143003856Y-105162779D01*
X143000437Y-105185834D01*
X142994773Y-105208443D01*
X142986921Y-105230387D01*
X142976956Y-105251457D01*
X142964974Y-105271448D01*
X142951090Y-105290168D01*
X142935438Y-105307438D01*
X142918168Y-105323090D01*
X142899448Y-105336974D01*
X142879457Y-105348956D01*
X142858387Y-105358921D01*
X142836443Y-105366773D01*
X142813834Y-105372437D01*
X142790779Y-105375856D01*
X142767500Y-105377000D01*
X142192500Y-105377000D01*
X142169221Y-105375856D01*
X142146166Y-105372437D01*
X142123557Y-105366773D01*
X142101613Y-105358921D01*
X142080543Y-105348956D01*
X142060552Y-105336974D01*
X142041832Y-105323090D01*
X142024562Y-105307438D01*
X142008910Y-105290168D01*
X141995026Y-105271448D01*
X141983044Y-105251457D01*
X141973079Y-105230387D01*
X141965227Y-105208443D01*
X141959563Y-105185834D01*
X141956144Y-105162779D01*
X141955000Y-105139500D01*
X141955000Y-104664500D01*
X141956144Y-104641221D01*
X141959563Y-104618166D01*
X141965227Y-104595557D01*
X141973079Y-104573613D01*
X141983044Y-104552543D01*
X141995026Y-104532552D01*
X142008910Y-104513832D01*
X142024562Y-104496562D01*
X142041832Y-104480910D01*
X142060552Y-104467026D01*
X142080543Y-104455044D01*
X142101613Y-104445079D01*
X142123557Y-104437227D01*
X142146166Y-104431563D01*
X142169221Y-104428144D01*
X142192500Y-104427000D01*
X142767500Y-104427000D01*
X142790779Y-104428144D01*
X142790779Y-104428144D01*
G37*
D13*
X142480000Y-104902000D03*
D12*
G36*
X141040779Y-104428144D02*
G01*
X141063834Y-104431563D01*
X141086443Y-104437227D01*
X141108387Y-104445079D01*
X141129457Y-104455044D01*
X141149448Y-104467026D01*
X141168168Y-104480910D01*
X141185438Y-104496562D01*
X141201090Y-104513832D01*
X141214974Y-104532552D01*
X141226956Y-104552543D01*
X141236921Y-104573613D01*
X141244773Y-104595557D01*
X141250437Y-104618166D01*
X141253856Y-104641221D01*
X141255000Y-104664500D01*
X141255000Y-105139500D01*
X141253856Y-105162779D01*
X141250437Y-105185834D01*
X141244773Y-105208443D01*
X141236921Y-105230387D01*
X141226956Y-105251457D01*
X141214974Y-105271448D01*
X141201090Y-105290168D01*
X141185438Y-105307438D01*
X141168168Y-105323090D01*
X141149448Y-105336974D01*
X141129457Y-105348956D01*
X141108387Y-105358921D01*
X141086443Y-105366773D01*
X141063834Y-105372437D01*
X141040779Y-105375856D01*
X141017500Y-105377000D01*
X140442500Y-105377000D01*
X140419221Y-105375856D01*
X140396166Y-105372437D01*
X140373557Y-105366773D01*
X140351613Y-105358921D01*
X140330543Y-105348956D01*
X140310552Y-105336974D01*
X140291832Y-105323090D01*
X140274562Y-105307438D01*
X140258910Y-105290168D01*
X140245026Y-105271448D01*
X140233044Y-105251457D01*
X140223079Y-105230387D01*
X140215227Y-105208443D01*
X140209563Y-105185834D01*
X140206144Y-105162779D01*
X140205000Y-105139500D01*
X140205000Y-104664500D01*
X140206144Y-104641221D01*
X140209563Y-104618166D01*
X140215227Y-104595557D01*
X140223079Y-104573613D01*
X140233044Y-104552543D01*
X140245026Y-104532552D01*
X140258910Y-104513832D01*
X140274562Y-104496562D01*
X140291832Y-104480910D01*
X140310552Y-104467026D01*
X140330543Y-104455044D01*
X140351613Y-104445079D01*
X140373557Y-104437227D01*
X140396166Y-104431563D01*
X140419221Y-104428144D01*
X140442500Y-104427000D01*
X141017500Y-104427000D01*
X141040779Y-104428144D01*
X141040779Y-104428144D01*
G37*
D13*
X140730000Y-104902000D03*
D12*
G36*
X142776779Y-99856144D02*
G01*
X142799834Y-99859563D01*
X142822443Y-99865227D01*
X142844387Y-99873079D01*
X142865457Y-99883044D01*
X142885448Y-99895026D01*
X142904168Y-99908910D01*
X142921438Y-99924562D01*
X142937090Y-99941832D01*
X142950974Y-99960552D01*
X142962956Y-99980543D01*
X142972921Y-100001613D01*
X142980773Y-100023557D01*
X142986437Y-100046166D01*
X142989856Y-100069221D01*
X142991000Y-100092500D01*
X142991000Y-100567500D01*
X142989856Y-100590779D01*
X142986437Y-100613834D01*
X142980773Y-100636443D01*
X142972921Y-100658387D01*
X142962956Y-100679457D01*
X142950974Y-100699448D01*
X142937090Y-100718168D01*
X142921438Y-100735438D01*
X142904168Y-100751090D01*
X142885448Y-100764974D01*
X142865457Y-100776956D01*
X142844387Y-100786921D01*
X142822443Y-100794773D01*
X142799834Y-100800437D01*
X142776779Y-100803856D01*
X142753500Y-100805000D01*
X142178500Y-100805000D01*
X142155221Y-100803856D01*
X142132166Y-100800437D01*
X142109557Y-100794773D01*
X142087613Y-100786921D01*
X142066543Y-100776956D01*
X142046552Y-100764974D01*
X142027832Y-100751090D01*
X142010562Y-100735438D01*
X141994910Y-100718168D01*
X141981026Y-100699448D01*
X141969044Y-100679457D01*
X141959079Y-100658387D01*
X141951227Y-100636443D01*
X141945563Y-100613834D01*
X141942144Y-100590779D01*
X141941000Y-100567500D01*
X141941000Y-100092500D01*
X141942144Y-100069221D01*
X141945563Y-100046166D01*
X141951227Y-100023557D01*
X141959079Y-100001613D01*
X141969044Y-99980543D01*
X141981026Y-99960552D01*
X141994910Y-99941832D01*
X142010562Y-99924562D01*
X142027832Y-99908910D01*
X142046552Y-99895026D01*
X142066543Y-99883044D01*
X142087613Y-99873079D01*
X142109557Y-99865227D01*
X142132166Y-99859563D01*
X142155221Y-99856144D01*
X142178500Y-99855000D01*
X142753500Y-99855000D01*
X142776779Y-99856144D01*
X142776779Y-99856144D01*
G37*
D13*
X142466000Y-100330000D03*
D12*
G36*
X141026779Y-99856144D02*
G01*
X141049834Y-99859563D01*
X141072443Y-99865227D01*
X141094387Y-99873079D01*
X141115457Y-99883044D01*
X141135448Y-99895026D01*
X141154168Y-99908910D01*
X141171438Y-99924562D01*
X141187090Y-99941832D01*
X141200974Y-99960552D01*
X141212956Y-99980543D01*
X141222921Y-100001613D01*
X141230773Y-100023557D01*
X141236437Y-100046166D01*
X141239856Y-100069221D01*
X141241000Y-100092500D01*
X141241000Y-100567500D01*
X141239856Y-100590779D01*
X141236437Y-100613834D01*
X141230773Y-100636443D01*
X141222921Y-100658387D01*
X141212956Y-100679457D01*
X141200974Y-100699448D01*
X141187090Y-100718168D01*
X141171438Y-100735438D01*
X141154168Y-100751090D01*
X141135448Y-100764974D01*
X141115457Y-100776956D01*
X141094387Y-100786921D01*
X141072443Y-100794773D01*
X141049834Y-100800437D01*
X141026779Y-100803856D01*
X141003500Y-100805000D01*
X140428500Y-100805000D01*
X140405221Y-100803856D01*
X140382166Y-100800437D01*
X140359557Y-100794773D01*
X140337613Y-100786921D01*
X140316543Y-100776956D01*
X140296552Y-100764974D01*
X140277832Y-100751090D01*
X140260562Y-100735438D01*
X140244910Y-100718168D01*
X140231026Y-100699448D01*
X140219044Y-100679457D01*
X140209079Y-100658387D01*
X140201227Y-100636443D01*
X140195563Y-100613834D01*
X140192144Y-100590779D01*
X140191000Y-100567500D01*
X140191000Y-100092500D01*
X140192144Y-100069221D01*
X140195563Y-100046166D01*
X140201227Y-100023557D01*
X140209079Y-100001613D01*
X140219044Y-99980543D01*
X140231026Y-99960552D01*
X140244910Y-99941832D01*
X140260562Y-99924562D01*
X140277832Y-99908910D01*
X140296552Y-99895026D01*
X140316543Y-99883044D01*
X140337613Y-99873079D01*
X140359557Y-99865227D01*
X140382166Y-99859563D01*
X140405221Y-99856144D01*
X140428500Y-99855000D01*
X141003500Y-99855000D01*
X141026779Y-99856144D01*
X141026779Y-99856144D01*
G37*
D13*
X140716000Y-100330000D03*
D12*
G36*
X142804779Y-95284144D02*
G01*
X142827834Y-95287563D01*
X142850443Y-95293227D01*
X142872387Y-95301079D01*
X142893457Y-95311044D01*
X142913448Y-95323026D01*
X142932168Y-95336910D01*
X142949438Y-95352562D01*
X142965090Y-95369832D01*
X142978974Y-95388552D01*
X142990956Y-95408543D01*
X143000921Y-95429613D01*
X143008773Y-95451557D01*
X143014437Y-95474166D01*
X143017856Y-95497221D01*
X143019000Y-95520500D01*
X143019000Y-95995500D01*
X143017856Y-96018779D01*
X143014437Y-96041834D01*
X143008773Y-96064443D01*
X143000921Y-96086387D01*
X142990956Y-96107457D01*
X142978974Y-96127448D01*
X142965090Y-96146168D01*
X142949438Y-96163438D01*
X142932168Y-96179090D01*
X142913448Y-96192974D01*
X142893457Y-96204956D01*
X142872387Y-96214921D01*
X142850443Y-96222773D01*
X142827834Y-96228437D01*
X142804779Y-96231856D01*
X142781500Y-96233000D01*
X142206500Y-96233000D01*
X142183221Y-96231856D01*
X142160166Y-96228437D01*
X142137557Y-96222773D01*
X142115613Y-96214921D01*
X142094543Y-96204956D01*
X142074552Y-96192974D01*
X142055832Y-96179090D01*
X142038562Y-96163438D01*
X142022910Y-96146168D01*
X142009026Y-96127448D01*
X141997044Y-96107457D01*
X141987079Y-96086387D01*
X141979227Y-96064443D01*
X141973563Y-96041834D01*
X141970144Y-96018779D01*
X141969000Y-95995500D01*
X141969000Y-95520500D01*
X141970144Y-95497221D01*
X141973563Y-95474166D01*
X141979227Y-95451557D01*
X141987079Y-95429613D01*
X141997044Y-95408543D01*
X142009026Y-95388552D01*
X142022910Y-95369832D01*
X142038562Y-95352562D01*
X142055832Y-95336910D01*
X142074552Y-95323026D01*
X142094543Y-95311044D01*
X142115613Y-95301079D01*
X142137557Y-95293227D01*
X142160166Y-95287563D01*
X142183221Y-95284144D01*
X142206500Y-95283000D01*
X142781500Y-95283000D01*
X142804779Y-95284144D01*
X142804779Y-95284144D01*
G37*
D13*
X142494000Y-95758000D03*
D12*
G36*
X141054779Y-95284144D02*
G01*
X141077834Y-95287563D01*
X141100443Y-95293227D01*
X141122387Y-95301079D01*
X141143457Y-95311044D01*
X141163448Y-95323026D01*
X141182168Y-95336910D01*
X141199438Y-95352562D01*
X141215090Y-95369832D01*
X141228974Y-95388552D01*
X141240956Y-95408543D01*
X141250921Y-95429613D01*
X141258773Y-95451557D01*
X141264437Y-95474166D01*
X141267856Y-95497221D01*
X141269000Y-95520500D01*
X141269000Y-95995500D01*
X141267856Y-96018779D01*
X141264437Y-96041834D01*
X141258773Y-96064443D01*
X141250921Y-96086387D01*
X141240956Y-96107457D01*
X141228974Y-96127448D01*
X141215090Y-96146168D01*
X141199438Y-96163438D01*
X141182168Y-96179090D01*
X141163448Y-96192974D01*
X141143457Y-96204956D01*
X141122387Y-96214921D01*
X141100443Y-96222773D01*
X141077834Y-96228437D01*
X141054779Y-96231856D01*
X141031500Y-96233000D01*
X140456500Y-96233000D01*
X140433221Y-96231856D01*
X140410166Y-96228437D01*
X140387557Y-96222773D01*
X140365613Y-96214921D01*
X140344543Y-96204956D01*
X140324552Y-96192974D01*
X140305832Y-96179090D01*
X140288562Y-96163438D01*
X140272910Y-96146168D01*
X140259026Y-96127448D01*
X140247044Y-96107457D01*
X140237079Y-96086387D01*
X140229227Y-96064443D01*
X140223563Y-96041834D01*
X140220144Y-96018779D01*
X140219000Y-95995500D01*
X140219000Y-95520500D01*
X140220144Y-95497221D01*
X140223563Y-95474166D01*
X140229227Y-95451557D01*
X140237079Y-95429613D01*
X140247044Y-95408543D01*
X140259026Y-95388552D01*
X140272910Y-95369832D01*
X140288562Y-95352562D01*
X140305832Y-95336910D01*
X140324552Y-95323026D01*
X140344543Y-95311044D01*
X140365613Y-95301079D01*
X140387557Y-95293227D01*
X140410166Y-95287563D01*
X140433221Y-95284144D01*
X140456500Y-95283000D01*
X141031500Y-95283000D01*
X141054779Y-95284144D01*
X141054779Y-95284144D01*
G37*
D13*
X140744000Y-95758000D03*
D12*
G36*
X98072779Y-64296144D02*
G01*
X98095834Y-64299563D01*
X98118443Y-64305227D01*
X98140387Y-64313079D01*
X98161457Y-64323044D01*
X98181448Y-64335026D01*
X98200168Y-64348910D01*
X98217438Y-64364562D01*
X98233090Y-64381832D01*
X98246974Y-64400552D01*
X98258956Y-64420543D01*
X98268921Y-64441613D01*
X98276773Y-64463557D01*
X98282437Y-64486166D01*
X98285856Y-64509221D01*
X98287000Y-64532500D01*
X98287000Y-65007500D01*
X98285856Y-65030779D01*
X98282437Y-65053834D01*
X98276773Y-65076443D01*
X98268921Y-65098387D01*
X98258956Y-65119457D01*
X98246974Y-65139448D01*
X98233090Y-65158168D01*
X98217438Y-65175438D01*
X98200168Y-65191090D01*
X98181448Y-65204974D01*
X98161457Y-65216956D01*
X98140387Y-65226921D01*
X98118443Y-65234773D01*
X98095834Y-65240437D01*
X98072779Y-65243856D01*
X98049500Y-65245000D01*
X97474500Y-65245000D01*
X97451221Y-65243856D01*
X97428166Y-65240437D01*
X97405557Y-65234773D01*
X97383613Y-65226921D01*
X97362543Y-65216956D01*
X97342552Y-65204974D01*
X97323832Y-65191090D01*
X97306562Y-65175438D01*
X97290910Y-65158168D01*
X97277026Y-65139448D01*
X97265044Y-65119457D01*
X97255079Y-65098387D01*
X97247227Y-65076443D01*
X97241563Y-65053834D01*
X97238144Y-65030779D01*
X97237000Y-65007500D01*
X97237000Y-64532500D01*
X97238144Y-64509221D01*
X97241563Y-64486166D01*
X97247227Y-64463557D01*
X97255079Y-64441613D01*
X97265044Y-64420543D01*
X97277026Y-64400552D01*
X97290910Y-64381832D01*
X97306562Y-64364562D01*
X97323832Y-64348910D01*
X97342552Y-64335026D01*
X97362543Y-64323044D01*
X97383613Y-64313079D01*
X97405557Y-64305227D01*
X97428166Y-64299563D01*
X97451221Y-64296144D01*
X97474500Y-64295000D01*
X98049500Y-64295000D01*
X98072779Y-64296144D01*
X98072779Y-64296144D01*
G37*
D13*
X97762000Y-64770000D03*
D12*
G36*
X96322779Y-64296144D02*
G01*
X96345834Y-64299563D01*
X96368443Y-64305227D01*
X96390387Y-64313079D01*
X96411457Y-64323044D01*
X96431448Y-64335026D01*
X96450168Y-64348910D01*
X96467438Y-64364562D01*
X96483090Y-64381832D01*
X96496974Y-64400552D01*
X96508956Y-64420543D01*
X96518921Y-64441613D01*
X96526773Y-64463557D01*
X96532437Y-64486166D01*
X96535856Y-64509221D01*
X96537000Y-64532500D01*
X96537000Y-65007500D01*
X96535856Y-65030779D01*
X96532437Y-65053834D01*
X96526773Y-65076443D01*
X96518921Y-65098387D01*
X96508956Y-65119457D01*
X96496974Y-65139448D01*
X96483090Y-65158168D01*
X96467438Y-65175438D01*
X96450168Y-65191090D01*
X96431448Y-65204974D01*
X96411457Y-65216956D01*
X96390387Y-65226921D01*
X96368443Y-65234773D01*
X96345834Y-65240437D01*
X96322779Y-65243856D01*
X96299500Y-65245000D01*
X95724500Y-65245000D01*
X95701221Y-65243856D01*
X95678166Y-65240437D01*
X95655557Y-65234773D01*
X95633613Y-65226921D01*
X95612543Y-65216956D01*
X95592552Y-65204974D01*
X95573832Y-65191090D01*
X95556562Y-65175438D01*
X95540910Y-65158168D01*
X95527026Y-65139448D01*
X95515044Y-65119457D01*
X95505079Y-65098387D01*
X95497227Y-65076443D01*
X95491563Y-65053834D01*
X95488144Y-65030779D01*
X95487000Y-65007500D01*
X95487000Y-64532500D01*
X95488144Y-64509221D01*
X95491563Y-64486166D01*
X95497227Y-64463557D01*
X95505079Y-64441613D01*
X95515044Y-64420543D01*
X95527026Y-64400552D01*
X95540910Y-64381832D01*
X95556562Y-64364562D01*
X95573832Y-64348910D01*
X95592552Y-64335026D01*
X95612543Y-64323044D01*
X95633613Y-64313079D01*
X95655557Y-64305227D01*
X95678166Y-64299563D01*
X95701221Y-64296144D01*
X95724500Y-64295000D01*
X96299500Y-64295000D01*
X96322779Y-64296144D01*
X96322779Y-64296144D01*
G37*
D13*
X96012000Y-64770000D03*
D12*
G36*
X98100779Y-66836144D02*
G01*
X98123834Y-66839563D01*
X98146443Y-66845227D01*
X98168387Y-66853079D01*
X98189457Y-66863044D01*
X98209448Y-66875026D01*
X98228168Y-66888910D01*
X98245438Y-66904562D01*
X98261090Y-66921832D01*
X98274974Y-66940552D01*
X98286956Y-66960543D01*
X98296921Y-66981613D01*
X98304773Y-67003557D01*
X98310437Y-67026166D01*
X98313856Y-67049221D01*
X98315000Y-67072500D01*
X98315000Y-67547500D01*
X98313856Y-67570779D01*
X98310437Y-67593834D01*
X98304773Y-67616443D01*
X98296921Y-67638387D01*
X98286956Y-67659457D01*
X98274974Y-67679448D01*
X98261090Y-67698168D01*
X98245438Y-67715438D01*
X98228168Y-67731090D01*
X98209448Y-67744974D01*
X98189457Y-67756956D01*
X98168387Y-67766921D01*
X98146443Y-67774773D01*
X98123834Y-67780437D01*
X98100779Y-67783856D01*
X98077500Y-67785000D01*
X97502500Y-67785000D01*
X97479221Y-67783856D01*
X97456166Y-67780437D01*
X97433557Y-67774773D01*
X97411613Y-67766921D01*
X97390543Y-67756956D01*
X97370552Y-67744974D01*
X97351832Y-67731090D01*
X97334562Y-67715438D01*
X97318910Y-67698168D01*
X97305026Y-67679448D01*
X97293044Y-67659457D01*
X97283079Y-67638387D01*
X97275227Y-67616443D01*
X97269563Y-67593834D01*
X97266144Y-67570779D01*
X97265000Y-67547500D01*
X97265000Y-67072500D01*
X97266144Y-67049221D01*
X97269563Y-67026166D01*
X97275227Y-67003557D01*
X97283079Y-66981613D01*
X97293044Y-66960543D01*
X97305026Y-66940552D01*
X97318910Y-66921832D01*
X97334562Y-66904562D01*
X97351832Y-66888910D01*
X97370552Y-66875026D01*
X97390543Y-66863044D01*
X97411613Y-66853079D01*
X97433557Y-66845227D01*
X97456166Y-66839563D01*
X97479221Y-66836144D01*
X97502500Y-66835000D01*
X98077500Y-66835000D01*
X98100779Y-66836144D01*
X98100779Y-66836144D01*
G37*
D13*
X97790000Y-67310000D03*
D12*
G36*
X96350779Y-66836144D02*
G01*
X96373834Y-66839563D01*
X96396443Y-66845227D01*
X96418387Y-66853079D01*
X96439457Y-66863044D01*
X96459448Y-66875026D01*
X96478168Y-66888910D01*
X96495438Y-66904562D01*
X96511090Y-66921832D01*
X96524974Y-66940552D01*
X96536956Y-66960543D01*
X96546921Y-66981613D01*
X96554773Y-67003557D01*
X96560437Y-67026166D01*
X96563856Y-67049221D01*
X96565000Y-67072500D01*
X96565000Y-67547500D01*
X96563856Y-67570779D01*
X96560437Y-67593834D01*
X96554773Y-67616443D01*
X96546921Y-67638387D01*
X96536956Y-67659457D01*
X96524974Y-67679448D01*
X96511090Y-67698168D01*
X96495438Y-67715438D01*
X96478168Y-67731090D01*
X96459448Y-67744974D01*
X96439457Y-67756956D01*
X96418387Y-67766921D01*
X96396443Y-67774773D01*
X96373834Y-67780437D01*
X96350779Y-67783856D01*
X96327500Y-67785000D01*
X95752500Y-67785000D01*
X95729221Y-67783856D01*
X95706166Y-67780437D01*
X95683557Y-67774773D01*
X95661613Y-67766921D01*
X95640543Y-67756956D01*
X95620552Y-67744974D01*
X95601832Y-67731090D01*
X95584562Y-67715438D01*
X95568910Y-67698168D01*
X95555026Y-67679448D01*
X95543044Y-67659457D01*
X95533079Y-67638387D01*
X95525227Y-67616443D01*
X95519563Y-67593834D01*
X95516144Y-67570779D01*
X95515000Y-67547500D01*
X95515000Y-67072500D01*
X95516144Y-67049221D01*
X95519563Y-67026166D01*
X95525227Y-67003557D01*
X95533079Y-66981613D01*
X95543044Y-66960543D01*
X95555026Y-66940552D01*
X95568910Y-66921832D01*
X95584562Y-66904562D01*
X95601832Y-66888910D01*
X95620552Y-66875026D01*
X95640543Y-66863044D01*
X95661613Y-66853079D01*
X95683557Y-66845227D01*
X95706166Y-66839563D01*
X95729221Y-66836144D01*
X95752500Y-66835000D01*
X96327500Y-66835000D01*
X96350779Y-66836144D01*
X96350779Y-66836144D01*
G37*
D13*
X96040000Y-67310000D03*
D12*
G36*
X137738779Y-114334144D02*
G01*
X137761834Y-114337563D01*
X137784443Y-114343227D01*
X137806387Y-114351079D01*
X137827457Y-114361044D01*
X137847448Y-114373026D01*
X137866168Y-114386910D01*
X137883438Y-114402562D01*
X137899090Y-114419832D01*
X137912974Y-114438552D01*
X137924956Y-114458543D01*
X137934921Y-114479613D01*
X137942773Y-114501557D01*
X137948437Y-114524166D01*
X137951856Y-114547221D01*
X137953000Y-114570500D01*
X137953000Y-115045500D01*
X137951856Y-115068779D01*
X137948437Y-115091834D01*
X137942773Y-115114443D01*
X137934921Y-115136387D01*
X137924956Y-115157457D01*
X137912974Y-115177448D01*
X137899090Y-115196168D01*
X137883438Y-115213438D01*
X137866168Y-115229090D01*
X137847448Y-115242974D01*
X137827457Y-115254956D01*
X137806387Y-115264921D01*
X137784443Y-115272773D01*
X137761834Y-115278437D01*
X137738779Y-115281856D01*
X137715500Y-115283000D01*
X137140500Y-115283000D01*
X137117221Y-115281856D01*
X137094166Y-115278437D01*
X137071557Y-115272773D01*
X137049613Y-115264921D01*
X137028543Y-115254956D01*
X137008552Y-115242974D01*
X136989832Y-115229090D01*
X136972562Y-115213438D01*
X136956910Y-115196168D01*
X136943026Y-115177448D01*
X136931044Y-115157457D01*
X136921079Y-115136387D01*
X136913227Y-115114443D01*
X136907563Y-115091834D01*
X136904144Y-115068779D01*
X136903000Y-115045500D01*
X136903000Y-114570500D01*
X136904144Y-114547221D01*
X136907563Y-114524166D01*
X136913227Y-114501557D01*
X136921079Y-114479613D01*
X136931044Y-114458543D01*
X136943026Y-114438552D01*
X136956910Y-114419832D01*
X136972562Y-114402562D01*
X136989832Y-114386910D01*
X137008552Y-114373026D01*
X137028543Y-114361044D01*
X137049613Y-114351079D01*
X137071557Y-114343227D01*
X137094166Y-114337563D01*
X137117221Y-114334144D01*
X137140500Y-114333000D01*
X137715500Y-114333000D01*
X137738779Y-114334144D01*
X137738779Y-114334144D01*
G37*
D13*
X137428000Y-114808000D03*
D12*
G36*
X139488779Y-114334144D02*
G01*
X139511834Y-114337563D01*
X139534443Y-114343227D01*
X139556387Y-114351079D01*
X139577457Y-114361044D01*
X139597448Y-114373026D01*
X139616168Y-114386910D01*
X139633438Y-114402562D01*
X139649090Y-114419832D01*
X139662974Y-114438552D01*
X139674956Y-114458543D01*
X139684921Y-114479613D01*
X139692773Y-114501557D01*
X139698437Y-114524166D01*
X139701856Y-114547221D01*
X139703000Y-114570500D01*
X139703000Y-115045500D01*
X139701856Y-115068779D01*
X139698437Y-115091834D01*
X139692773Y-115114443D01*
X139684921Y-115136387D01*
X139674956Y-115157457D01*
X139662974Y-115177448D01*
X139649090Y-115196168D01*
X139633438Y-115213438D01*
X139616168Y-115229090D01*
X139597448Y-115242974D01*
X139577457Y-115254956D01*
X139556387Y-115264921D01*
X139534443Y-115272773D01*
X139511834Y-115278437D01*
X139488779Y-115281856D01*
X139465500Y-115283000D01*
X138890500Y-115283000D01*
X138867221Y-115281856D01*
X138844166Y-115278437D01*
X138821557Y-115272773D01*
X138799613Y-115264921D01*
X138778543Y-115254956D01*
X138758552Y-115242974D01*
X138739832Y-115229090D01*
X138722562Y-115213438D01*
X138706910Y-115196168D01*
X138693026Y-115177448D01*
X138681044Y-115157457D01*
X138671079Y-115136387D01*
X138663227Y-115114443D01*
X138657563Y-115091834D01*
X138654144Y-115068779D01*
X138653000Y-115045500D01*
X138653000Y-114570500D01*
X138654144Y-114547221D01*
X138657563Y-114524166D01*
X138663227Y-114501557D01*
X138671079Y-114479613D01*
X138681044Y-114458543D01*
X138693026Y-114438552D01*
X138706910Y-114419832D01*
X138722562Y-114402562D01*
X138739832Y-114386910D01*
X138758552Y-114373026D01*
X138778543Y-114361044D01*
X138799613Y-114351079D01*
X138821557Y-114343227D01*
X138844166Y-114337563D01*
X138867221Y-114334144D01*
X138890500Y-114333000D01*
X139465500Y-114333000D01*
X139488779Y-114334144D01*
X139488779Y-114334144D01*
G37*
D13*
X139178000Y-114808000D03*
D12*
G36*
X130626779Y-114334144D02*
G01*
X130649834Y-114337563D01*
X130672443Y-114343227D01*
X130694387Y-114351079D01*
X130715457Y-114361044D01*
X130735448Y-114373026D01*
X130754168Y-114386910D01*
X130771438Y-114402562D01*
X130787090Y-114419832D01*
X130800974Y-114438552D01*
X130812956Y-114458543D01*
X130822921Y-114479613D01*
X130830773Y-114501557D01*
X130836437Y-114524166D01*
X130839856Y-114547221D01*
X130841000Y-114570500D01*
X130841000Y-115045500D01*
X130839856Y-115068779D01*
X130836437Y-115091834D01*
X130830773Y-115114443D01*
X130822921Y-115136387D01*
X130812956Y-115157457D01*
X130800974Y-115177448D01*
X130787090Y-115196168D01*
X130771438Y-115213438D01*
X130754168Y-115229090D01*
X130735448Y-115242974D01*
X130715457Y-115254956D01*
X130694387Y-115264921D01*
X130672443Y-115272773D01*
X130649834Y-115278437D01*
X130626779Y-115281856D01*
X130603500Y-115283000D01*
X130028500Y-115283000D01*
X130005221Y-115281856D01*
X129982166Y-115278437D01*
X129959557Y-115272773D01*
X129937613Y-115264921D01*
X129916543Y-115254956D01*
X129896552Y-115242974D01*
X129877832Y-115229090D01*
X129860562Y-115213438D01*
X129844910Y-115196168D01*
X129831026Y-115177448D01*
X129819044Y-115157457D01*
X129809079Y-115136387D01*
X129801227Y-115114443D01*
X129795563Y-115091834D01*
X129792144Y-115068779D01*
X129791000Y-115045500D01*
X129791000Y-114570500D01*
X129792144Y-114547221D01*
X129795563Y-114524166D01*
X129801227Y-114501557D01*
X129809079Y-114479613D01*
X129819044Y-114458543D01*
X129831026Y-114438552D01*
X129844910Y-114419832D01*
X129860562Y-114402562D01*
X129877832Y-114386910D01*
X129896552Y-114373026D01*
X129916543Y-114361044D01*
X129937613Y-114351079D01*
X129959557Y-114343227D01*
X129982166Y-114337563D01*
X130005221Y-114334144D01*
X130028500Y-114333000D01*
X130603500Y-114333000D01*
X130626779Y-114334144D01*
X130626779Y-114334144D01*
G37*
D13*
X130316000Y-114808000D03*
D12*
G36*
X132376779Y-114334144D02*
G01*
X132399834Y-114337563D01*
X132422443Y-114343227D01*
X132444387Y-114351079D01*
X132465457Y-114361044D01*
X132485448Y-114373026D01*
X132504168Y-114386910D01*
X132521438Y-114402562D01*
X132537090Y-114419832D01*
X132550974Y-114438552D01*
X132562956Y-114458543D01*
X132572921Y-114479613D01*
X132580773Y-114501557D01*
X132586437Y-114524166D01*
X132589856Y-114547221D01*
X132591000Y-114570500D01*
X132591000Y-115045500D01*
X132589856Y-115068779D01*
X132586437Y-115091834D01*
X132580773Y-115114443D01*
X132572921Y-115136387D01*
X132562956Y-115157457D01*
X132550974Y-115177448D01*
X132537090Y-115196168D01*
X132521438Y-115213438D01*
X132504168Y-115229090D01*
X132485448Y-115242974D01*
X132465457Y-115254956D01*
X132444387Y-115264921D01*
X132422443Y-115272773D01*
X132399834Y-115278437D01*
X132376779Y-115281856D01*
X132353500Y-115283000D01*
X131778500Y-115283000D01*
X131755221Y-115281856D01*
X131732166Y-115278437D01*
X131709557Y-115272773D01*
X131687613Y-115264921D01*
X131666543Y-115254956D01*
X131646552Y-115242974D01*
X131627832Y-115229090D01*
X131610562Y-115213438D01*
X131594910Y-115196168D01*
X131581026Y-115177448D01*
X131569044Y-115157457D01*
X131559079Y-115136387D01*
X131551227Y-115114443D01*
X131545563Y-115091834D01*
X131542144Y-115068779D01*
X131541000Y-115045500D01*
X131541000Y-114570500D01*
X131542144Y-114547221D01*
X131545563Y-114524166D01*
X131551227Y-114501557D01*
X131559079Y-114479613D01*
X131569044Y-114458543D01*
X131581026Y-114438552D01*
X131594910Y-114419832D01*
X131610562Y-114402562D01*
X131627832Y-114386910D01*
X131646552Y-114373026D01*
X131666543Y-114361044D01*
X131687613Y-114351079D01*
X131709557Y-114343227D01*
X131732166Y-114337563D01*
X131755221Y-114334144D01*
X131778500Y-114333000D01*
X132353500Y-114333000D01*
X132376779Y-114334144D01*
X132376779Y-114334144D01*
G37*
D13*
X132066000Y-114808000D03*
D12*
G36*
X123641779Y-114334144D02*
G01*
X123664834Y-114337563D01*
X123687443Y-114343227D01*
X123709387Y-114351079D01*
X123730457Y-114361044D01*
X123750448Y-114373026D01*
X123769168Y-114386910D01*
X123786438Y-114402562D01*
X123802090Y-114419832D01*
X123815974Y-114438552D01*
X123827956Y-114458543D01*
X123837921Y-114479613D01*
X123845773Y-114501557D01*
X123851437Y-114524166D01*
X123854856Y-114547221D01*
X123856000Y-114570500D01*
X123856000Y-115045500D01*
X123854856Y-115068779D01*
X123851437Y-115091834D01*
X123845773Y-115114443D01*
X123837921Y-115136387D01*
X123827956Y-115157457D01*
X123815974Y-115177448D01*
X123802090Y-115196168D01*
X123786438Y-115213438D01*
X123769168Y-115229090D01*
X123750448Y-115242974D01*
X123730457Y-115254956D01*
X123709387Y-115264921D01*
X123687443Y-115272773D01*
X123664834Y-115278437D01*
X123641779Y-115281856D01*
X123618500Y-115283000D01*
X123043500Y-115283000D01*
X123020221Y-115281856D01*
X122997166Y-115278437D01*
X122974557Y-115272773D01*
X122952613Y-115264921D01*
X122931543Y-115254956D01*
X122911552Y-115242974D01*
X122892832Y-115229090D01*
X122875562Y-115213438D01*
X122859910Y-115196168D01*
X122846026Y-115177448D01*
X122834044Y-115157457D01*
X122824079Y-115136387D01*
X122816227Y-115114443D01*
X122810563Y-115091834D01*
X122807144Y-115068779D01*
X122806000Y-115045500D01*
X122806000Y-114570500D01*
X122807144Y-114547221D01*
X122810563Y-114524166D01*
X122816227Y-114501557D01*
X122824079Y-114479613D01*
X122834044Y-114458543D01*
X122846026Y-114438552D01*
X122859910Y-114419832D01*
X122875562Y-114402562D01*
X122892832Y-114386910D01*
X122911552Y-114373026D01*
X122931543Y-114361044D01*
X122952613Y-114351079D01*
X122974557Y-114343227D01*
X122997166Y-114337563D01*
X123020221Y-114334144D01*
X123043500Y-114333000D01*
X123618500Y-114333000D01*
X123641779Y-114334144D01*
X123641779Y-114334144D01*
G37*
D13*
X123331000Y-114808000D03*
D12*
G36*
X125391779Y-114334144D02*
G01*
X125414834Y-114337563D01*
X125437443Y-114343227D01*
X125459387Y-114351079D01*
X125480457Y-114361044D01*
X125500448Y-114373026D01*
X125519168Y-114386910D01*
X125536438Y-114402562D01*
X125552090Y-114419832D01*
X125565974Y-114438552D01*
X125577956Y-114458543D01*
X125587921Y-114479613D01*
X125595773Y-114501557D01*
X125601437Y-114524166D01*
X125604856Y-114547221D01*
X125606000Y-114570500D01*
X125606000Y-115045500D01*
X125604856Y-115068779D01*
X125601437Y-115091834D01*
X125595773Y-115114443D01*
X125587921Y-115136387D01*
X125577956Y-115157457D01*
X125565974Y-115177448D01*
X125552090Y-115196168D01*
X125536438Y-115213438D01*
X125519168Y-115229090D01*
X125500448Y-115242974D01*
X125480457Y-115254956D01*
X125459387Y-115264921D01*
X125437443Y-115272773D01*
X125414834Y-115278437D01*
X125391779Y-115281856D01*
X125368500Y-115283000D01*
X124793500Y-115283000D01*
X124770221Y-115281856D01*
X124747166Y-115278437D01*
X124724557Y-115272773D01*
X124702613Y-115264921D01*
X124681543Y-115254956D01*
X124661552Y-115242974D01*
X124642832Y-115229090D01*
X124625562Y-115213438D01*
X124609910Y-115196168D01*
X124596026Y-115177448D01*
X124584044Y-115157457D01*
X124574079Y-115136387D01*
X124566227Y-115114443D01*
X124560563Y-115091834D01*
X124557144Y-115068779D01*
X124556000Y-115045500D01*
X124556000Y-114570500D01*
X124557144Y-114547221D01*
X124560563Y-114524166D01*
X124566227Y-114501557D01*
X124574079Y-114479613D01*
X124584044Y-114458543D01*
X124596026Y-114438552D01*
X124609910Y-114419832D01*
X124625562Y-114402562D01*
X124642832Y-114386910D01*
X124661552Y-114373026D01*
X124681543Y-114361044D01*
X124702613Y-114351079D01*
X124724557Y-114343227D01*
X124747166Y-114337563D01*
X124770221Y-114334144D01*
X124793500Y-114333000D01*
X125368500Y-114333000D01*
X125391779Y-114334144D01*
X125391779Y-114334144D01*
G37*
D13*
X125081000Y-114808000D03*
D12*
G36*
X104718779Y-114334144D02*
G01*
X104741834Y-114337563D01*
X104764443Y-114343227D01*
X104786387Y-114351079D01*
X104807457Y-114361044D01*
X104827448Y-114373026D01*
X104846168Y-114386910D01*
X104863438Y-114402562D01*
X104879090Y-114419832D01*
X104892974Y-114438552D01*
X104904956Y-114458543D01*
X104914921Y-114479613D01*
X104922773Y-114501557D01*
X104928437Y-114524166D01*
X104931856Y-114547221D01*
X104933000Y-114570500D01*
X104933000Y-115045500D01*
X104931856Y-115068779D01*
X104928437Y-115091834D01*
X104922773Y-115114443D01*
X104914921Y-115136387D01*
X104904956Y-115157457D01*
X104892974Y-115177448D01*
X104879090Y-115196168D01*
X104863438Y-115213438D01*
X104846168Y-115229090D01*
X104827448Y-115242974D01*
X104807457Y-115254956D01*
X104786387Y-115264921D01*
X104764443Y-115272773D01*
X104741834Y-115278437D01*
X104718779Y-115281856D01*
X104695500Y-115283000D01*
X104120500Y-115283000D01*
X104097221Y-115281856D01*
X104074166Y-115278437D01*
X104051557Y-115272773D01*
X104029613Y-115264921D01*
X104008543Y-115254956D01*
X103988552Y-115242974D01*
X103969832Y-115229090D01*
X103952562Y-115213438D01*
X103936910Y-115196168D01*
X103923026Y-115177448D01*
X103911044Y-115157457D01*
X103901079Y-115136387D01*
X103893227Y-115114443D01*
X103887563Y-115091834D01*
X103884144Y-115068779D01*
X103883000Y-115045500D01*
X103883000Y-114570500D01*
X103884144Y-114547221D01*
X103887563Y-114524166D01*
X103893227Y-114501557D01*
X103901079Y-114479613D01*
X103911044Y-114458543D01*
X103923026Y-114438552D01*
X103936910Y-114419832D01*
X103952562Y-114402562D01*
X103969832Y-114386910D01*
X103988552Y-114373026D01*
X104008543Y-114361044D01*
X104029613Y-114351079D01*
X104051557Y-114343227D01*
X104074166Y-114337563D01*
X104097221Y-114334144D01*
X104120500Y-114333000D01*
X104695500Y-114333000D01*
X104718779Y-114334144D01*
X104718779Y-114334144D01*
G37*
D13*
X104408000Y-114808000D03*
D12*
G36*
X106468779Y-114334144D02*
G01*
X106491834Y-114337563D01*
X106514443Y-114343227D01*
X106536387Y-114351079D01*
X106557457Y-114361044D01*
X106577448Y-114373026D01*
X106596168Y-114386910D01*
X106613438Y-114402562D01*
X106629090Y-114419832D01*
X106642974Y-114438552D01*
X106654956Y-114458543D01*
X106664921Y-114479613D01*
X106672773Y-114501557D01*
X106678437Y-114524166D01*
X106681856Y-114547221D01*
X106683000Y-114570500D01*
X106683000Y-115045500D01*
X106681856Y-115068779D01*
X106678437Y-115091834D01*
X106672773Y-115114443D01*
X106664921Y-115136387D01*
X106654956Y-115157457D01*
X106642974Y-115177448D01*
X106629090Y-115196168D01*
X106613438Y-115213438D01*
X106596168Y-115229090D01*
X106577448Y-115242974D01*
X106557457Y-115254956D01*
X106536387Y-115264921D01*
X106514443Y-115272773D01*
X106491834Y-115278437D01*
X106468779Y-115281856D01*
X106445500Y-115283000D01*
X105870500Y-115283000D01*
X105847221Y-115281856D01*
X105824166Y-115278437D01*
X105801557Y-115272773D01*
X105779613Y-115264921D01*
X105758543Y-115254956D01*
X105738552Y-115242974D01*
X105719832Y-115229090D01*
X105702562Y-115213438D01*
X105686910Y-115196168D01*
X105673026Y-115177448D01*
X105661044Y-115157457D01*
X105651079Y-115136387D01*
X105643227Y-115114443D01*
X105637563Y-115091834D01*
X105634144Y-115068779D01*
X105633000Y-115045500D01*
X105633000Y-114570500D01*
X105634144Y-114547221D01*
X105637563Y-114524166D01*
X105643227Y-114501557D01*
X105651079Y-114479613D01*
X105661044Y-114458543D01*
X105673026Y-114438552D01*
X105686910Y-114419832D01*
X105702562Y-114402562D01*
X105719832Y-114386910D01*
X105738552Y-114373026D01*
X105758543Y-114361044D01*
X105779613Y-114351079D01*
X105801557Y-114343227D01*
X105824166Y-114337563D01*
X105847221Y-114334144D01*
X105870500Y-114333000D01*
X106445500Y-114333000D01*
X106468779Y-114334144D01*
X106468779Y-114334144D01*
G37*
D13*
X106158000Y-114808000D03*
D12*
G36*
X104718779Y-112556144D02*
G01*
X104741834Y-112559563D01*
X104764443Y-112565227D01*
X104786387Y-112573079D01*
X104807457Y-112583044D01*
X104827448Y-112595026D01*
X104846168Y-112608910D01*
X104863438Y-112624562D01*
X104879090Y-112641832D01*
X104892974Y-112660552D01*
X104904956Y-112680543D01*
X104914921Y-112701613D01*
X104922773Y-112723557D01*
X104928437Y-112746166D01*
X104931856Y-112769221D01*
X104933000Y-112792500D01*
X104933000Y-113267500D01*
X104931856Y-113290779D01*
X104928437Y-113313834D01*
X104922773Y-113336443D01*
X104914921Y-113358387D01*
X104904956Y-113379457D01*
X104892974Y-113399448D01*
X104879090Y-113418168D01*
X104863438Y-113435438D01*
X104846168Y-113451090D01*
X104827448Y-113464974D01*
X104807457Y-113476956D01*
X104786387Y-113486921D01*
X104764443Y-113494773D01*
X104741834Y-113500437D01*
X104718779Y-113503856D01*
X104695500Y-113505000D01*
X104120500Y-113505000D01*
X104097221Y-113503856D01*
X104074166Y-113500437D01*
X104051557Y-113494773D01*
X104029613Y-113486921D01*
X104008543Y-113476956D01*
X103988552Y-113464974D01*
X103969832Y-113451090D01*
X103952562Y-113435438D01*
X103936910Y-113418168D01*
X103923026Y-113399448D01*
X103911044Y-113379457D01*
X103901079Y-113358387D01*
X103893227Y-113336443D01*
X103887563Y-113313834D01*
X103884144Y-113290779D01*
X103883000Y-113267500D01*
X103883000Y-112792500D01*
X103884144Y-112769221D01*
X103887563Y-112746166D01*
X103893227Y-112723557D01*
X103901079Y-112701613D01*
X103911044Y-112680543D01*
X103923026Y-112660552D01*
X103936910Y-112641832D01*
X103952562Y-112624562D01*
X103969832Y-112608910D01*
X103988552Y-112595026D01*
X104008543Y-112583044D01*
X104029613Y-112573079D01*
X104051557Y-112565227D01*
X104074166Y-112559563D01*
X104097221Y-112556144D01*
X104120500Y-112555000D01*
X104695500Y-112555000D01*
X104718779Y-112556144D01*
X104718779Y-112556144D01*
G37*
D13*
X104408000Y-113030000D03*
D12*
G36*
X106468779Y-112556144D02*
G01*
X106491834Y-112559563D01*
X106514443Y-112565227D01*
X106536387Y-112573079D01*
X106557457Y-112583044D01*
X106577448Y-112595026D01*
X106596168Y-112608910D01*
X106613438Y-112624562D01*
X106629090Y-112641832D01*
X106642974Y-112660552D01*
X106654956Y-112680543D01*
X106664921Y-112701613D01*
X106672773Y-112723557D01*
X106678437Y-112746166D01*
X106681856Y-112769221D01*
X106683000Y-112792500D01*
X106683000Y-113267500D01*
X106681856Y-113290779D01*
X106678437Y-113313834D01*
X106672773Y-113336443D01*
X106664921Y-113358387D01*
X106654956Y-113379457D01*
X106642974Y-113399448D01*
X106629090Y-113418168D01*
X106613438Y-113435438D01*
X106596168Y-113451090D01*
X106577448Y-113464974D01*
X106557457Y-113476956D01*
X106536387Y-113486921D01*
X106514443Y-113494773D01*
X106491834Y-113500437D01*
X106468779Y-113503856D01*
X106445500Y-113505000D01*
X105870500Y-113505000D01*
X105847221Y-113503856D01*
X105824166Y-113500437D01*
X105801557Y-113494773D01*
X105779613Y-113486921D01*
X105758543Y-113476956D01*
X105738552Y-113464974D01*
X105719832Y-113451090D01*
X105702562Y-113435438D01*
X105686910Y-113418168D01*
X105673026Y-113399448D01*
X105661044Y-113379457D01*
X105651079Y-113358387D01*
X105643227Y-113336443D01*
X105637563Y-113313834D01*
X105634144Y-113290779D01*
X105633000Y-113267500D01*
X105633000Y-112792500D01*
X105634144Y-112769221D01*
X105637563Y-112746166D01*
X105643227Y-112723557D01*
X105651079Y-112701613D01*
X105661044Y-112680543D01*
X105673026Y-112660552D01*
X105686910Y-112641832D01*
X105702562Y-112624562D01*
X105719832Y-112608910D01*
X105738552Y-112595026D01*
X105758543Y-112583044D01*
X105779613Y-112573079D01*
X105801557Y-112565227D01*
X105824166Y-112559563D01*
X105847221Y-112556144D01*
X105870500Y-112555000D01*
X106445500Y-112555000D01*
X106468779Y-112556144D01*
X106468779Y-112556144D01*
G37*
D13*
X106158000Y-113030000D03*
D14*
X168905000Y-136125000D03*
D15*
X183905000Y-139925000D03*
D16*
X168905000Y-138025000D03*
D17*
X173105000Y-126625000D03*
D18*
X182905000Y-126625000D03*
D19*
X168805000Y-127475000D03*
D14*
X168905000Y-135025000D03*
X168905000Y-133925000D03*
X168905000Y-132825000D03*
X168905000Y-131725000D03*
X168905000Y-130625000D03*
X168905000Y-129525000D03*
X168905000Y-128425000D03*
D20*
X184605000Y-138925000D03*
D21*
X179305000Y-126625000D03*
D22*
X184355000Y-139175000D03*
D12*
G36*
X184496421Y-139175000D02*
G01*
X184355000Y-139316421D01*
X184213579Y-139175000D01*
X184355000Y-139033579D01*
X184496421Y-139175000D01*
X184496421Y-139175000D01*
G37*
G36*
X159455779Y-119541144D02*
G01*
X159478834Y-119544563D01*
X159501443Y-119550227D01*
X159523387Y-119558079D01*
X159544457Y-119568044D01*
X159564448Y-119580026D01*
X159583168Y-119593910D01*
X159600438Y-119609562D01*
X159616090Y-119626832D01*
X159629974Y-119645552D01*
X159641956Y-119665543D01*
X159651921Y-119686613D01*
X159659773Y-119708557D01*
X159665437Y-119731166D01*
X159668856Y-119754221D01*
X159670000Y-119777500D01*
X159670000Y-120252500D01*
X159668856Y-120275779D01*
X159665437Y-120298834D01*
X159659773Y-120321443D01*
X159651921Y-120343387D01*
X159641956Y-120364457D01*
X159629974Y-120384448D01*
X159616090Y-120403168D01*
X159600438Y-120420438D01*
X159583168Y-120436090D01*
X159564448Y-120449974D01*
X159544457Y-120461956D01*
X159523387Y-120471921D01*
X159501443Y-120479773D01*
X159478834Y-120485437D01*
X159455779Y-120488856D01*
X159432500Y-120490000D01*
X158857500Y-120490000D01*
X158834221Y-120488856D01*
X158811166Y-120485437D01*
X158788557Y-120479773D01*
X158766613Y-120471921D01*
X158745543Y-120461956D01*
X158725552Y-120449974D01*
X158706832Y-120436090D01*
X158689562Y-120420438D01*
X158673910Y-120403168D01*
X158660026Y-120384448D01*
X158648044Y-120364457D01*
X158638079Y-120343387D01*
X158630227Y-120321443D01*
X158624563Y-120298834D01*
X158621144Y-120275779D01*
X158620000Y-120252500D01*
X158620000Y-119777500D01*
X158621144Y-119754221D01*
X158624563Y-119731166D01*
X158630227Y-119708557D01*
X158638079Y-119686613D01*
X158648044Y-119665543D01*
X158660026Y-119645552D01*
X158673910Y-119626832D01*
X158689562Y-119609562D01*
X158706832Y-119593910D01*
X158725552Y-119580026D01*
X158745543Y-119568044D01*
X158766613Y-119558079D01*
X158788557Y-119550227D01*
X158811166Y-119544563D01*
X158834221Y-119541144D01*
X158857500Y-119540000D01*
X159432500Y-119540000D01*
X159455779Y-119541144D01*
X159455779Y-119541144D01*
G37*
D13*
X159145000Y-120015000D03*
D12*
G36*
X161205779Y-119541144D02*
G01*
X161228834Y-119544563D01*
X161251443Y-119550227D01*
X161273387Y-119558079D01*
X161294457Y-119568044D01*
X161314448Y-119580026D01*
X161333168Y-119593910D01*
X161350438Y-119609562D01*
X161366090Y-119626832D01*
X161379974Y-119645552D01*
X161391956Y-119665543D01*
X161401921Y-119686613D01*
X161409773Y-119708557D01*
X161415437Y-119731166D01*
X161418856Y-119754221D01*
X161420000Y-119777500D01*
X161420000Y-120252500D01*
X161418856Y-120275779D01*
X161415437Y-120298834D01*
X161409773Y-120321443D01*
X161401921Y-120343387D01*
X161391956Y-120364457D01*
X161379974Y-120384448D01*
X161366090Y-120403168D01*
X161350438Y-120420438D01*
X161333168Y-120436090D01*
X161314448Y-120449974D01*
X161294457Y-120461956D01*
X161273387Y-120471921D01*
X161251443Y-120479773D01*
X161228834Y-120485437D01*
X161205779Y-120488856D01*
X161182500Y-120490000D01*
X160607500Y-120490000D01*
X160584221Y-120488856D01*
X160561166Y-120485437D01*
X160538557Y-120479773D01*
X160516613Y-120471921D01*
X160495543Y-120461956D01*
X160475552Y-120449974D01*
X160456832Y-120436090D01*
X160439562Y-120420438D01*
X160423910Y-120403168D01*
X160410026Y-120384448D01*
X160398044Y-120364457D01*
X160388079Y-120343387D01*
X160380227Y-120321443D01*
X160374563Y-120298834D01*
X160371144Y-120275779D01*
X160370000Y-120252500D01*
X160370000Y-119777500D01*
X160371144Y-119754221D01*
X160374563Y-119731166D01*
X160380227Y-119708557D01*
X160388079Y-119686613D01*
X160398044Y-119665543D01*
X160410026Y-119645552D01*
X160423910Y-119626832D01*
X160439562Y-119609562D01*
X160456832Y-119593910D01*
X160475552Y-119580026D01*
X160495543Y-119568044D01*
X160516613Y-119558079D01*
X160538557Y-119550227D01*
X160561166Y-119544563D01*
X160584221Y-119541144D01*
X160607500Y-119540000D01*
X161182500Y-119540000D01*
X161205779Y-119541144D01*
X161205779Y-119541144D01*
G37*
D13*
X160895000Y-120015000D03*
D12*
G36*
X164789779Y-119541144D02*
G01*
X164812834Y-119544563D01*
X164835443Y-119550227D01*
X164857387Y-119558079D01*
X164878457Y-119568044D01*
X164898448Y-119580026D01*
X164917168Y-119593910D01*
X164934438Y-119609562D01*
X164950090Y-119626832D01*
X164963974Y-119645552D01*
X164975956Y-119665543D01*
X164985921Y-119686613D01*
X164993773Y-119708557D01*
X164999437Y-119731166D01*
X165002856Y-119754221D01*
X165004000Y-119777500D01*
X165004000Y-120252500D01*
X165002856Y-120275779D01*
X164999437Y-120298834D01*
X164993773Y-120321443D01*
X164985921Y-120343387D01*
X164975956Y-120364457D01*
X164963974Y-120384448D01*
X164950090Y-120403168D01*
X164934438Y-120420438D01*
X164917168Y-120436090D01*
X164898448Y-120449974D01*
X164878457Y-120461956D01*
X164857387Y-120471921D01*
X164835443Y-120479773D01*
X164812834Y-120485437D01*
X164789779Y-120488856D01*
X164766500Y-120490000D01*
X164191500Y-120490000D01*
X164168221Y-120488856D01*
X164145166Y-120485437D01*
X164122557Y-120479773D01*
X164100613Y-120471921D01*
X164079543Y-120461956D01*
X164059552Y-120449974D01*
X164040832Y-120436090D01*
X164023562Y-120420438D01*
X164007910Y-120403168D01*
X163994026Y-120384448D01*
X163982044Y-120364457D01*
X163972079Y-120343387D01*
X163964227Y-120321443D01*
X163958563Y-120298834D01*
X163955144Y-120275779D01*
X163954000Y-120252500D01*
X163954000Y-119777500D01*
X163955144Y-119754221D01*
X163958563Y-119731166D01*
X163964227Y-119708557D01*
X163972079Y-119686613D01*
X163982044Y-119665543D01*
X163994026Y-119645552D01*
X164007910Y-119626832D01*
X164023562Y-119609562D01*
X164040832Y-119593910D01*
X164059552Y-119580026D01*
X164079543Y-119568044D01*
X164100613Y-119558079D01*
X164122557Y-119550227D01*
X164145166Y-119544563D01*
X164168221Y-119541144D01*
X164191500Y-119540000D01*
X164766500Y-119540000D01*
X164789779Y-119541144D01*
X164789779Y-119541144D01*
G37*
D13*
X164479000Y-120015000D03*
D12*
G36*
X166539779Y-119541144D02*
G01*
X166562834Y-119544563D01*
X166585443Y-119550227D01*
X166607387Y-119558079D01*
X166628457Y-119568044D01*
X166648448Y-119580026D01*
X166667168Y-119593910D01*
X166684438Y-119609562D01*
X166700090Y-119626832D01*
X166713974Y-119645552D01*
X166725956Y-119665543D01*
X166735921Y-119686613D01*
X166743773Y-119708557D01*
X166749437Y-119731166D01*
X166752856Y-119754221D01*
X166754000Y-119777500D01*
X166754000Y-120252500D01*
X166752856Y-120275779D01*
X166749437Y-120298834D01*
X166743773Y-120321443D01*
X166735921Y-120343387D01*
X166725956Y-120364457D01*
X166713974Y-120384448D01*
X166700090Y-120403168D01*
X166684438Y-120420438D01*
X166667168Y-120436090D01*
X166648448Y-120449974D01*
X166628457Y-120461956D01*
X166607387Y-120471921D01*
X166585443Y-120479773D01*
X166562834Y-120485437D01*
X166539779Y-120488856D01*
X166516500Y-120490000D01*
X165941500Y-120490000D01*
X165918221Y-120488856D01*
X165895166Y-120485437D01*
X165872557Y-120479773D01*
X165850613Y-120471921D01*
X165829543Y-120461956D01*
X165809552Y-120449974D01*
X165790832Y-120436090D01*
X165773562Y-120420438D01*
X165757910Y-120403168D01*
X165744026Y-120384448D01*
X165732044Y-120364457D01*
X165722079Y-120343387D01*
X165714227Y-120321443D01*
X165708563Y-120298834D01*
X165705144Y-120275779D01*
X165704000Y-120252500D01*
X165704000Y-119777500D01*
X165705144Y-119754221D01*
X165708563Y-119731166D01*
X165714227Y-119708557D01*
X165722079Y-119686613D01*
X165732044Y-119665543D01*
X165744026Y-119645552D01*
X165757910Y-119626832D01*
X165773562Y-119609562D01*
X165790832Y-119593910D01*
X165809552Y-119580026D01*
X165829543Y-119568044D01*
X165850613Y-119558079D01*
X165872557Y-119550227D01*
X165895166Y-119544563D01*
X165918221Y-119541144D01*
X165941500Y-119540000D01*
X166516500Y-119540000D01*
X166539779Y-119541144D01*
X166539779Y-119541144D01*
G37*
D13*
X166229000Y-120015000D03*
D12*
G36*
X141040779Y-106714144D02*
G01*
X141063834Y-106717563D01*
X141086443Y-106723227D01*
X141108387Y-106731079D01*
X141129457Y-106741044D01*
X141149448Y-106753026D01*
X141168168Y-106766910D01*
X141185438Y-106782562D01*
X141201090Y-106799832D01*
X141214974Y-106818552D01*
X141226956Y-106838543D01*
X141236921Y-106859613D01*
X141244773Y-106881557D01*
X141250437Y-106904166D01*
X141253856Y-106927221D01*
X141255000Y-106950500D01*
X141255000Y-107425500D01*
X141253856Y-107448779D01*
X141250437Y-107471834D01*
X141244773Y-107494443D01*
X141236921Y-107516387D01*
X141226956Y-107537457D01*
X141214974Y-107557448D01*
X141201090Y-107576168D01*
X141185438Y-107593438D01*
X141168168Y-107609090D01*
X141149448Y-107622974D01*
X141129457Y-107634956D01*
X141108387Y-107644921D01*
X141086443Y-107652773D01*
X141063834Y-107658437D01*
X141040779Y-107661856D01*
X141017500Y-107663000D01*
X140442500Y-107663000D01*
X140419221Y-107661856D01*
X140396166Y-107658437D01*
X140373557Y-107652773D01*
X140351613Y-107644921D01*
X140330543Y-107634956D01*
X140310552Y-107622974D01*
X140291832Y-107609090D01*
X140274562Y-107593438D01*
X140258910Y-107576168D01*
X140245026Y-107557448D01*
X140233044Y-107537457D01*
X140223079Y-107516387D01*
X140215227Y-107494443D01*
X140209563Y-107471834D01*
X140206144Y-107448779D01*
X140205000Y-107425500D01*
X140205000Y-106950500D01*
X140206144Y-106927221D01*
X140209563Y-106904166D01*
X140215227Y-106881557D01*
X140223079Y-106859613D01*
X140233044Y-106838543D01*
X140245026Y-106818552D01*
X140258910Y-106799832D01*
X140274562Y-106782562D01*
X140291832Y-106766910D01*
X140310552Y-106753026D01*
X140330543Y-106741044D01*
X140351613Y-106731079D01*
X140373557Y-106723227D01*
X140396166Y-106717563D01*
X140419221Y-106714144D01*
X140442500Y-106713000D01*
X141017500Y-106713000D01*
X141040779Y-106714144D01*
X141040779Y-106714144D01*
G37*
D13*
X140730000Y-107188000D03*
D12*
G36*
X142790779Y-106714144D02*
G01*
X142813834Y-106717563D01*
X142836443Y-106723227D01*
X142858387Y-106731079D01*
X142879457Y-106741044D01*
X142899448Y-106753026D01*
X142918168Y-106766910D01*
X142935438Y-106782562D01*
X142951090Y-106799832D01*
X142964974Y-106818552D01*
X142976956Y-106838543D01*
X142986921Y-106859613D01*
X142994773Y-106881557D01*
X143000437Y-106904166D01*
X143003856Y-106927221D01*
X143005000Y-106950500D01*
X143005000Y-107425500D01*
X143003856Y-107448779D01*
X143000437Y-107471834D01*
X142994773Y-107494443D01*
X142986921Y-107516387D01*
X142976956Y-107537457D01*
X142964974Y-107557448D01*
X142951090Y-107576168D01*
X142935438Y-107593438D01*
X142918168Y-107609090D01*
X142899448Y-107622974D01*
X142879457Y-107634956D01*
X142858387Y-107644921D01*
X142836443Y-107652773D01*
X142813834Y-107658437D01*
X142790779Y-107661856D01*
X142767500Y-107663000D01*
X142192500Y-107663000D01*
X142169221Y-107661856D01*
X142146166Y-107658437D01*
X142123557Y-107652773D01*
X142101613Y-107644921D01*
X142080543Y-107634956D01*
X142060552Y-107622974D01*
X142041832Y-107609090D01*
X142024562Y-107593438D01*
X142008910Y-107576168D01*
X141995026Y-107557448D01*
X141983044Y-107537457D01*
X141973079Y-107516387D01*
X141965227Y-107494443D01*
X141959563Y-107471834D01*
X141956144Y-107448779D01*
X141955000Y-107425500D01*
X141955000Y-106950500D01*
X141956144Y-106927221D01*
X141959563Y-106904166D01*
X141965227Y-106881557D01*
X141973079Y-106859613D01*
X141983044Y-106838543D01*
X141995026Y-106818552D01*
X142008910Y-106799832D01*
X142024562Y-106782562D01*
X142041832Y-106766910D01*
X142060552Y-106753026D01*
X142080543Y-106741044D01*
X142101613Y-106731079D01*
X142123557Y-106723227D01*
X142146166Y-106717563D01*
X142169221Y-106714144D01*
X142192500Y-106713000D01*
X142767500Y-106713000D01*
X142790779Y-106714144D01*
X142790779Y-106714144D01*
G37*
D13*
X142480000Y-107188000D03*
D12*
G36*
X141054779Y-102142144D02*
G01*
X141077834Y-102145563D01*
X141100443Y-102151227D01*
X141122387Y-102159079D01*
X141143457Y-102169044D01*
X141163448Y-102181026D01*
X141182168Y-102194910D01*
X141199438Y-102210562D01*
X141215090Y-102227832D01*
X141228974Y-102246552D01*
X141240956Y-102266543D01*
X141250921Y-102287613D01*
X141258773Y-102309557D01*
X141264437Y-102332166D01*
X141267856Y-102355221D01*
X141269000Y-102378500D01*
X141269000Y-102853500D01*
X141267856Y-102876779D01*
X141264437Y-102899834D01*
X141258773Y-102922443D01*
X141250921Y-102944387D01*
X141240956Y-102965457D01*
X141228974Y-102985448D01*
X141215090Y-103004168D01*
X141199438Y-103021438D01*
X141182168Y-103037090D01*
X141163448Y-103050974D01*
X141143457Y-103062956D01*
X141122387Y-103072921D01*
X141100443Y-103080773D01*
X141077834Y-103086437D01*
X141054779Y-103089856D01*
X141031500Y-103091000D01*
X140456500Y-103091000D01*
X140433221Y-103089856D01*
X140410166Y-103086437D01*
X140387557Y-103080773D01*
X140365613Y-103072921D01*
X140344543Y-103062956D01*
X140324552Y-103050974D01*
X140305832Y-103037090D01*
X140288562Y-103021438D01*
X140272910Y-103004168D01*
X140259026Y-102985448D01*
X140247044Y-102965457D01*
X140237079Y-102944387D01*
X140229227Y-102922443D01*
X140223563Y-102899834D01*
X140220144Y-102876779D01*
X140219000Y-102853500D01*
X140219000Y-102378500D01*
X140220144Y-102355221D01*
X140223563Y-102332166D01*
X140229227Y-102309557D01*
X140237079Y-102287613D01*
X140247044Y-102266543D01*
X140259026Y-102246552D01*
X140272910Y-102227832D01*
X140288562Y-102210562D01*
X140305832Y-102194910D01*
X140324552Y-102181026D01*
X140344543Y-102169044D01*
X140365613Y-102159079D01*
X140387557Y-102151227D01*
X140410166Y-102145563D01*
X140433221Y-102142144D01*
X140456500Y-102141000D01*
X141031500Y-102141000D01*
X141054779Y-102142144D01*
X141054779Y-102142144D01*
G37*
D13*
X140744000Y-102616000D03*
D12*
G36*
X142804779Y-102142144D02*
G01*
X142827834Y-102145563D01*
X142850443Y-102151227D01*
X142872387Y-102159079D01*
X142893457Y-102169044D01*
X142913448Y-102181026D01*
X142932168Y-102194910D01*
X142949438Y-102210562D01*
X142965090Y-102227832D01*
X142978974Y-102246552D01*
X142990956Y-102266543D01*
X143000921Y-102287613D01*
X143008773Y-102309557D01*
X143014437Y-102332166D01*
X143017856Y-102355221D01*
X143019000Y-102378500D01*
X143019000Y-102853500D01*
X143017856Y-102876779D01*
X143014437Y-102899834D01*
X143008773Y-102922443D01*
X143000921Y-102944387D01*
X142990956Y-102965457D01*
X142978974Y-102985448D01*
X142965090Y-103004168D01*
X142949438Y-103021438D01*
X142932168Y-103037090D01*
X142913448Y-103050974D01*
X142893457Y-103062956D01*
X142872387Y-103072921D01*
X142850443Y-103080773D01*
X142827834Y-103086437D01*
X142804779Y-103089856D01*
X142781500Y-103091000D01*
X142206500Y-103091000D01*
X142183221Y-103089856D01*
X142160166Y-103086437D01*
X142137557Y-103080773D01*
X142115613Y-103072921D01*
X142094543Y-103062956D01*
X142074552Y-103050974D01*
X142055832Y-103037090D01*
X142038562Y-103021438D01*
X142022910Y-103004168D01*
X142009026Y-102985448D01*
X141997044Y-102965457D01*
X141987079Y-102944387D01*
X141979227Y-102922443D01*
X141973563Y-102899834D01*
X141970144Y-102876779D01*
X141969000Y-102853500D01*
X141969000Y-102378500D01*
X141970144Y-102355221D01*
X141973563Y-102332166D01*
X141979227Y-102309557D01*
X141987079Y-102287613D01*
X141997044Y-102266543D01*
X142009026Y-102246552D01*
X142022910Y-102227832D01*
X142038562Y-102210562D01*
X142055832Y-102194910D01*
X142074552Y-102181026D01*
X142094543Y-102169044D01*
X142115613Y-102159079D01*
X142137557Y-102151227D01*
X142160166Y-102145563D01*
X142183221Y-102142144D01*
X142206500Y-102141000D01*
X142781500Y-102141000D01*
X142804779Y-102142144D01*
X142804779Y-102142144D01*
G37*
D13*
X142494000Y-102616000D03*
D12*
G36*
X141026779Y-97570144D02*
G01*
X141049834Y-97573563D01*
X141072443Y-97579227D01*
X141094387Y-97587079D01*
X141115457Y-97597044D01*
X141135448Y-97609026D01*
X141154168Y-97622910D01*
X141171438Y-97638562D01*
X141187090Y-97655832D01*
X141200974Y-97674552D01*
X141212956Y-97694543D01*
X141222921Y-97715613D01*
X141230773Y-97737557D01*
X141236437Y-97760166D01*
X141239856Y-97783221D01*
X141241000Y-97806500D01*
X141241000Y-98281500D01*
X141239856Y-98304779D01*
X141236437Y-98327834D01*
X141230773Y-98350443D01*
X141222921Y-98372387D01*
X141212956Y-98393457D01*
X141200974Y-98413448D01*
X141187090Y-98432168D01*
X141171438Y-98449438D01*
X141154168Y-98465090D01*
X141135448Y-98478974D01*
X141115457Y-98490956D01*
X141094387Y-98500921D01*
X141072443Y-98508773D01*
X141049834Y-98514437D01*
X141026779Y-98517856D01*
X141003500Y-98519000D01*
X140428500Y-98519000D01*
X140405221Y-98517856D01*
X140382166Y-98514437D01*
X140359557Y-98508773D01*
X140337613Y-98500921D01*
X140316543Y-98490956D01*
X140296552Y-98478974D01*
X140277832Y-98465090D01*
X140260562Y-98449438D01*
X140244910Y-98432168D01*
X140231026Y-98413448D01*
X140219044Y-98393457D01*
X140209079Y-98372387D01*
X140201227Y-98350443D01*
X140195563Y-98327834D01*
X140192144Y-98304779D01*
X140191000Y-98281500D01*
X140191000Y-97806500D01*
X140192144Y-97783221D01*
X140195563Y-97760166D01*
X140201227Y-97737557D01*
X140209079Y-97715613D01*
X140219044Y-97694543D01*
X140231026Y-97674552D01*
X140244910Y-97655832D01*
X140260562Y-97638562D01*
X140277832Y-97622910D01*
X140296552Y-97609026D01*
X140316543Y-97597044D01*
X140337613Y-97587079D01*
X140359557Y-97579227D01*
X140382166Y-97573563D01*
X140405221Y-97570144D01*
X140428500Y-97569000D01*
X141003500Y-97569000D01*
X141026779Y-97570144D01*
X141026779Y-97570144D01*
G37*
D13*
X140716000Y-98044000D03*
D12*
G36*
X142776779Y-97570144D02*
G01*
X142799834Y-97573563D01*
X142822443Y-97579227D01*
X142844387Y-97587079D01*
X142865457Y-97597044D01*
X142885448Y-97609026D01*
X142904168Y-97622910D01*
X142921438Y-97638562D01*
X142937090Y-97655832D01*
X142950974Y-97674552D01*
X142962956Y-97694543D01*
X142972921Y-97715613D01*
X142980773Y-97737557D01*
X142986437Y-97760166D01*
X142989856Y-97783221D01*
X142991000Y-97806500D01*
X142991000Y-98281500D01*
X142989856Y-98304779D01*
X142986437Y-98327834D01*
X142980773Y-98350443D01*
X142972921Y-98372387D01*
X142962956Y-98393457D01*
X142950974Y-98413448D01*
X142937090Y-98432168D01*
X142921438Y-98449438D01*
X142904168Y-98465090D01*
X142885448Y-98478974D01*
X142865457Y-98490956D01*
X142844387Y-98500921D01*
X142822443Y-98508773D01*
X142799834Y-98514437D01*
X142776779Y-98517856D01*
X142753500Y-98519000D01*
X142178500Y-98519000D01*
X142155221Y-98517856D01*
X142132166Y-98514437D01*
X142109557Y-98508773D01*
X142087613Y-98500921D01*
X142066543Y-98490956D01*
X142046552Y-98478974D01*
X142027832Y-98465090D01*
X142010562Y-98449438D01*
X141994910Y-98432168D01*
X141981026Y-98413448D01*
X141969044Y-98393457D01*
X141959079Y-98372387D01*
X141951227Y-98350443D01*
X141945563Y-98327834D01*
X141942144Y-98304779D01*
X141941000Y-98281500D01*
X141941000Y-97806500D01*
X141942144Y-97783221D01*
X141945563Y-97760166D01*
X141951227Y-97737557D01*
X141959079Y-97715613D01*
X141969044Y-97694543D01*
X141981026Y-97674552D01*
X141994910Y-97655832D01*
X142010562Y-97638562D01*
X142027832Y-97622910D01*
X142046552Y-97609026D01*
X142066543Y-97597044D01*
X142087613Y-97587079D01*
X142109557Y-97579227D01*
X142132166Y-97573563D01*
X142155221Y-97570144D01*
X142178500Y-97569000D01*
X142753500Y-97569000D01*
X142776779Y-97570144D01*
X142776779Y-97570144D01*
G37*
D13*
X142466000Y-98044000D03*
D12*
G36*
X139474779Y-112556144D02*
G01*
X139497834Y-112559563D01*
X139520443Y-112565227D01*
X139542387Y-112573079D01*
X139563457Y-112583044D01*
X139583448Y-112595026D01*
X139602168Y-112608910D01*
X139619438Y-112624562D01*
X139635090Y-112641832D01*
X139648974Y-112660552D01*
X139660956Y-112680543D01*
X139670921Y-112701613D01*
X139678773Y-112723557D01*
X139684437Y-112746166D01*
X139687856Y-112769221D01*
X139689000Y-112792500D01*
X139689000Y-113267500D01*
X139687856Y-113290779D01*
X139684437Y-113313834D01*
X139678773Y-113336443D01*
X139670921Y-113358387D01*
X139660956Y-113379457D01*
X139648974Y-113399448D01*
X139635090Y-113418168D01*
X139619438Y-113435438D01*
X139602168Y-113451090D01*
X139583448Y-113464974D01*
X139563457Y-113476956D01*
X139542387Y-113486921D01*
X139520443Y-113494773D01*
X139497834Y-113500437D01*
X139474779Y-113503856D01*
X139451500Y-113505000D01*
X138876500Y-113505000D01*
X138853221Y-113503856D01*
X138830166Y-113500437D01*
X138807557Y-113494773D01*
X138785613Y-113486921D01*
X138764543Y-113476956D01*
X138744552Y-113464974D01*
X138725832Y-113451090D01*
X138708562Y-113435438D01*
X138692910Y-113418168D01*
X138679026Y-113399448D01*
X138667044Y-113379457D01*
X138657079Y-113358387D01*
X138649227Y-113336443D01*
X138643563Y-113313834D01*
X138640144Y-113290779D01*
X138639000Y-113267500D01*
X138639000Y-112792500D01*
X138640144Y-112769221D01*
X138643563Y-112746166D01*
X138649227Y-112723557D01*
X138657079Y-112701613D01*
X138667044Y-112680543D01*
X138679026Y-112660552D01*
X138692910Y-112641832D01*
X138708562Y-112624562D01*
X138725832Y-112608910D01*
X138744552Y-112595026D01*
X138764543Y-112583044D01*
X138785613Y-112573079D01*
X138807557Y-112565227D01*
X138830166Y-112559563D01*
X138853221Y-112556144D01*
X138876500Y-112555000D01*
X139451500Y-112555000D01*
X139474779Y-112556144D01*
X139474779Y-112556144D01*
G37*
D13*
X139164000Y-113030000D03*
D12*
G36*
X137724779Y-112556144D02*
G01*
X137747834Y-112559563D01*
X137770443Y-112565227D01*
X137792387Y-112573079D01*
X137813457Y-112583044D01*
X137833448Y-112595026D01*
X137852168Y-112608910D01*
X137869438Y-112624562D01*
X137885090Y-112641832D01*
X137898974Y-112660552D01*
X137910956Y-112680543D01*
X137920921Y-112701613D01*
X137928773Y-112723557D01*
X137934437Y-112746166D01*
X137937856Y-112769221D01*
X137939000Y-112792500D01*
X137939000Y-113267500D01*
X137937856Y-113290779D01*
X137934437Y-113313834D01*
X137928773Y-113336443D01*
X137920921Y-113358387D01*
X137910956Y-113379457D01*
X137898974Y-113399448D01*
X137885090Y-113418168D01*
X137869438Y-113435438D01*
X137852168Y-113451090D01*
X137833448Y-113464974D01*
X137813457Y-113476956D01*
X137792387Y-113486921D01*
X137770443Y-113494773D01*
X137747834Y-113500437D01*
X137724779Y-113503856D01*
X137701500Y-113505000D01*
X137126500Y-113505000D01*
X137103221Y-113503856D01*
X137080166Y-113500437D01*
X137057557Y-113494773D01*
X137035613Y-113486921D01*
X137014543Y-113476956D01*
X136994552Y-113464974D01*
X136975832Y-113451090D01*
X136958562Y-113435438D01*
X136942910Y-113418168D01*
X136929026Y-113399448D01*
X136917044Y-113379457D01*
X136907079Y-113358387D01*
X136899227Y-113336443D01*
X136893563Y-113313834D01*
X136890144Y-113290779D01*
X136889000Y-113267500D01*
X136889000Y-112792500D01*
X136890144Y-112769221D01*
X136893563Y-112746166D01*
X136899227Y-112723557D01*
X136907079Y-112701613D01*
X136917044Y-112680543D01*
X136929026Y-112660552D01*
X136942910Y-112641832D01*
X136958562Y-112624562D01*
X136975832Y-112608910D01*
X136994552Y-112595026D01*
X137014543Y-112583044D01*
X137035613Y-112573079D01*
X137057557Y-112565227D01*
X137080166Y-112559563D01*
X137103221Y-112556144D01*
X137126500Y-112555000D01*
X137701500Y-112555000D01*
X137724779Y-112556144D01*
X137724779Y-112556144D01*
G37*
D13*
X137414000Y-113030000D03*
D12*
G36*
X132376779Y-112556144D02*
G01*
X132399834Y-112559563D01*
X132422443Y-112565227D01*
X132444387Y-112573079D01*
X132465457Y-112583044D01*
X132485448Y-112595026D01*
X132504168Y-112608910D01*
X132521438Y-112624562D01*
X132537090Y-112641832D01*
X132550974Y-112660552D01*
X132562956Y-112680543D01*
X132572921Y-112701613D01*
X132580773Y-112723557D01*
X132586437Y-112746166D01*
X132589856Y-112769221D01*
X132591000Y-112792500D01*
X132591000Y-113267500D01*
X132589856Y-113290779D01*
X132586437Y-113313834D01*
X132580773Y-113336443D01*
X132572921Y-113358387D01*
X132562956Y-113379457D01*
X132550974Y-113399448D01*
X132537090Y-113418168D01*
X132521438Y-113435438D01*
X132504168Y-113451090D01*
X132485448Y-113464974D01*
X132465457Y-113476956D01*
X132444387Y-113486921D01*
X132422443Y-113494773D01*
X132399834Y-113500437D01*
X132376779Y-113503856D01*
X132353500Y-113505000D01*
X131778500Y-113505000D01*
X131755221Y-113503856D01*
X131732166Y-113500437D01*
X131709557Y-113494773D01*
X131687613Y-113486921D01*
X131666543Y-113476956D01*
X131646552Y-113464974D01*
X131627832Y-113451090D01*
X131610562Y-113435438D01*
X131594910Y-113418168D01*
X131581026Y-113399448D01*
X131569044Y-113379457D01*
X131559079Y-113358387D01*
X131551227Y-113336443D01*
X131545563Y-113313834D01*
X131542144Y-113290779D01*
X131541000Y-113267500D01*
X131541000Y-112792500D01*
X131542144Y-112769221D01*
X131545563Y-112746166D01*
X131551227Y-112723557D01*
X131559079Y-112701613D01*
X131569044Y-112680543D01*
X131581026Y-112660552D01*
X131594910Y-112641832D01*
X131610562Y-112624562D01*
X131627832Y-112608910D01*
X131646552Y-112595026D01*
X131666543Y-112583044D01*
X131687613Y-112573079D01*
X131709557Y-112565227D01*
X131732166Y-112559563D01*
X131755221Y-112556144D01*
X131778500Y-112555000D01*
X132353500Y-112555000D01*
X132376779Y-112556144D01*
X132376779Y-112556144D01*
G37*
D13*
X132066000Y-113030000D03*
D12*
G36*
X130626779Y-112556144D02*
G01*
X130649834Y-112559563D01*
X130672443Y-112565227D01*
X130694387Y-112573079D01*
X130715457Y-112583044D01*
X130735448Y-112595026D01*
X130754168Y-112608910D01*
X130771438Y-112624562D01*
X130787090Y-112641832D01*
X130800974Y-112660552D01*
X130812956Y-112680543D01*
X130822921Y-112701613D01*
X130830773Y-112723557D01*
X130836437Y-112746166D01*
X130839856Y-112769221D01*
X130841000Y-112792500D01*
X130841000Y-113267500D01*
X130839856Y-113290779D01*
X130836437Y-113313834D01*
X130830773Y-113336443D01*
X130822921Y-113358387D01*
X130812956Y-113379457D01*
X130800974Y-113399448D01*
X130787090Y-113418168D01*
X130771438Y-113435438D01*
X130754168Y-113451090D01*
X130735448Y-113464974D01*
X130715457Y-113476956D01*
X130694387Y-113486921D01*
X130672443Y-113494773D01*
X130649834Y-113500437D01*
X130626779Y-113503856D01*
X130603500Y-113505000D01*
X130028500Y-113505000D01*
X130005221Y-113503856D01*
X129982166Y-113500437D01*
X129959557Y-113494773D01*
X129937613Y-113486921D01*
X129916543Y-113476956D01*
X129896552Y-113464974D01*
X129877832Y-113451090D01*
X129860562Y-113435438D01*
X129844910Y-113418168D01*
X129831026Y-113399448D01*
X129819044Y-113379457D01*
X129809079Y-113358387D01*
X129801227Y-113336443D01*
X129795563Y-113313834D01*
X129792144Y-113290779D01*
X129791000Y-113267500D01*
X129791000Y-112792500D01*
X129792144Y-112769221D01*
X129795563Y-112746166D01*
X129801227Y-112723557D01*
X129809079Y-112701613D01*
X129819044Y-112680543D01*
X129831026Y-112660552D01*
X129844910Y-112641832D01*
X129860562Y-112624562D01*
X129877832Y-112608910D01*
X129896552Y-112595026D01*
X129916543Y-112583044D01*
X129937613Y-112573079D01*
X129959557Y-112565227D01*
X129982166Y-112559563D01*
X130005221Y-112556144D01*
X130028500Y-112555000D01*
X130603500Y-112555000D01*
X130626779Y-112556144D01*
X130626779Y-112556144D01*
G37*
D13*
X130316000Y-113030000D03*
D12*
G36*
X125405779Y-112556144D02*
G01*
X125428834Y-112559563D01*
X125451443Y-112565227D01*
X125473387Y-112573079D01*
X125494457Y-112583044D01*
X125514448Y-112595026D01*
X125533168Y-112608910D01*
X125550438Y-112624562D01*
X125566090Y-112641832D01*
X125579974Y-112660552D01*
X125591956Y-112680543D01*
X125601921Y-112701613D01*
X125609773Y-112723557D01*
X125615437Y-112746166D01*
X125618856Y-112769221D01*
X125620000Y-112792500D01*
X125620000Y-113267500D01*
X125618856Y-113290779D01*
X125615437Y-113313834D01*
X125609773Y-113336443D01*
X125601921Y-113358387D01*
X125591956Y-113379457D01*
X125579974Y-113399448D01*
X125566090Y-113418168D01*
X125550438Y-113435438D01*
X125533168Y-113451090D01*
X125514448Y-113464974D01*
X125494457Y-113476956D01*
X125473387Y-113486921D01*
X125451443Y-113494773D01*
X125428834Y-113500437D01*
X125405779Y-113503856D01*
X125382500Y-113505000D01*
X124807500Y-113505000D01*
X124784221Y-113503856D01*
X124761166Y-113500437D01*
X124738557Y-113494773D01*
X124716613Y-113486921D01*
X124695543Y-113476956D01*
X124675552Y-113464974D01*
X124656832Y-113451090D01*
X124639562Y-113435438D01*
X124623910Y-113418168D01*
X124610026Y-113399448D01*
X124598044Y-113379457D01*
X124588079Y-113358387D01*
X124580227Y-113336443D01*
X124574563Y-113313834D01*
X124571144Y-113290779D01*
X124570000Y-113267500D01*
X124570000Y-112792500D01*
X124571144Y-112769221D01*
X124574563Y-112746166D01*
X124580227Y-112723557D01*
X124588079Y-112701613D01*
X124598044Y-112680543D01*
X124610026Y-112660552D01*
X124623910Y-112641832D01*
X124639562Y-112624562D01*
X124656832Y-112608910D01*
X124675552Y-112595026D01*
X124695543Y-112583044D01*
X124716613Y-112573079D01*
X124738557Y-112565227D01*
X124761166Y-112559563D01*
X124784221Y-112556144D01*
X124807500Y-112555000D01*
X125382500Y-112555000D01*
X125405779Y-112556144D01*
X125405779Y-112556144D01*
G37*
D13*
X125095000Y-113030000D03*
D12*
G36*
X123655779Y-112556144D02*
G01*
X123678834Y-112559563D01*
X123701443Y-112565227D01*
X123723387Y-112573079D01*
X123744457Y-112583044D01*
X123764448Y-112595026D01*
X123783168Y-112608910D01*
X123800438Y-112624562D01*
X123816090Y-112641832D01*
X123829974Y-112660552D01*
X123841956Y-112680543D01*
X123851921Y-112701613D01*
X123859773Y-112723557D01*
X123865437Y-112746166D01*
X123868856Y-112769221D01*
X123870000Y-112792500D01*
X123870000Y-113267500D01*
X123868856Y-113290779D01*
X123865437Y-113313834D01*
X123859773Y-113336443D01*
X123851921Y-113358387D01*
X123841956Y-113379457D01*
X123829974Y-113399448D01*
X123816090Y-113418168D01*
X123800438Y-113435438D01*
X123783168Y-113451090D01*
X123764448Y-113464974D01*
X123744457Y-113476956D01*
X123723387Y-113486921D01*
X123701443Y-113494773D01*
X123678834Y-113500437D01*
X123655779Y-113503856D01*
X123632500Y-113505000D01*
X123057500Y-113505000D01*
X123034221Y-113503856D01*
X123011166Y-113500437D01*
X122988557Y-113494773D01*
X122966613Y-113486921D01*
X122945543Y-113476956D01*
X122925552Y-113464974D01*
X122906832Y-113451090D01*
X122889562Y-113435438D01*
X122873910Y-113418168D01*
X122860026Y-113399448D01*
X122848044Y-113379457D01*
X122838079Y-113358387D01*
X122830227Y-113336443D01*
X122824563Y-113313834D01*
X122821144Y-113290779D01*
X122820000Y-113267500D01*
X122820000Y-112792500D01*
X122821144Y-112769221D01*
X122824563Y-112746166D01*
X122830227Y-112723557D01*
X122838079Y-112701613D01*
X122848044Y-112680543D01*
X122860026Y-112660552D01*
X122873910Y-112641832D01*
X122889562Y-112624562D01*
X122906832Y-112608910D01*
X122925552Y-112595026D01*
X122945543Y-112583044D01*
X122966613Y-112573079D01*
X122988557Y-112565227D01*
X123011166Y-112559563D01*
X123034221Y-112556144D01*
X123057500Y-112555000D01*
X123632500Y-112555000D01*
X123655779Y-112556144D01*
X123655779Y-112556144D01*
G37*
D13*
X123345000Y-113030000D03*
D12*
G36*
X106877779Y-76742144D02*
G01*
X106900834Y-76745563D01*
X106923443Y-76751227D01*
X106945387Y-76759079D01*
X106966457Y-76769044D01*
X106986448Y-76781026D01*
X107005168Y-76794910D01*
X107022438Y-76810562D01*
X107038090Y-76827832D01*
X107051974Y-76846552D01*
X107063956Y-76866543D01*
X107073921Y-76887613D01*
X107081773Y-76909557D01*
X107087437Y-76932166D01*
X107090856Y-76955221D01*
X107092000Y-76978500D01*
X107092000Y-77453500D01*
X107090856Y-77476779D01*
X107087437Y-77499834D01*
X107081773Y-77522443D01*
X107073921Y-77544387D01*
X107063956Y-77565457D01*
X107051974Y-77585448D01*
X107038090Y-77604168D01*
X107022438Y-77621438D01*
X107005168Y-77637090D01*
X106986448Y-77650974D01*
X106966457Y-77662956D01*
X106945387Y-77672921D01*
X106923443Y-77680773D01*
X106900834Y-77686437D01*
X106877779Y-77689856D01*
X106854500Y-77691000D01*
X106279500Y-77691000D01*
X106256221Y-77689856D01*
X106233166Y-77686437D01*
X106210557Y-77680773D01*
X106188613Y-77672921D01*
X106167543Y-77662956D01*
X106147552Y-77650974D01*
X106128832Y-77637090D01*
X106111562Y-77621438D01*
X106095910Y-77604168D01*
X106082026Y-77585448D01*
X106070044Y-77565457D01*
X106060079Y-77544387D01*
X106052227Y-77522443D01*
X106046563Y-77499834D01*
X106043144Y-77476779D01*
X106042000Y-77453500D01*
X106042000Y-76978500D01*
X106043144Y-76955221D01*
X106046563Y-76932166D01*
X106052227Y-76909557D01*
X106060079Y-76887613D01*
X106070044Y-76866543D01*
X106082026Y-76846552D01*
X106095910Y-76827832D01*
X106111562Y-76810562D01*
X106128832Y-76794910D01*
X106147552Y-76781026D01*
X106167543Y-76769044D01*
X106188613Y-76759079D01*
X106210557Y-76751227D01*
X106233166Y-76745563D01*
X106256221Y-76742144D01*
X106279500Y-76741000D01*
X106854500Y-76741000D01*
X106877779Y-76742144D01*
X106877779Y-76742144D01*
G37*
D13*
X106567000Y-77216000D03*
D12*
G36*
X108627779Y-76742144D02*
G01*
X108650834Y-76745563D01*
X108673443Y-76751227D01*
X108695387Y-76759079D01*
X108716457Y-76769044D01*
X108736448Y-76781026D01*
X108755168Y-76794910D01*
X108772438Y-76810562D01*
X108788090Y-76827832D01*
X108801974Y-76846552D01*
X108813956Y-76866543D01*
X108823921Y-76887613D01*
X108831773Y-76909557D01*
X108837437Y-76932166D01*
X108840856Y-76955221D01*
X108842000Y-76978500D01*
X108842000Y-77453500D01*
X108840856Y-77476779D01*
X108837437Y-77499834D01*
X108831773Y-77522443D01*
X108823921Y-77544387D01*
X108813956Y-77565457D01*
X108801974Y-77585448D01*
X108788090Y-77604168D01*
X108772438Y-77621438D01*
X108755168Y-77637090D01*
X108736448Y-77650974D01*
X108716457Y-77662956D01*
X108695387Y-77672921D01*
X108673443Y-77680773D01*
X108650834Y-77686437D01*
X108627779Y-77689856D01*
X108604500Y-77691000D01*
X108029500Y-77691000D01*
X108006221Y-77689856D01*
X107983166Y-77686437D01*
X107960557Y-77680773D01*
X107938613Y-77672921D01*
X107917543Y-77662956D01*
X107897552Y-77650974D01*
X107878832Y-77637090D01*
X107861562Y-77621438D01*
X107845910Y-77604168D01*
X107832026Y-77585448D01*
X107820044Y-77565457D01*
X107810079Y-77544387D01*
X107802227Y-77522443D01*
X107796563Y-77499834D01*
X107793144Y-77476779D01*
X107792000Y-77453500D01*
X107792000Y-76978500D01*
X107793144Y-76955221D01*
X107796563Y-76932166D01*
X107802227Y-76909557D01*
X107810079Y-76887613D01*
X107820044Y-76866543D01*
X107832026Y-76846552D01*
X107845910Y-76827832D01*
X107861562Y-76810562D01*
X107878832Y-76794910D01*
X107897552Y-76781026D01*
X107917543Y-76769044D01*
X107938613Y-76759079D01*
X107960557Y-76751227D01*
X107983166Y-76745563D01*
X108006221Y-76742144D01*
X108029500Y-76741000D01*
X108604500Y-76741000D01*
X108627779Y-76742144D01*
X108627779Y-76742144D01*
G37*
D13*
X108317000Y-77216000D03*
D12*
G36*
X106877779Y-85378144D02*
G01*
X106900834Y-85381563D01*
X106923443Y-85387227D01*
X106945387Y-85395079D01*
X106966457Y-85405044D01*
X106986448Y-85417026D01*
X107005168Y-85430910D01*
X107022438Y-85446562D01*
X107038090Y-85463832D01*
X107051974Y-85482552D01*
X107063956Y-85502543D01*
X107073921Y-85523613D01*
X107081773Y-85545557D01*
X107087437Y-85568166D01*
X107090856Y-85591221D01*
X107092000Y-85614500D01*
X107092000Y-86089500D01*
X107090856Y-86112779D01*
X107087437Y-86135834D01*
X107081773Y-86158443D01*
X107073921Y-86180387D01*
X107063956Y-86201457D01*
X107051974Y-86221448D01*
X107038090Y-86240168D01*
X107022438Y-86257438D01*
X107005168Y-86273090D01*
X106986448Y-86286974D01*
X106966457Y-86298956D01*
X106945387Y-86308921D01*
X106923443Y-86316773D01*
X106900834Y-86322437D01*
X106877779Y-86325856D01*
X106854500Y-86327000D01*
X106279500Y-86327000D01*
X106256221Y-86325856D01*
X106233166Y-86322437D01*
X106210557Y-86316773D01*
X106188613Y-86308921D01*
X106167543Y-86298956D01*
X106147552Y-86286974D01*
X106128832Y-86273090D01*
X106111562Y-86257438D01*
X106095910Y-86240168D01*
X106082026Y-86221448D01*
X106070044Y-86201457D01*
X106060079Y-86180387D01*
X106052227Y-86158443D01*
X106046563Y-86135834D01*
X106043144Y-86112779D01*
X106042000Y-86089500D01*
X106042000Y-85614500D01*
X106043144Y-85591221D01*
X106046563Y-85568166D01*
X106052227Y-85545557D01*
X106060079Y-85523613D01*
X106070044Y-85502543D01*
X106082026Y-85482552D01*
X106095910Y-85463832D01*
X106111562Y-85446562D01*
X106128832Y-85430910D01*
X106147552Y-85417026D01*
X106167543Y-85405044D01*
X106188613Y-85395079D01*
X106210557Y-85387227D01*
X106233166Y-85381563D01*
X106256221Y-85378144D01*
X106279500Y-85377000D01*
X106854500Y-85377000D01*
X106877779Y-85378144D01*
X106877779Y-85378144D01*
G37*
D13*
X106567000Y-85852000D03*
D12*
G36*
X108627779Y-85378144D02*
G01*
X108650834Y-85381563D01*
X108673443Y-85387227D01*
X108695387Y-85395079D01*
X108716457Y-85405044D01*
X108736448Y-85417026D01*
X108755168Y-85430910D01*
X108772438Y-85446562D01*
X108788090Y-85463832D01*
X108801974Y-85482552D01*
X108813956Y-85502543D01*
X108823921Y-85523613D01*
X108831773Y-85545557D01*
X108837437Y-85568166D01*
X108840856Y-85591221D01*
X108842000Y-85614500D01*
X108842000Y-86089500D01*
X108840856Y-86112779D01*
X108837437Y-86135834D01*
X108831773Y-86158443D01*
X108823921Y-86180387D01*
X108813956Y-86201457D01*
X108801974Y-86221448D01*
X108788090Y-86240168D01*
X108772438Y-86257438D01*
X108755168Y-86273090D01*
X108736448Y-86286974D01*
X108716457Y-86298956D01*
X108695387Y-86308921D01*
X108673443Y-86316773D01*
X108650834Y-86322437D01*
X108627779Y-86325856D01*
X108604500Y-86327000D01*
X108029500Y-86327000D01*
X108006221Y-86325856D01*
X107983166Y-86322437D01*
X107960557Y-86316773D01*
X107938613Y-86308921D01*
X107917543Y-86298956D01*
X107897552Y-86286974D01*
X107878832Y-86273090D01*
X107861562Y-86257438D01*
X107845910Y-86240168D01*
X107832026Y-86221448D01*
X107820044Y-86201457D01*
X107810079Y-86180387D01*
X107802227Y-86158443D01*
X107796563Y-86135834D01*
X107793144Y-86112779D01*
X107792000Y-86089500D01*
X107792000Y-85614500D01*
X107793144Y-85591221D01*
X107796563Y-85568166D01*
X107802227Y-85545557D01*
X107810079Y-85523613D01*
X107820044Y-85502543D01*
X107832026Y-85482552D01*
X107845910Y-85463832D01*
X107861562Y-85446562D01*
X107878832Y-85430910D01*
X107897552Y-85417026D01*
X107917543Y-85405044D01*
X107938613Y-85395079D01*
X107960557Y-85387227D01*
X107983166Y-85381563D01*
X108006221Y-85378144D01*
X108029500Y-85377000D01*
X108604500Y-85377000D01*
X108627779Y-85378144D01*
X108627779Y-85378144D01*
G37*
D13*
X108317000Y-85852000D03*
D12*
G36*
X106877779Y-70138144D02*
G01*
X106900834Y-70141563D01*
X106923443Y-70147227D01*
X106945387Y-70155079D01*
X106966457Y-70165044D01*
X106986448Y-70177026D01*
X107005168Y-70190910D01*
X107022438Y-70206562D01*
X107038090Y-70223832D01*
X107051974Y-70242552D01*
X107063956Y-70262543D01*
X107073921Y-70283613D01*
X107081773Y-70305557D01*
X107087437Y-70328166D01*
X107090856Y-70351221D01*
X107092000Y-70374500D01*
X107092000Y-70849500D01*
X107090856Y-70872779D01*
X107087437Y-70895834D01*
X107081773Y-70918443D01*
X107073921Y-70940387D01*
X107063956Y-70961457D01*
X107051974Y-70981448D01*
X107038090Y-71000168D01*
X107022438Y-71017438D01*
X107005168Y-71033090D01*
X106986448Y-71046974D01*
X106966457Y-71058956D01*
X106945387Y-71068921D01*
X106923443Y-71076773D01*
X106900834Y-71082437D01*
X106877779Y-71085856D01*
X106854500Y-71087000D01*
X106279500Y-71087000D01*
X106256221Y-71085856D01*
X106233166Y-71082437D01*
X106210557Y-71076773D01*
X106188613Y-71068921D01*
X106167543Y-71058956D01*
X106147552Y-71046974D01*
X106128832Y-71033090D01*
X106111562Y-71017438D01*
X106095910Y-71000168D01*
X106082026Y-70981448D01*
X106070044Y-70961457D01*
X106060079Y-70940387D01*
X106052227Y-70918443D01*
X106046563Y-70895834D01*
X106043144Y-70872779D01*
X106042000Y-70849500D01*
X106042000Y-70374500D01*
X106043144Y-70351221D01*
X106046563Y-70328166D01*
X106052227Y-70305557D01*
X106060079Y-70283613D01*
X106070044Y-70262543D01*
X106082026Y-70242552D01*
X106095910Y-70223832D01*
X106111562Y-70206562D01*
X106128832Y-70190910D01*
X106147552Y-70177026D01*
X106167543Y-70165044D01*
X106188613Y-70155079D01*
X106210557Y-70147227D01*
X106233166Y-70141563D01*
X106256221Y-70138144D01*
X106279500Y-70137000D01*
X106854500Y-70137000D01*
X106877779Y-70138144D01*
X106877779Y-70138144D01*
G37*
D13*
X106567000Y-70612000D03*
D12*
G36*
X108627779Y-70138144D02*
G01*
X108650834Y-70141563D01*
X108673443Y-70147227D01*
X108695387Y-70155079D01*
X108716457Y-70165044D01*
X108736448Y-70177026D01*
X108755168Y-70190910D01*
X108772438Y-70206562D01*
X108788090Y-70223832D01*
X108801974Y-70242552D01*
X108813956Y-70262543D01*
X108823921Y-70283613D01*
X108831773Y-70305557D01*
X108837437Y-70328166D01*
X108840856Y-70351221D01*
X108842000Y-70374500D01*
X108842000Y-70849500D01*
X108840856Y-70872779D01*
X108837437Y-70895834D01*
X108831773Y-70918443D01*
X108823921Y-70940387D01*
X108813956Y-70961457D01*
X108801974Y-70981448D01*
X108788090Y-71000168D01*
X108772438Y-71017438D01*
X108755168Y-71033090D01*
X108736448Y-71046974D01*
X108716457Y-71058956D01*
X108695387Y-71068921D01*
X108673443Y-71076773D01*
X108650834Y-71082437D01*
X108627779Y-71085856D01*
X108604500Y-71087000D01*
X108029500Y-71087000D01*
X108006221Y-71085856D01*
X107983166Y-71082437D01*
X107960557Y-71076773D01*
X107938613Y-71068921D01*
X107917543Y-71058956D01*
X107897552Y-71046974D01*
X107878832Y-71033090D01*
X107861562Y-71017438D01*
X107845910Y-71000168D01*
X107832026Y-70981448D01*
X107820044Y-70961457D01*
X107810079Y-70940387D01*
X107802227Y-70918443D01*
X107796563Y-70895834D01*
X107793144Y-70872779D01*
X107792000Y-70849500D01*
X107792000Y-70374500D01*
X107793144Y-70351221D01*
X107796563Y-70328166D01*
X107802227Y-70305557D01*
X107810079Y-70283613D01*
X107820044Y-70262543D01*
X107832026Y-70242552D01*
X107845910Y-70223832D01*
X107861562Y-70206562D01*
X107878832Y-70190910D01*
X107897552Y-70177026D01*
X107917543Y-70165044D01*
X107938613Y-70155079D01*
X107960557Y-70147227D01*
X107983166Y-70141563D01*
X108006221Y-70138144D01*
X108029500Y-70137000D01*
X108604500Y-70137000D01*
X108627779Y-70138144D01*
X108627779Y-70138144D01*
G37*
D13*
X108317000Y-70612000D03*
D12*
G36*
X106877779Y-61502144D02*
G01*
X106900834Y-61505563D01*
X106923443Y-61511227D01*
X106945387Y-61519079D01*
X106966457Y-61529044D01*
X106986448Y-61541026D01*
X107005168Y-61554910D01*
X107022438Y-61570562D01*
X107038090Y-61587832D01*
X107051974Y-61606552D01*
X107063956Y-61626543D01*
X107073921Y-61647613D01*
X107081773Y-61669557D01*
X107087437Y-61692166D01*
X107090856Y-61715221D01*
X107092000Y-61738500D01*
X107092000Y-62213500D01*
X107090856Y-62236779D01*
X107087437Y-62259834D01*
X107081773Y-62282443D01*
X107073921Y-62304387D01*
X107063956Y-62325457D01*
X107051974Y-62345448D01*
X107038090Y-62364168D01*
X107022438Y-62381438D01*
X107005168Y-62397090D01*
X106986448Y-62410974D01*
X106966457Y-62422956D01*
X106945387Y-62432921D01*
X106923443Y-62440773D01*
X106900834Y-62446437D01*
X106877779Y-62449856D01*
X106854500Y-62451000D01*
X106279500Y-62451000D01*
X106256221Y-62449856D01*
X106233166Y-62446437D01*
X106210557Y-62440773D01*
X106188613Y-62432921D01*
X106167543Y-62422956D01*
X106147552Y-62410974D01*
X106128832Y-62397090D01*
X106111562Y-62381438D01*
X106095910Y-62364168D01*
X106082026Y-62345448D01*
X106070044Y-62325457D01*
X106060079Y-62304387D01*
X106052227Y-62282443D01*
X106046563Y-62259834D01*
X106043144Y-62236779D01*
X106042000Y-62213500D01*
X106042000Y-61738500D01*
X106043144Y-61715221D01*
X106046563Y-61692166D01*
X106052227Y-61669557D01*
X106060079Y-61647613D01*
X106070044Y-61626543D01*
X106082026Y-61606552D01*
X106095910Y-61587832D01*
X106111562Y-61570562D01*
X106128832Y-61554910D01*
X106147552Y-61541026D01*
X106167543Y-61529044D01*
X106188613Y-61519079D01*
X106210557Y-61511227D01*
X106233166Y-61505563D01*
X106256221Y-61502144D01*
X106279500Y-61501000D01*
X106854500Y-61501000D01*
X106877779Y-61502144D01*
X106877779Y-61502144D01*
G37*
D13*
X106567000Y-61976000D03*
D12*
G36*
X108627779Y-61502144D02*
G01*
X108650834Y-61505563D01*
X108673443Y-61511227D01*
X108695387Y-61519079D01*
X108716457Y-61529044D01*
X108736448Y-61541026D01*
X108755168Y-61554910D01*
X108772438Y-61570562D01*
X108788090Y-61587832D01*
X108801974Y-61606552D01*
X108813956Y-61626543D01*
X108823921Y-61647613D01*
X108831773Y-61669557D01*
X108837437Y-61692166D01*
X108840856Y-61715221D01*
X108842000Y-61738500D01*
X108842000Y-62213500D01*
X108840856Y-62236779D01*
X108837437Y-62259834D01*
X108831773Y-62282443D01*
X108823921Y-62304387D01*
X108813956Y-62325457D01*
X108801974Y-62345448D01*
X108788090Y-62364168D01*
X108772438Y-62381438D01*
X108755168Y-62397090D01*
X108736448Y-62410974D01*
X108716457Y-62422956D01*
X108695387Y-62432921D01*
X108673443Y-62440773D01*
X108650834Y-62446437D01*
X108627779Y-62449856D01*
X108604500Y-62451000D01*
X108029500Y-62451000D01*
X108006221Y-62449856D01*
X107983166Y-62446437D01*
X107960557Y-62440773D01*
X107938613Y-62432921D01*
X107917543Y-62422956D01*
X107897552Y-62410974D01*
X107878832Y-62397090D01*
X107861562Y-62381438D01*
X107845910Y-62364168D01*
X107832026Y-62345448D01*
X107820044Y-62325457D01*
X107810079Y-62304387D01*
X107802227Y-62282443D01*
X107796563Y-62259834D01*
X107793144Y-62236779D01*
X107792000Y-62213500D01*
X107792000Y-61738500D01*
X107793144Y-61715221D01*
X107796563Y-61692166D01*
X107802227Y-61669557D01*
X107810079Y-61647613D01*
X107820044Y-61626543D01*
X107832026Y-61606552D01*
X107845910Y-61587832D01*
X107861562Y-61570562D01*
X107878832Y-61554910D01*
X107897552Y-61541026D01*
X107917543Y-61529044D01*
X107938613Y-61519079D01*
X107960557Y-61511227D01*
X107983166Y-61505563D01*
X108006221Y-61502144D01*
X108029500Y-61501000D01*
X108604500Y-61501000D01*
X108627779Y-61502144D01*
X108627779Y-61502144D01*
G37*
D13*
X108317000Y-61976000D03*
D12*
G36*
X101352779Y-79881144D02*
G01*
X101375834Y-79884563D01*
X101398443Y-79890227D01*
X101420387Y-79898079D01*
X101441457Y-79908044D01*
X101461448Y-79920026D01*
X101480168Y-79933910D01*
X101497438Y-79949562D01*
X101513090Y-79966832D01*
X101526974Y-79985552D01*
X101538956Y-80005543D01*
X101548921Y-80026613D01*
X101556773Y-80048557D01*
X101562437Y-80071166D01*
X101565856Y-80094221D01*
X101567000Y-80117500D01*
X101567000Y-80692500D01*
X101565856Y-80715779D01*
X101562437Y-80738834D01*
X101556773Y-80761443D01*
X101548921Y-80783387D01*
X101538956Y-80804457D01*
X101526974Y-80824448D01*
X101513090Y-80843168D01*
X101497438Y-80860438D01*
X101480168Y-80876090D01*
X101461448Y-80889974D01*
X101441457Y-80901956D01*
X101420387Y-80911921D01*
X101398443Y-80919773D01*
X101375834Y-80925437D01*
X101352779Y-80928856D01*
X101329500Y-80930000D01*
X100854500Y-80930000D01*
X100831221Y-80928856D01*
X100808166Y-80925437D01*
X100785557Y-80919773D01*
X100763613Y-80911921D01*
X100742543Y-80901956D01*
X100722552Y-80889974D01*
X100703832Y-80876090D01*
X100686562Y-80860438D01*
X100670910Y-80843168D01*
X100657026Y-80824448D01*
X100645044Y-80804457D01*
X100635079Y-80783387D01*
X100627227Y-80761443D01*
X100621563Y-80738834D01*
X100618144Y-80715779D01*
X100617000Y-80692500D01*
X100617000Y-80117500D01*
X100618144Y-80094221D01*
X100621563Y-80071166D01*
X100627227Y-80048557D01*
X100635079Y-80026613D01*
X100645044Y-80005543D01*
X100657026Y-79985552D01*
X100670910Y-79966832D01*
X100686562Y-79949562D01*
X100703832Y-79933910D01*
X100722552Y-79920026D01*
X100742543Y-79908044D01*
X100763613Y-79898079D01*
X100785557Y-79890227D01*
X100808166Y-79884563D01*
X100831221Y-79881144D01*
X100854500Y-79880000D01*
X101329500Y-79880000D01*
X101352779Y-79881144D01*
X101352779Y-79881144D01*
G37*
D13*
X101092000Y-80405000D03*
D12*
G36*
X101352779Y-81631144D02*
G01*
X101375834Y-81634563D01*
X101398443Y-81640227D01*
X101420387Y-81648079D01*
X101441457Y-81658044D01*
X101461448Y-81670026D01*
X101480168Y-81683910D01*
X101497438Y-81699562D01*
X101513090Y-81716832D01*
X101526974Y-81735552D01*
X101538956Y-81755543D01*
X101548921Y-81776613D01*
X101556773Y-81798557D01*
X101562437Y-81821166D01*
X101565856Y-81844221D01*
X101567000Y-81867500D01*
X101567000Y-82442500D01*
X101565856Y-82465779D01*
X101562437Y-82488834D01*
X101556773Y-82511443D01*
X101548921Y-82533387D01*
X101538956Y-82554457D01*
X101526974Y-82574448D01*
X101513090Y-82593168D01*
X101497438Y-82610438D01*
X101480168Y-82626090D01*
X101461448Y-82639974D01*
X101441457Y-82651956D01*
X101420387Y-82661921D01*
X101398443Y-82669773D01*
X101375834Y-82675437D01*
X101352779Y-82678856D01*
X101329500Y-82680000D01*
X100854500Y-82680000D01*
X100831221Y-82678856D01*
X100808166Y-82675437D01*
X100785557Y-82669773D01*
X100763613Y-82661921D01*
X100742543Y-82651956D01*
X100722552Y-82639974D01*
X100703832Y-82626090D01*
X100686562Y-82610438D01*
X100670910Y-82593168D01*
X100657026Y-82574448D01*
X100645044Y-82554457D01*
X100635079Y-82533387D01*
X100627227Y-82511443D01*
X100621563Y-82488834D01*
X100618144Y-82465779D01*
X100617000Y-82442500D01*
X100617000Y-81867500D01*
X100618144Y-81844221D01*
X100621563Y-81821166D01*
X100627227Y-81798557D01*
X100635079Y-81776613D01*
X100645044Y-81755543D01*
X100657026Y-81735552D01*
X100670910Y-81716832D01*
X100686562Y-81699562D01*
X100703832Y-81683910D01*
X100722552Y-81670026D01*
X100742543Y-81658044D01*
X100763613Y-81648079D01*
X100785557Y-81640227D01*
X100808166Y-81634563D01*
X100831221Y-81631144D01*
X100854500Y-81630000D01*
X101329500Y-81630000D01*
X101352779Y-81631144D01*
X101352779Y-81631144D01*
G37*
D13*
X101092000Y-82155000D03*
D12*
G36*
X129292779Y-79881144D02*
G01*
X129315834Y-79884563D01*
X129338443Y-79890227D01*
X129360387Y-79898079D01*
X129381457Y-79908044D01*
X129401448Y-79920026D01*
X129420168Y-79933910D01*
X129437438Y-79949562D01*
X129453090Y-79966832D01*
X129466974Y-79985552D01*
X129478956Y-80005543D01*
X129488921Y-80026613D01*
X129496773Y-80048557D01*
X129502437Y-80071166D01*
X129505856Y-80094221D01*
X129507000Y-80117500D01*
X129507000Y-80692500D01*
X129505856Y-80715779D01*
X129502437Y-80738834D01*
X129496773Y-80761443D01*
X129488921Y-80783387D01*
X129478956Y-80804457D01*
X129466974Y-80824448D01*
X129453090Y-80843168D01*
X129437438Y-80860438D01*
X129420168Y-80876090D01*
X129401448Y-80889974D01*
X129381457Y-80901956D01*
X129360387Y-80911921D01*
X129338443Y-80919773D01*
X129315834Y-80925437D01*
X129292779Y-80928856D01*
X129269500Y-80930000D01*
X128794500Y-80930000D01*
X128771221Y-80928856D01*
X128748166Y-80925437D01*
X128725557Y-80919773D01*
X128703613Y-80911921D01*
X128682543Y-80901956D01*
X128662552Y-80889974D01*
X128643832Y-80876090D01*
X128626562Y-80860438D01*
X128610910Y-80843168D01*
X128597026Y-80824448D01*
X128585044Y-80804457D01*
X128575079Y-80783387D01*
X128567227Y-80761443D01*
X128561563Y-80738834D01*
X128558144Y-80715779D01*
X128557000Y-80692500D01*
X128557000Y-80117500D01*
X128558144Y-80094221D01*
X128561563Y-80071166D01*
X128567227Y-80048557D01*
X128575079Y-80026613D01*
X128585044Y-80005543D01*
X128597026Y-79985552D01*
X128610910Y-79966832D01*
X128626562Y-79949562D01*
X128643832Y-79933910D01*
X128662552Y-79920026D01*
X128682543Y-79908044D01*
X128703613Y-79898079D01*
X128725557Y-79890227D01*
X128748166Y-79884563D01*
X128771221Y-79881144D01*
X128794500Y-79880000D01*
X129269500Y-79880000D01*
X129292779Y-79881144D01*
X129292779Y-79881144D01*
G37*
D13*
X129032000Y-80405000D03*
D12*
G36*
X129292779Y-81631144D02*
G01*
X129315834Y-81634563D01*
X129338443Y-81640227D01*
X129360387Y-81648079D01*
X129381457Y-81658044D01*
X129401448Y-81670026D01*
X129420168Y-81683910D01*
X129437438Y-81699562D01*
X129453090Y-81716832D01*
X129466974Y-81735552D01*
X129478956Y-81755543D01*
X129488921Y-81776613D01*
X129496773Y-81798557D01*
X129502437Y-81821166D01*
X129505856Y-81844221D01*
X129507000Y-81867500D01*
X129507000Y-82442500D01*
X129505856Y-82465779D01*
X129502437Y-82488834D01*
X129496773Y-82511443D01*
X129488921Y-82533387D01*
X129478956Y-82554457D01*
X129466974Y-82574448D01*
X129453090Y-82593168D01*
X129437438Y-82610438D01*
X129420168Y-82626090D01*
X129401448Y-82639974D01*
X129381457Y-82651956D01*
X129360387Y-82661921D01*
X129338443Y-82669773D01*
X129315834Y-82675437D01*
X129292779Y-82678856D01*
X129269500Y-82680000D01*
X128794500Y-82680000D01*
X128771221Y-82678856D01*
X128748166Y-82675437D01*
X128725557Y-82669773D01*
X128703613Y-82661921D01*
X128682543Y-82651956D01*
X128662552Y-82639974D01*
X128643832Y-82626090D01*
X128626562Y-82610438D01*
X128610910Y-82593168D01*
X128597026Y-82574448D01*
X128585044Y-82554457D01*
X128575079Y-82533387D01*
X128567227Y-82511443D01*
X128561563Y-82488834D01*
X128558144Y-82465779D01*
X128557000Y-82442500D01*
X128557000Y-81867500D01*
X128558144Y-81844221D01*
X128561563Y-81821166D01*
X128567227Y-81798557D01*
X128575079Y-81776613D01*
X128585044Y-81755543D01*
X128597026Y-81735552D01*
X128610910Y-81716832D01*
X128626562Y-81699562D01*
X128643832Y-81683910D01*
X128662552Y-81670026D01*
X128682543Y-81658044D01*
X128703613Y-81648079D01*
X128725557Y-81640227D01*
X128748166Y-81634563D01*
X128771221Y-81631144D01*
X128794500Y-81630000D01*
X129269500Y-81630000D01*
X129292779Y-81631144D01*
X129292779Y-81631144D01*
G37*
D13*
X129032000Y-82155000D03*
D12*
G36*
X98100779Y-76996144D02*
G01*
X98123834Y-76999563D01*
X98146443Y-77005227D01*
X98168387Y-77013079D01*
X98189457Y-77023044D01*
X98209448Y-77035026D01*
X98228168Y-77048910D01*
X98245438Y-77064562D01*
X98261090Y-77081832D01*
X98274974Y-77100552D01*
X98286956Y-77120543D01*
X98296921Y-77141613D01*
X98304773Y-77163557D01*
X98310437Y-77186166D01*
X98313856Y-77209221D01*
X98315000Y-77232500D01*
X98315000Y-77707500D01*
X98313856Y-77730779D01*
X98310437Y-77753834D01*
X98304773Y-77776443D01*
X98296921Y-77798387D01*
X98286956Y-77819457D01*
X98274974Y-77839448D01*
X98261090Y-77858168D01*
X98245438Y-77875438D01*
X98228168Y-77891090D01*
X98209448Y-77904974D01*
X98189457Y-77916956D01*
X98168387Y-77926921D01*
X98146443Y-77934773D01*
X98123834Y-77940437D01*
X98100779Y-77943856D01*
X98077500Y-77945000D01*
X97502500Y-77945000D01*
X97479221Y-77943856D01*
X97456166Y-77940437D01*
X97433557Y-77934773D01*
X97411613Y-77926921D01*
X97390543Y-77916956D01*
X97370552Y-77904974D01*
X97351832Y-77891090D01*
X97334562Y-77875438D01*
X97318910Y-77858168D01*
X97305026Y-77839448D01*
X97293044Y-77819457D01*
X97283079Y-77798387D01*
X97275227Y-77776443D01*
X97269563Y-77753834D01*
X97266144Y-77730779D01*
X97265000Y-77707500D01*
X97265000Y-77232500D01*
X97266144Y-77209221D01*
X97269563Y-77186166D01*
X97275227Y-77163557D01*
X97283079Y-77141613D01*
X97293044Y-77120543D01*
X97305026Y-77100552D01*
X97318910Y-77081832D01*
X97334562Y-77064562D01*
X97351832Y-77048910D01*
X97370552Y-77035026D01*
X97390543Y-77023044D01*
X97411613Y-77013079D01*
X97433557Y-77005227D01*
X97456166Y-76999563D01*
X97479221Y-76996144D01*
X97502500Y-76995000D01*
X98077500Y-76995000D01*
X98100779Y-76996144D01*
X98100779Y-76996144D01*
G37*
D13*
X97790000Y-77470000D03*
D12*
G36*
X96350779Y-76996144D02*
G01*
X96373834Y-76999563D01*
X96396443Y-77005227D01*
X96418387Y-77013079D01*
X96439457Y-77023044D01*
X96459448Y-77035026D01*
X96478168Y-77048910D01*
X96495438Y-77064562D01*
X96511090Y-77081832D01*
X96524974Y-77100552D01*
X96536956Y-77120543D01*
X96546921Y-77141613D01*
X96554773Y-77163557D01*
X96560437Y-77186166D01*
X96563856Y-77209221D01*
X96565000Y-77232500D01*
X96565000Y-77707500D01*
X96563856Y-77730779D01*
X96560437Y-77753834D01*
X96554773Y-77776443D01*
X96546921Y-77798387D01*
X96536956Y-77819457D01*
X96524974Y-77839448D01*
X96511090Y-77858168D01*
X96495438Y-77875438D01*
X96478168Y-77891090D01*
X96459448Y-77904974D01*
X96439457Y-77916956D01*
X96418387Y-77926921D01*
X96396443Y-77934773D01*
X96373834Y-77940437D01*
X96350779Y-77943856D01*
X96327500Y-77945000D01*
X95752500Y-77945000D01*
X95729221Y-77943856D01*
X95706166Y-77940437D01*
X95683557Y-77934773D01*
X95661613Y-77926921D01*
X95640543Y-77916956D01*
X95620552Y-77904974D01*
X95601832Y-77891090D01*
X95584562Y-77875438D01*
X95568910Y-77858168D01*
X95555026Y-77839448D01*
X95543044Y-77819457D01*
X95533079Y-77798387D01*
X95525227Y-77776443D01*
X95519563Y-77753834D01*
X95516144Y-77730779D01*
X95515000Y-77707500D01*
X95515000Y-77232500D01*
X95516144Y-77209221D01*
X95519563Y-77186166D01*
X95525227Y-77163557D01*
X95533079Y-77141613D01*
X95543044Y-77120543D01*
X95555026Y-77100552D01*
X95568910Y-77081832D01*
X95584562Y-77064562D01*
X95601832Y-77048910D01*
X95620552Y-77035026D01*
X95640543Y-77023044D01*
X95661613Y-77013079D01*
X95683557Y-77005227D01*
X95706166Y-76999563D01*
X95729221Y-76996144D01*
X95752500Y-76995000D01*
X96327500Y-76995000D01*
X96350779Y-76996144D01*
X96350779Y-76996144D01*
G37*
D13*
X96040000Y-77470000D03*
D12*
G36*
X98072779Y-84616144D02*
G01*
X98095834Y-84619563D01*
X98118443Y-84625227D01*
X98140387Y-84633079D01*
X98161457Y-84643044D01*
X98181448Y-84655026D01*
X98200168Y-84668910D01*
X98217438Y-84684562D01*
X98233090Y-84701832D01*
X98246974Y-84720552D01*
X98258956Y-84740543D01*
X98268921Y-84761613D01*
X98276773Y-84783557D01*
X98282437Y-84806166D01*
X98285856Y-84829221D01*
X98287000Y-84852500D01*
X98287000Y-85327500D01*
X98285856Y-85350779D01*
X98282437Y-85373834D01*
X98276773Y-85396443D01*
X98268921Y-85418387D01*
X98258956Y-85439457D01*
X98246974Y-85459448D01*
X98233090Y-85478168D01*
X98217438Y-85495438D01*
X98200168Y-85511090D01*
X98181448Y-85524974D01*
X98161457Y-85536956D01*
X98140387Y-85546921D01*
X98118443Y-85554773D01*
X98095834Y-85560437D01*
X98072779Y-85563856D01*
X98049500Y-85565000D01*
X97474500Y-85565000D01*
X97451221Y-85563856D01*
X97428166Y-85560437D01*
X97405557Y-85554773D01*
X97383613Y-85546921D01*
X97362543Y-85536956D01*
X97342552Y-85524974D01*
X97323832Y-85511090D01*
X97306562Y-85495438D01*
X97290910Y-85478168D01*
X97277026Y-85459448D01*
X97265044Y-85439457D01*
X97255079Y-85418387D01*
X97247227Y-85396443D01*
X97241563Y-85373834D01*
X97238144Y-85350779D01*
X97237000Y-85327500D01*
X97237000Y-84852500D01*
X97238144Y-84829221D01*
X97241563Y-84806166D01*
X97247227Y-84783557D01*
X97255079Y-84761613D01*
X97265044Y-84740543D01*
X97277026Y-84720552D01*
X97290910Y-84701832D01*
X97306562Y-84684562D01*
X97323832Y-84668910D01*
X97342552Y-84655026D01*
X97362543Y-84643044D01*
X97383613Y-84633079D01*
X97405557Y-84625227D01*
X97428166Y-84619563D01*
X97451221Y-84616144D01*
X97474500Y-84615000D01*
X98049500Y-84615000D01*
X98072779Y-84616144D01*
X98072779Y-84616144D01*
G37*
D13*
X97762000Y-85090000D03*
D12*
G36*
X96322779Y-84616144D02*
G01*
X96345834Y-84619563D01*
X96368443Y-84625227D01*
X96390387Y-84633079D01*
X96411457Y-84643044D01*
X96431448Y-84655026D01*
X96450168Y-84668910D01*
X96467438Y-84684562D01*
X96483090Y-84701832D01*
X96496974Y-84720552D01*
X96508956Y-84740543D01*
X96518921Y-84761613D01*
X96526773Y-84783557D01*
X96532437Y-84806166D01*
X96535856Y-84829221D01*
X96537000Y-84852500D01*
X96537000Y-85327500D01*
X96535856Y-85350779D01*
X96532437Y-85373834D01*
X96526773Y-85396443D01*
X96518921Y-85418387D01*
X96508956Y-85439457D01*
X96496974Y-85459448D01*
X96483090Y-85478168D01*
X96467438Y-85495438D01*
X96450168Y-85511090D01*
X96431448Y-85524974D01*
X96411457Y-85536956D01*
X96390387Y-85546921D01*
X96368443Y-85554773D01*
X96345834Y-85560437D01*
X96322779Y-85563856D01*
X96299500Y-85565000D01*
X95724500Y-85565000D01*
X95701221Y-85563856D01*
X95678166Y-85560437D01*
X95655557Y-85554773D01*
X95633613Y-85546921D01*
X95612543Y-85536956D01*
X95592552Y-85524974D01*
X95573832Y-85511090D01*
X95556562Y-85495438D01*
X95540910Y-85478168D01*
X95527026Y-85459448D01*
X95515044Y-85439457D01*
X95505079Y-85418387D01*
X95497227Y-85396443D01*
X95491563Y-85373834D01*
X95488144Y-85350779D01*
X95487000Y-85327500D01*
X95487000Y-84852500D01*
X95488144Y-84829221D01*
X95491563Y-84806166D01*
X95497227Y-84783557D01*
X95505079Y-84761613D01*
X95515044Y-84740543D01*
X95527026Y-84720552D01*
X95540910Y-84701832D01*
X95556562Y-84684562D01*
X95573832Y-84668910D01*
X95592552Y-84655026D01*
X95612543Y-84643044D01*
X95633613Y-84633079D01*
X95655557Y-84625227D01*
X95678166Y-84619563D01*
X95701221Y-84616144D01*
X95724500Y-84615000D01*
X96299500Y-84615000D01*
X96322779Y-84616144D01*
X96322779Y-84616144D01*
G37*
D13*
X96012000Y-85090000D03*
D12*
G36*
X126040779Y-76996144D02*
G01*
X126063834Y-76999563D01*
X126086443Y-77005227D01*
X126108387Y-77013079D01*
X126129457Y-77023044D01*
X126149448Y-77035026D01*
X126168168Y-77048910D01*
X126185438Y-77064562D01*
X126201090Y-77081832D01*
X126214974Y-77100552D01*
X126226956Y-77120543D01*
X126236921Y-77141613D01*
X126244773Y-77163557D01*
X126250437Y-77186166D01*
X126253856Y-77209221D01*
X126255000Y-77232500D01*
X126255000Y-77707500D01*
X126253856Y-77730779D01*
X126250437Y-77753834D01*
X126244773Y-77776443D01*
X126236921Y-77798387D01*
X126226956Y-77819457D01*
X126214974Y-77839448D01*
X126201090Y-77858168D01*
X126185438Y-77875438D01*
X126168168Y-77891090D01*
X126149448Y-77904974D01*
X126129457Y-77916956D01*
X126108387Y-77926921D01*
X126086443Y-77934773D01*
X126063834Y-77940437D01*
X126040779Y-77943856D01*
X126017500Y-77945000D01*
X125442500Y-77945000D01*
X125419221Y-77943856D01*
X125396166Y-77940437D01*
X125373557Y-77934773D01*
X125351613Y-77926921D01*
X125330543Y-77916956D01*
X125310552Y-77904974D01*
X125291832Y-77891090D01*
X125274562Y-77875438D01*
X125258910Y-77858168D01*
X125245026Y-77839448D01*
X125233044Y-77819457D01*
X125223079Y-77798387D01*
X125215227Y-77776443D01*
X125209563Y-77753834D01*
X125206144Y-77730779D01*
X125205000Y-77707500D01*
X125205000Y-77232500D01*
X125206144Y-77209221D01*
X125209563Y-77186166D01*
X125215227Y-77163557D01*
X125223079Y-77141613D01*
X125233044Y-77120543D01*
X125245026Y-77100552D01*
X125258910Y-77081832D01*
X125274562Y-77064562D01*
X125291832Y-77048910D01*
X125310552Y-77035026D01*
X125330543Y-77023044D01*
X125351613Y-77013079D01*
X125373557Y-77005227D01*
X125396166Y-76999563D01*
X125419221Y-76996144D01*
X125442500Y-76995000D01*
X126017500Y-76995000D01*
X126040779Y-76996144D01*
X126040779Y-76996144D01*
G37*
D13*
X125730000Y-77470000D03*
D12*
G36*
X124290779Y-76996144D02*
G01*
X124313834Y-76999563D01*
X124336443Y-77005227D01*
X124358387Y-77013079D01*
X124379457Y-77023044D01*
X124399448Y-77035026D01*
X124418168Y-77048910D01*
X124435438Y-77064562D01*
X124451090Y-77081832D01*
X124464974Y-77100552D01*
X124476956Y-77120543D01*
X124486921Y-77141613D01*
X124494773Y-77163557D01*
X124500437Y-77186166D01*
X124503856Y-77209221D01*
X124505000Y-77232500D01*
X124505000Y-77707500D01*
X124503856Y-77730779D01*
X124500437Y-77753834D01*
X124494773Y-77776443D01*
X124486921Y-77798387D01*
X124476956Y-77819457D01*
X124464974Y-77839448D01*
X124451090Y-77858168D01*
X124435438Y-77875438D01*
X124418168Y-77891090D01*
X124399448Y-77904974D01*
X124379457Y-77916956D01*
X124358387Y-77926921D01*
X124336443Y-77934773D01*
X124313834Y-77940437D01*
X124290779Y-77943856D01*
X124267500Y-77945000D01*
X123692500Y-77945000D01*
X123669221Y-77943856D01*
X123646166Y-77940437D01*
X123623557Y-77934773D01*
X123601613Y-77926921D01*
X123580543Y-77916956D01*
X123560552Y-77904974D01*
X123541832Y-77891090D01*
X123524562Y-77875438D01*
X123508910Y-77858168D01*
X123495026Y-77839448D01*
X123483044Y-77819457D01*
X123473079Y-77798387D01*
X123465227Y-77776443D01*
X123459563Y-77753834D01*
X123456144Y-77730779D01*
X123455000Y-77707500D01*
X123455000Y-77232500D01*
X123456144Y-77209221D01*
X123459563Y-77186166D01*
X123465227Y-77163557D01*
X123473079Y-77141613D01*
X123483044Y-77120543D01*
X123495026Y-77100552D01*
X123508910Y-77081832D01*
X123524562Y-77064562D01*
X123541832Y-77048910D01*
X123560552Y-77035026D01*
X123580543Y-77023044D01*
X123601613Y-77013079D01*
X123623557Y-77005227D01*
X123646166Y-76999563D01*
X123669221Y-76996144D01*
X123692500Y-76995000D01*
X124267500Y-76995000D01*
X124290779Y-76996144D01*
X124290779Y-76996144D01*
G37*
D13*
X123980000Y-77470000D03*
D12*
G36*
X126040779Y-84616144D02*
G01*
X126063834Y-84619563D01*
X126086443Y-84625227D01*
X126108387Y-84633079D01*
X126129457Y-84643044D01*
X126149448Y-84655026D01*
X126168168Y-84668910D01*
X126185438Y-84684562D01*
X126201090Y-84701832D01*
X126214974Y-84720552D01*
X126226956Y-84740543D01*
X126236921Y-84761613D01*
X126244773Y-84783557D01*
X126250437Y-84806166D01*
X126253856Y-84829221D01*
X126255000Y-84852500D01*
X126255000Y-85327500D01*
X126253856Y-85350779D01*
X126250437Y-85373834D01*
X126244773Y-85396443D01*
X126236921Y-85418387D01*
X126226956Y-85439457D01*
X126214974Y-85459448D01*
X126201090Y-85478168D01*
X126185438Y-85495438D01*
X126168168Y-85511090D01*
X126149448Y-85524974D01*
X126129457Y-85536956D01*
X126108387Y-85546921D01*
X126086443Y-85554773D01*
X126063834Y-85560437D01*
X126040779Y-85563856D01*
X126017500Y-85565000D01*
X125442500Y-85565000D01*
X125419221Y-85563856D01*
X125396166Y-85560437D01*
X125373557Y-85554773D01*
X125351613Y-85546921D01*
X125330543Y-85536956D01*
X125310552Y-85524974D01*
X125291832Y-85511090D01*
X125274562Y-85495438D01*
X125258910Y-85478168D01*
X125245026Y-85459448D01*
X125233044Y-85439457D01*
X125223079Y-85418387D01*
X125215227Y-85396443D01*
X125209563Y-85373834D01*
X125206144Y-85350779D01*
X125205000Y-85327500D01*
X125205000Y-84852500D01*
X125206144Y-84829221D01*
X125209563Y-84806166D01*
X125215227Y-84783557D01*
X125223079Y-84761613D01*
X125233044Y-84740543D01*
X125245026Y-84720552D01*
X125258910Y-84701832D01*
X125274562Y-84684562D01*
X125291832Y-84668910D01*
X125310552Y-84655026D01*
X125330543Y-84643044D01*
X125351613Y-84633079D01*
X125373557Y-84625227D01*
X125396166Y-84619563D01*
X125419221Y-84616144D01*
X125442500Y-84615000D01*
X126017500Y-84615000D01*
X126040779Y-84616144D01*
X126040779Y-84616144D01*
G37*
D13*
X125730000Y-85090000D03*
D12*
G36*
X124290779Y-84616144D02*
G01*
X124313834Y-84619563D01*
X124336443Y-84625227D01*
X124358387Y-84633079D01*
X124379457Y-84643044D01*
X124399448Y-84655026D01*
X124418168Y-84668910D01*
X124435438Y-84684562D01*
X124451090Y-84701832D01*
X124464974Y-84720552D01*
X124476956Y-84740543D01*
X124486921Y-84761613D01*
X124494773Y-84783557D01*
X124500437Y-84806166D01*
X124503856Y-84829221D01*
X124505000Y-84852500D01*
X124505000Y-85327500D01*
X124503856Y-85350779D01*
X124500437Y-85373834D01*
X124494773Y-85396443D01*
X124486921Y-85418387D01*
X124476956Y-85439457D01*
X124464974Y-85459448D01*
X124451090Y-85478168D01*
X124435438Y-85495438D01*
X124418168Y-85511090D01*
X124399448Y-85524974D01*
X124379457Y-85536956D01*
X124358387Y-85546921D01*
X124336443Y-85554773D01*
X124313834Y-85560437D01*
X124290779Y-85563856D01*
X124267500Y-85565000D01*
X123692500Y-85565000D01*
X123669221Y-85563856D01*
X123646166Y-85560437D01*
X123623557Y-85554773D01*
X123601613Y-85546921D01*
X123580543Y-85536956D01*
X123560552Y-85524974D01*
X123541832Y-85511090D01*
X123524562Y-85495438D01*
X123508910Y-85478168D01*
X123495026Y-85459448D01*
X123483044Y-85439457D01*
X123473079Y-85418387D01*
X123465227Y-85396443D01*
X123459563Y-85373834D01*
X123456144Y-85350779D01*
X123455000Y-85327500D01*
X123455000Y-84852500D01*
X123456144Y-84829221D01*
X123459563Y-84806166D01*
X123465227Y-84783557D01*
X123473079Y-84761613D01*
X123483044Y-84740543D01*
X123495026Y-84720552D01*
X123508910Y-84701832D01*
X123524562Y-84684562D01*
X123541832Y-84668910D01*
X123560552Y-84655026D01*
X123580543Y-84643044D01*
X123601613Y-84633079D01*
X123623557Y-84625227D01*
X123646166Y-84619563D01*
X123669221Y-84616144D01*
X123692500Y-84615000D01*
X124267500Y-84615000D01*
X124290779Y-84616144D01*
X124290779Y-84616144D01*
G37*
D13*
X123980000Y-85090000D03*
D12*
G36*
X134817779Y-70138144D02*
G01*
X134840834Y-70141563D01*
X134863443Y-70147227D01*
X134885387Y-70155079D01*
X134906457Y-70165044D01*
X134926448Y-70177026D01*
X134945168Y-70190910D01*
X134962438Y-70206562D01*
X134978090Y-70223832D01*
X134991974Y-70242552D01*
X135003956Y-70262543D01*
X135013921Y-70283613D01*
X135021773Y-70305557D01*
X135027437Y-70328166D01*
X135030856Y-70351221D01*
X135032000Y-70374500D01*
X135032000Y-70849500D01*
X135030856Y-70872779D01*
X135027437Y-70895834D01*
X135021773Y-70918443D01*
X135013921Y-70940387D01*
X135003956Y-70961457D01*
X134991974Y-70981448D01*
X134978090Y-71000168D01*
X134962438Y-71017438D01*
X134945168Y-71033090D01*
X134926448Y-71046974D01*
X134906457Y-71058956D01*
X134885387Y-71068921D01*
X134863443Y-71076773D01*
X134840834Y-71082437D01*
X134817779Y-71085856D01*
X134794500Y-71087000D01*
X134219500Y-71087000D01*
X134196221Y-71085856D01*
X134173166Y-71082437D01*
X134150557Y-71076773D01*
X134128613Y-71068921D01*
X134107543Y-71058956D01*
X134087552Y-71046974D01*
X134068832Y-71033090D01*
X134051562Y-71017438D01*
X134035910Y-71000168D01*
X134022026Y-70981448D01*
X134010044Y-70961457D01*
X134000079Y-70940387D01*
X133992227Y-70918443D01*
X133986563Y-70895834D01*
X133983144Y-70872779D01*
X133982000Y-70849500D01*
X133982000Y-70374500D01*
X133983144Y-70351221D01*
X133986563Y-70328166D01*
X133992227Y-70305557D01*
X134000079Y-70283613D01*
X134010044Y-70262543D01*
X134022026Y-70242552D01*
X134035910Y-70223832D01*
X134051562Y-70206562D01*
X134068832Y-70190910D01*
X134087552Y-70177026D01*
X134107543Y-70165044D01*
X134128613Y-70155079D01*
X134150557Y-70147227D01*
X134173166Y-70141563D01*
X134196221Y-70138144D01*
X134219500Y-70137000D01*
X134794500Y-70137000D01*
X134817779Y-70138144D01*
X134817779Y-70138144D01*
G37*
D13*
X134507000Y-70612000D03*
D12*
G36*
X136567779Y-70138144D02*
G01*
X136590834Y-70141563D01*
X136613443Y-70147227D01*
X136635387Y-70155079D01*
X136656457Y-70165044D01*
X136676448Y-70177026D01*
X136695168Y-70190910D01*
X136712438Y-70206562D01*
X136728090Y-70223832D01*
X136741974Y-70242552D01*
X136753956Y-70262543D01*
X136763921Y-70283613D01*
X136771773Y-70305557D01*
X136777437Y-70328166D01*
X136780856Y-70351221D01*
X136782000Y-70374500D01*
X136782000Y-70849500D01*
X136780856Y-70872779D01*
X136777437Y-70895834D01*
X136771773Y-70918443D01*
X136763921Y-70940387D01*
X136753956Y-70961457D01*
X136741974Y-70981448D01*
X136728090Y-71000168D01*
X136712438Y-71017438D01*
X136695168Y-71033090D01*
X136676448Y-71046974D01*
X136656457Y-71058956D01*
X136635387Y-71068921D01*
X136613443Y-71076773D01*
X136590834Y-71082437D01*
X136567779Y-71085856D01*
X136544500Y-71087000D01*
X135969500Y-71087000D01*
X135946221Y-71085856D01*
X135923166Y-71082437D01*
X135900557Y-71076773D01*
X135878613Y-71068921D01*
X135857543Y-71058956D01*
X135837552Y-71046974D01*
X135818832Y-71033090D01*
X135801562Y-71017438D01*
X135785910Y-71000168D01*
X135772026Y-70981448D01*
X135760044Y-70961457D01*
X135750079Y-70940387D01*
X135742227Y-70918443D01*
X135736563Y-70895834D01*
X135733144Y-70872779D01*
X135732000Y-70849500D01*
X135732000Y-70374500D01*
X135733144Y-70351221D01*
X135736563Y-70328166D01*
X135742227Y-70305557D01*
X135750079Y-70283613D01*
X135760044Y-70262543D01*
X135772026Y-70242552D01*
X135785910Y-70223832D01*
X135801562Y-70206562D01*
X135818832Y-70190910D01*
X135837552Y-70177026D01*
X135857543Y-70165044D01*
X135878613Y-70155079D01*
X135900557Y-70147227D01*
X135923166Y-70141563D01*
X135946221Y-70138144D01*
X135969500Y-70137000D01*
X136544500Y-70137000D01*
X136567779Y-70138144D01*
X136567779Y-70138144D01*
G37*
D13*
X136257000Y-70612000D03*
D12*
G36*
X134817779Y-85378144D02*
G01*
X134840834Y-85381563D01*
X134863443Y-85387227D01*
X134885387Y-85395079D01*
X134906457Y-85405044D01*
X134926448Y-85417026D01*
X134945168Y-85430910D01*
X134962438Y-85446562D01*
X134978090Y-85463832D01*
X134991974Y-85482552D01*
X135003956Y-85502543D01*
X135013921Y-85523613D01*
X135021773Y-85545557D01*
X135027437Y-85568166D01*
X135030856Y-85591221D01*
X135032000Y-85614500D01*
X135032000Y-86089500D01*
X135030856Y-86112779D01*
X135027437Y-86135834D01*
X135021773Y-86158443D01*
X135013921Y-86180387D01*
X135003956Y-86201457D01*
X134991974Y-86221448D01*
X134978090Y-86240168D01*
X134962438Y-86257438D01*
X134945168Y-86273090D01*
X134926448Y-86286974D01*
X134906457Y-86298956D01*
X134885387Y-86308921D01*
X134863443Y-86316773D01*
X134840834Y-86322437D01*
X134817779Y-86325856D01*
X134794500Y-86327000D01*
X134219500Y-86327000D01*
X134196221Y-86325856D01*
X134173166Y-86322437D01*
X134150557Y-86316773D01*
X134128613Y-86308921D01*
X134107543Y-86298956D01*
X134087552Y-86286974D01*
X134068832Y-86273090D01*
X134051562Y-86257438D01*
X134035910Y-86240168D01*
X134022026Y-86221448D01*
X134010044Y-86201457D01*
X134000079Y-86180387D01*
X133992227Y-86158443D01*
X133986563Y-86135834D01*
X133983144Y-86112779D01*
X133982000Y-86089500D01*
X133982000Y-85614500D01*
X133983144Y-85591221D01*
X133986563Y-85568166D01*
X133992227Y-85545557D01*
X134000079Y-85523613D01*
X134010044Y-85502543D01*
X134022026Y-85482552D01*
X134035910Y-85463832D01*
X134051562Y-85446562D01*
X134068832Y-85430910D01*
X134087552Y-85417026D01*
X134107543Y-85405044D01*
X134128613Y-85395079D01*
X134150557Y-85387227D01*
X134173166Y-85381563D01*
X134196221Y-85378144D01*
X134219500Y-85377000D01*
X134794500Y-85377000D01*
X134817779Y-85378144D01*
X134817779Y-85378144D01*
G37*
D13*
X134507000Y-85852000D03*
D12*
G36*
X136567779Y-85378144D02*
G01*
X136590834Y-85381563D01*
X136613443Y-85387227D01*
X136635387Y-85395079D01*
X136656457Y-85405044D01*
X136676448Y-85417026D01*
X136695168Y-85430910D01*
X136712438Y-85446562D01*
X136728090Y-85463832D01*
X136741974Y-85482552D01*
X136753956Y-85502543D01*
X136763921Y-85523613D01*
X136771773Y-85545557D01*
X136777437Y-85568166D01*
X136780856Y-85591221D01*
X136782000Y-85614500D01*
X136782000Y-86089500D01*
X136780856Y-86112779D01*
X136777437Y-86135834D01*
X136771773Y-86158443D01*
X136763921Y-86180387D01*
X136753956Y-86201457D01*
X136741974Y-86221448D01*
X136728090Y-86240168D01*
X136712438Y-86257438D01*
X136695168Y-86273090D01*
X136676448Y-86286974D01*
X136656457Y-86298956D01*
X136635387Y-86308921D01*
X136613443Y-86316773D01*
X136590834Y-86322437D01*
X136567779Y-86325856D01*
X136544500Y-86327000D01*
X135969500Y-86327000D01*
X135946221Y-86325856D01*
X135923166Y-86322437D01*
X135900557Y-86316773D01*
X135878613Y-86308921D01*
X135857543Y-86298956D01*
X135837552Y-86286974D01*
X135818832Y-86273090D01*
X135801562Y-86257438D01*
X135785910Y-86240168D01*
X135772026Y-86221448D01*
X135760044Y-86201457D01*
X135750079Y-86180387D01*
X135742227Y-86158443D01*
X135736563Y-86135834D01*
X135733144Y-86112779D01*
X135732000Y-86089500D01*
X135732000Y-85614500D01*
X135733144Y-85591221D01*
X135736563Y-85568166D01*
X135742227Y-85545557D01*
X135750079Y-85523613D01*
X135760044Y-85502543D01*
X135772026Y-85482552D01*
X135785910Y-85463832D01*
X135801562Y-85446562D01*
X135818832Y-85430910D01*
X135837552Y-85417026D01*
X135857543Y-85405044D01*
X135878613Y-85395079D01*
X135900557Y-85387227D01*
X135923166Y-85381563D01*
X135946221Y-85378144D01*
X135969500Y-85377000D01*
X136544500Y-85377000D01*
X136567779Y-85378144D01*
X136567779Y-85378144D01*
G37*
D13*
X136257000Y-85852000D03*
D12*
G36*
X134817779Y-61502144D02*
G01*
X134840834Y-61505563D01*
X134863443Y-61511227D01*
X134885387Y-61519079D01*
X134906457Y-61529044D01*
X134926448Y-61541026D01*
X134945168Y-61554910D01*
X134962438Y-61570562D01*
X134978090Y-61587832D01*
X134991974Y-61606552D01*
X135003956Y-61626543D01*
X135013921Y-61647613D01*
X135021773Y-61669557D01*
X135027437Y-61692166D01*
X135030856Y-61715221D01*
X135032000Y-61738500D01*
X135032000Y-62213500D01*
X135030856Y-62236779D01*
X135027437Y-62259834D01*
X135021773Y-62282443D01*
X135013921Y-62304387D01*
X135003956Y-62325457D01*
X134991974Y-62345448D01*
X134978090Y-62364168D01*
X134962438Y-62381438D01*
X134945168Y-62397090D01*
X134926448Y-62410974D01*
X134906457Y-62422956D01*
X134885387Y-62432921D01*
X134863443Y-62440773D01*
X134840834Y-62446437D01*
X134817779Y-62449856D01*
X134794500Y-62451000D01*
X134219500Y-62451000D01*
X134196221Y-62449856D01*
X134173166Y-62446437D01*
X134150557Y-62440773D01*
X134128613Y-62432921D01*
X134107543Y-62422956D01*
X134087552Y-62410974D01*
X134068832Y-62397090D01*
X134051562Y-62381438D01*
X134035910Y-62364168D01*
X134022026Y-62345448D01*
X134010044Y-62325457D01*
X134000079Y-62304387D01*
X133992227Y-62282443D01*
X133986563Y-62259834D01*
X133983144Y-62236779D01*
X133982000Y-62213500D01*
X133982000Y-61738500D01*
X133983144Y-61715221D01*
X133986563Y-61692166D01*
X133992227Y-61669557D01*
X134000079Y-61647613D01*
X134010044Y-61626543D01*
X134022026Y-61606552D01*
X134035910Y-61587832D01*
X134051562Y-61570562D01*
X134068832Y-61554910D01*
X134087552Y-61541026D01*
X134107543Y-61529044D01*
X134128613Y-61519079D01*
X134150557Y-61511227D01*
X134173166Y-61505563D01*
X134196221Y-61502144D01*
X134219500Y-61501000D01*
X134794500Y-61501000D01*
X134817779Y-61502144D01*
X134817779Y-61502144D01*
G37*
D13*
X134507000Y-61976000D03*
D12*
G36*
X136567779Y-61502144D02*
G01*
X136590834Y-61505563D01*
X136613443Y-61511227D01*
X136635387Y-61519079D01*
X136656457Y-61529044D01*
X136676448Y-61541026D01*
X136695168Y-61554910D01*
X136712438Y-61570562D01*
X136728090Y-61587832D01*
X136741974Y-61606552D01*
X136753956Y-61626543D01*
X136763921Y-61647613D01*
X136771773Y-61669557D01*
X136777437Y-61692166D01*
X136780856Y-61715221D01*
X136782000Y-61738500D01*
X136782000Y-62213500D01*
X136780856Y-62236779D01*
X136777437Y-62259834D01*
X136771773Y-62282443D01*
X136763921Y-62304387D01*
X136753956Y-62325457D01*
X136741974Y-62345448D01*
X136728090Y-62364168D01*
X136712438Y-62381438D01*
X136695168Y-62397090D01*
X136676448Y-62410974D01*
X136656457Y-62422956D01*
X136635387Y-62432921D01*
X136613443Y-62440773D01*
X136590834Y-62446437D01*
X136567779Y-62449856D01*
X136544500Y-62451000D01*
X135969500Y-62451000D01*
X135946221Y-62449856D01*
X135923166Y-62446437D01*
X135900557Y-62440773D01*
X135878613Y-62432921D01*
X135857543Y-62422956D01*
X135837552Y-62410974D01*
X135818832Y-62397090D01*
X135801562Y-62381438D01*
X135785910Y-62364168D01*
X135772026Y-62345448D01*
X135760044Y-62325457D01*
X135750079Y-62304387D01*
X135742227Y-62282443D01*
X135736563Y-62259834D01*
X135733144Y-62236779D01*
X135732000Y-62213500D01*
X135732000Y-61738500D01*
X135733144Y-61715221D01*
X135736563Y-61692166D01*
X135742227Y-61669557D01*
X135750079Y-61647613D01*
X135760044Y-61626543D01*
X135772026Y-61606552D01*
X135785910Y-61587832D01*
X135801562Y-61570562D01*
X135818832Y-61554910D01*
X135837552Y-61541026D01*
X135857543Y-61529044D01*
X135878613Y-61519079D01*
X135900557Y-61511227D01*
X135923166Y-61505563D01*
X135946221Y-61502144D01*
X135969500Y-61501000D01*
X136544500Y-61501000D01*
X136567779Y-61502144D01*
X136567779Y-61502144D01*
G37*
D13*
X136257000Y-61976000D03*
D12*
G36*
X134817779Y-76742144D02*
G01*
X134840834Y-76745563D01*
X134863443Y-76751227D01*
X134885387Y-76759079D01*
X134906457Y-76769044D01*
X134926448Y-76781026D01*
X134945168Y-76794910D01*
X134962438Y-76810562D01*
X134978090Y-76827832D01*
X134991974Y-76846552D01*
X135003956Y-76866543D01*
X135013921Y-76887613D01*
X135021773Y-76909557D01*
X135027437Y-76932166D01*
X135030856Y-76955221D01*
X135032000Y-76978500D01*
X135032000Y-77453500D01*
X135030856Y-77476779D01*
X135027437Y-77499834D01*
X135021773Y-77522443D01*
X135013921Y-77544387D01*
X135003956Y-77565457D01*
X134991974Y-77585448D01*
X134978090Y-77604168D01*
X134962438Y-77621438D01*
X134945168Y-77637090D01*
X134926448Y-77650974D01*
X134906457Y-77662956D01*
X134885387Y-77672921D01*
X134863443Y-77680773D01*
X134840834Y-77686437D01*
X134817779Y-77689856D01*
X134794500Y-77691000D01*
X134219500Y-77691000D01*
X134196221Y-77689856D01*
X134173166Y-77686437D01*
X134150557Y-77680773D01*
X134128613Y-77672921D01*
X134107543Y-77662956D01*
X134087552Y-77650974D01*
X134068832Y-77637090D01*
X134051562Y-77621438D01*
X134035910Y-77604168D01*
X134022026Y-77585448D01*
X134010044Y-77565457D01*
X134000079Y-77544387D01*
X133992227Y-77522443D01*
X133986563Y-77499834D01*
X133983144Y-77476779D01*
X133982000Y-77453500D01*
X133982000Y-76978500D01*
X133983144Y-76955221D01*
X133986563Y-76932166D01*
X133992227Y-76909557D01*
X134000079Y-76887613D01*
X134010044Y-76866543D01*
X134022026Y-76846552D01*
X134035910Y-76827832D01*
X134051562Y-76810562D01*
X134068832Y-76794910D01*
X134087552Y-76781026D01*
X134107543Y-76769044D01*
X134128613Y-76759079D01*
X134150557Y-76751227D01*
X134173166Y-76745563D01*
X134196221Y-76742144D01*
X134219500Y-76741000D01*
X134794500Y-76741000D01*
X134817779Y-76742144D01*
X134817779Y-76742144D01*
G37*
D13*
X134507000Y-77216000D03*
D12*
G36*
X136567779Y-76742144D02*
G01*
X136590834Y-76745563D01*
X136613443Y-76751227D01*
X136635387Y-76759079D01*
X136656457Y-76769044D01*
X136676448Y-76781026D01*
X136695168Y-76794910D01*
X136712438Y-76810562D01*
X136728090Y-76827832D01*
X136741974Y-76846552D01*
X136753956Y-76866543D01*
X136763921Y-76887613D01*
X136771773Y-76909557D01*
X136777437Y-76932166D01*
X136780856Y-76955221D01*
X136782000Y-76978500D01*
X136782000Y-77453500D01*
X136780856Y-77476779D01*
X136777437Y-77499834D01*
X136771773Y-77522443D01*
X136763921Y-77544387D01*
X136753956Y-77565457D01*
X136741974Y-77585448D01*
X136728090Y-77604168D01*
X136712438Y-77621438D01*
X136695168Y-77637090D01*
X136676448Y-77650974D01*
X136656457Y-77662956D01*
X136635387Y-77672921D01*
X136613443Y-77680773D01*
X136590834Y-77686437D01*
X136567779Y-77689856D01*
X136544500Y-77691000D01*
X135969500Y-77691000D01*
X135946221Y-77689856D01*
X135923166Y-77686437D01*
X135900557Y-77680773D01*
X135878613Y-77672921D01*
X135857543Y-77662956D01*
X135837552Y-77650974D01*
X135818832Y-77637090D01*
X135801562Y-77621438D01*
X135785910Y-77604168D01*
X135772026Y-77585448D01*
X135760044Y-77565457D01*
X135750079Y-77544387D01*
X135742227Y-77522443D01*
X135736563Y-77499834D01*
X135733144Y-77476779D01*
X135732000Y-77453500D01*
X135732000Y-76978500D01*
X135733144Y-76955221D01*
X135736563Y-76932166D01*
X135742227Y-76909557D01*
X135750079Y-76887613D01*
X135760044Y-76866543D01*
X135772026Y-76846552D01*
X135785910Y-76827832D01*
X135801562Y-76810562D01*
X135818832Y-76794910D01*
X135837552Y-76781026D01*
X135857543Y-76769044D01*
X135878613Y-76759079D01*
X135900557Y-76751227D01*
X135923166Y-76745563D01*
X135946221Y-76742144D01*
X135969500Y-76741000D01*
X136544500Y-76741000D01*
X136567779Y-76742144D01*
X136567779Y-76742144D01*
G37*
D13*
X136257000Y-77216000D03*
D12*
G36*
X129292779Y-64641144D02*
G01*
X129315834Y-64644563D01*
X129338443Y-64650227D01*
X129360387Y-64658079D01*
X129381457Y-64668044D01*
X129401448Y-64680026D01*
X129420168Y-64693910D01*
X129437438Y-64709562D01*
X129453090Y-64726832D01*
X129466974Y-64745552D01*
X129478956Y-64765543D01*
X129488921Y-64786613D01*
X129496773Y-64808557D01*
X129502437Y-64831166D01*
X129505856Y-64854221D01*
X129507000Y-64877500D01*
X129507000Y-65452500D01*
X129505856Y-65475779D01*
X129502437Y-65498834D01*
X129496773Y-65521443D01*
X129488921Y-65543387D01*
X129478956Y-65564457D01*
X129466974Y-65584448D01*
X129453090Y-65603168D01*
X129437438Y-65620438D01*
X129420168Y-65636090D01*
X129401448Y-65649974D01*
X129381457Y-65661956D01*
X129360387Y-65671921D01*
X129338443Y-65679773D01*
X129315834Y-65685437D01*
X129292779Y-65688856D01*
X129269500Y-65690000D01*
X128794500Y-65690000D01*
X128771221Y-65688856D01*
X128748166Y-65685437D01*
X128725557Y-65679773D01*
X128703613Y-65671921D01*
X128682543Y-65661956D01*
X128662552Y-65649974D01*
X128643832Y-65636090D01*
X128626562Y-65620438D01*
X128610910Y-65603168D01*
X128597026Y-65584448D01*
X128585044Y-65564457D01*
X128575079Y-65543387D01*
X128567227Y-65521443D01*
X128561563Y-65498834D01*
X128558144Y-65475779D01*
X128557000Y-65452500D01*
X128557000Y-64877500D01*
X128558144Y-64854221D01*
X128561563Y-64831166D01*
X128567227Y-64808557D01*
X128575079Y-64786613D01*
X128585044Y-64765543D01*
X128597026Y-64745552D01*
X128610910Y-64726832D01*
X128626562Y-64709562D01*
X128643832Y-64693910D01*
X128662552Y-64680026D01*
X128682543Y-64668044D01*
X128703613Y-64658079D01*
X128725557Y-64650227D01*
X128748166Y-64644563D01*
X128771221Y-64641144D01*
X128794500Y-64640000D01*
X129269500Y-64640000D01*
X129292779Y-64641144D01*
X129292779Y-64641144D01*
G37*
D13*
X129032000Y-65165000D03*
D12*
G36*
X129292779Y-66391144D02*
G01*
X129315834Y-66394563D01*
X129338443Y-66400227D01*
X129360387Y-66408079D01*
X129381457Y-66418044D01*
X129401448Y-66430026D01*
X129420168Y-66443910D01*
X129437438Y-66459562D01*
X129453090Y-66476832D01*
X129466974Y-66495552D01*
X129478956Y-66515543D01*
X129488921Y-66536613D01*
X129496773Y-66558557D01*
X129502437Y-66581166D01*
X129505856Y-66604221D01*
X129507000Y-66627500D01*
X129507000Y-67202500D01*
X129505856Y-67225779D01*
X129502437Y-67248834D01*
X129496773Y-67271443D01*
X129488921Y-67293387D01*
X129478956Y-67314457D01*
X129466974Y-67334448D01*
X129453090Y-67353168D01*
X129437438Y-67370438D01*
X129420168Y-67386090D01*
X129401448Y-67399974D01*
X129381457Y-67411956D01*
X129360387Y-67421921D01*
X129338443Y-67429773D01*
X129315834Y-67435437D01*
X129292779Y-67438856D01*
X129269500Y-67440000D01*
X128794500Y-67440000D01*
X128771221Y-67438856D01*
X128748166Y-67435437D01*
X128725557Y-67429773D01*
X128703613Y-67421921D01*
X128682543Y-67411956D01*
X128662552Y-67399974D01*
X128643832Y-67386090D01*
X128626562Y-67370438D01*
X128610910Y-67353168D01*
X128597026Y-67334448D01*
X128585044Y-67314457D01*
X128575079Y-67293387D01*
X128567227Y-67271443D01*
X128561563Y-67248834D01*
X128558144Y-67225779D01*
X128557000Y-67202500D01*
X128557000Y-66627500D01*
X128558144Y-66604221D01*
X128561563Y-66581166D01*
X128567227Y-66558557D01*
X128575079Y-66536613D01*
X128585044Y-66515543D01*
X128597026Y-66495552D01*
X128610910Y-66476832D01*
X128626562Y-66459562D01*
X128643832Y-66443910D01*
X128662552Y-66430026D01*
X128682543Y-66418044D01*
X128703613Y-66408079D01*
X128725557Y-66400227D01*
X128748166Y-66394563D01*
X128771221Y-66391144D01*
X128794500Y-66390000D01*
X129269500Y-66390000D01*
X129292779Y-66391144D01*
X129292779Y-66391144D01*
G37*
D13*
X129032000Y-66915000D03*
D12*
G36*
X101352779Y-64641144D02*
G01*
X101375834Y-64644563D01*
X101398443Y-64650227D01*
X101420387Y-64658079D01*
X101441457Y-64668044D01*
X101461448Y-64680026D01*
X101480168Y-64693910D01*
X101497438Y-64709562D01*
X101513090Y-64726832D01*
X101526974Y-64745552D01*
X101538956Y-64765543D01*
X101548921Y-64786613D01*
X101556773Y-64808557D01*
X101562437Y-64831166D01*
X101565856Y-64854221D01*
X101567000Y-64877500D01*
X101567000Y-65452500D01*
X101565856Y-65475779D01*
X101562437Y-65498834D01*
X101556773Y-65521443D01*
X101548921Y-65543387D01*
X101538956Y-65564457D01*
X101526974Y-65584448D01*
X101513090Y-65603168D01*
X101497438Y-65620438D01*
X101480168Y-65636090D01*
X101461448Y-65649974D01*
X101441457Y-65661956D01*
X101420387Y-65671921D01*
X101398443Y-65679773D01*
X101375834Y-65685437D01*
X101352779Y-65688856D01*
X101329500Y-65690000D01*
X100854500Y-65690000D01*
X100831221Y-65688856D01*
X100808166Y-65685437D01*
X100785557Y-65679773D01*
X100763613Y-65671921D01*
X100742543Y-65661956D01*
X100722552Y-65649974D01*
X100703832Y-65636090D01*
X100686562Y-65620438D01*
X100670910Y-65603168D01*
X100657026Y-65584448D01*
X100645044Y-65564457D01*
X100635079Y-65543387D01*
X100627227Y-65521443D01*
X100621563Y-65498834D01*
X100618144Y-65475779D01*
X100617000Y-65452500D01*
X100617000Y-64877500D01*
X100618144Y-64854221D01*
X100621563Y-64831166D01*
X100627227Y-64808557D01*
X100635079Y-64786613D01*
X100645044Y-64765543D01*
X100657026Y-64745552D01*
X100670910Y-64726832D01*
X100686562Y-64709562D01*
X100703832Y-64693910D01*
X100722552Y-64680026D01*
X100742543Y-64668044D01*
X100763613Y-64658079D01*
X100785557Y-64650227D01*
X100808166Y-64644563D01*
X100831221Y-64641144D01*
X100854500Y-64640000D01*
X101329500Y-64640000D01*
X101352779Y-64641144D01*
X101352779Y-64641144D01*
G37*
D13*
X101092000Y-65165000D03*
D12*
G36*
X101352779Y-66391144D02*
G01*
X101375834Y-66394563D01*
X101398443Y-66400227D01*
X101420387Y-66408079D01*
X101441457Y-66418044D01*
X101461448Y-66430026D01*
X101480168Y-66443910D01*
X101497438Y-66459562D01*
X101513090Y-66476832D01*
X101526974Y-66495552D01*
X101538956Y-66515543D01*
X101548921Y-66536613D01*
X101556773Y-66558557D01*
X101562437Y-66581166D01*
X101565856Y-66604221D01*
X101567000Y-66627500D01*
X101567000Y-67202500D01*
X101565856Y-67225779D01*
X101562437Y-67248834D01*
X101556773Y-67271443D01*
X101548921Y-67293387D01*
X101538956Y-67314457D01*
X101526974Y-67334448D01*
X101513090Y-67353168D01*
X101497438Y-67370438D01*
X101480168Y-67386090D01*
X101461448Y-67399974D01*
X101441457Y-67411956D01*
X101420387Y-67421921D01*
X101398443Y-67429773D01*
X101375834Y-67435437D01*
X101352779Y-67438856D01*
X101329500Y-67440000D01*
X100854500Y-67440000D01*
X100831221Y-67438856D01*
X100808166Y-67435437D01*
X100785557Y-67429773D01*
X100763613Y-67421921D01*
X100742543Y-67411956D01*
X100722552Y-67399974D01*
X100703832Y-67386090D01*
X100686562Y-67370438D01*
X100670910Y-67353168D01*
X100657026Y-67334448D01*
X100645044Y-67314457D01*
X100635079Y-67293387D01*
X100627227Y-67271443D01*
X100621563Y-67248834D01*
X100618144Y-67225779D01*
X100617000Y-67202500D01*
X100617000Y-66627500D01*
X100618144Y-66604221D01*
X100621563Y-66581166D01*
X100627227Y-66558557D01*
X100635079Y-66536613D01*
X100645044Y-66515543D01*
X100657026Y-66495552D01*
X100670910Y-66476832D01*
X100686562Y-66459562D01*
X100703832Y-66443910D01*
X100722552Y-66430026D01*
X100742543Y-66418044D01*
X100763613Y-66408079D01*
X100785557Y-66400227D01*
X100808166Y-66394563D01*
X100831221Y-66391144D01*
X100854500Y-66390000D01*
X101329500Y-66390000D01*
X101352779Y-66391144D01*
X101352779Y-66391144D01*
G37*
D13*
X101092000Y-66915000D03*
D12*
G36*
X126040779Y-61756144D02*
G01*
X126063834Y-61759563D01*
X126086443Y-61765227D01*
X126108387Y-61773079D01*
X126129457Y-61783044D01*
X126149448Y-61795026D01*
X126168168Y-61808910D01*
X126185438Y-61824562D01*
X126201090Y-61841832D01*
X126214974Y-61860552D01*
X126226956Y-61880543D01*
X126236921Y-61901613D01*
X126244773Y-61923557D01*
X126250437Y-61946166D01*
X126253856Y-61969221D01*
X126255000Y-61992500D01*
X126255000Y-62467500D01*
X126253856Y-62490779D01*
X126250437Y-62513834D01*
X126244773Y-62536443D01*
X126236921Y-62558387D01*
X126226956Y-62579457D01*
X126214974Y-62599448D01*
X126201090Y-62618168D01*
X126185438Y-62635438D01*
X126168168Y-62651090D01*
X126149448Y-62664974D01*
X126129457Y-62676956D01*
X126108387Y-62686921D01*
X126086443Y-62694773D01*
X126063834Y-62700437D01*
X126040779Y-62703856D01*
X126017500Y-62705000D01*
X125442500Y-62705000D01*
X125419221Y-62703856D01*
X125396166Y-62700437D01*
X125373557Y-62694773D01*
X125351613Y-62686921D01*
X125330543Y-62676956D01*
X125310552Y-62664974D01*
X125291832Y-62651090D01*
X125274562Y-62635438D01*
X125258910Y-62618168D01*
X125245026Y-62599448D01*
X125233044Y-62579457D01*
X125223079Y-62558387D01*
X125215227Y-62536443D01*
X125209563Y-62513834D01*
X125206144Y-62490779D01*
X125205000Y-62467500D01*
X125205000Y-61992500D01*
X125206144Y-61969221D01*
X125209563Y-61946166D01*
X125215227Y-61923557D01*
X125223079Y-61901613D01*
X125233044Y-61880543D01*
X125245026Y-61860552D01*
X125258910Y-61841832D01*
X125274562Y-61824562D01*
X125291832Y-61808910D01*
X125310552Y-61795026D01*
X125330543Y-61783044D01*
X125351613Y-61773079D01*
X125373557Y-61765227D01*
X125396166Y-61759563D01*
X125419221Y-61756144D01*
X125442500Y-61755000D01*
X126017500Y-61755000D01*
X126040779Y-61756144D01*
X126040779Y-61756144D01*
G37*
D13*
X125730000Y-62230000D03*
D12*
G36*
X124290779Y-61756144D02*
G01*
X124313834Y-61759563D01*
X124336443Y-61765227D01*
X124358387Y-61773079D01*
X124379457Y-61783044D01*
X124399448Y-61795026D01*
X124418168Y-61808910D01*
X124435438Y-61824562D01*
X124451090Y-61841832D01*
X124464974Y-61860552D01*
X124476956Y-61880543D01*
X124486921Y-61901613D01*
X124494773Y-61923557D01*
X124500437Y-61946166D01*
X124503856Y-61969221D01*
X124505000Y-61992500D01*
X124505000Y-62467500D01*
X124503856Y-62490779D01*
X124500437Y-62513834D01*
X124494773Y-62536443D01*
X124486921Y-62558387D01*
X124476956Y-62579457D01*
X124464974Y-62599448D01*
X124451090Y-62618168D01*
X124435438Y-62635438D01*
X124418168Y-62651090D01*
X124399448Y-62664974D01*
X124379457Y-62676956D01*
X124358387Y-62686921D01*
X124336443Y-62694773D01*
X124313834Y-62700437D01*
X124290779Y-62703856D01*
X124267500Y-62705000D01*
X123692500Y-62705000D01*
X123669221Y-62703856D01*
X123646166Y-62700437D01*
X123623557Y-62694773D01*
X123601613Y-62686921D01*
X123580543Y-62676956D01*
X123560552Y-62664974D01*
X123541832Y-62651090D01*
X123524562Y-62635438D01*
X123508910Y-62618168D01*
X123495026Y-62599448D01*
X123483044Y-62579457D01*
X123473079Y-62558387D01*
X123465227Y-62536443D01*
X123459563Y-62513834D01*
X123456144Y-62490779D01*
X123455000Y-62467500D01*
X123455000Y-61992500D01*
X123456144Y-61969221D01*
X123459563Y-61946166D01*
X123465227Y-61923557D01*
X123473079Y-61901613D01*
X123483044Y-61880543D01*
X123495026Y-61860552D01*
X123508910Y-61841832D01*
X123524562Y-61824562D01*
X123541832Y-61808910D01*
X123560552Y-61795026D01*
X123580543Y-61783044D01*
X123601613Y-61773079D01*
X123623557Y-61765227D01*
X123646166Y-61759563D01*
X123669221Y-61756144D01*
X123692500Y-61755000D01*
X124267500Y-61755000D01*
X124290779Y-61756144D01*
X124290779Y-61756144D01*
G37*
D13*
X123980000Y-62230000D03*
D12*
G36*
X126040779Y-69376144D02*
G01*
X126063834Y-69379563D01*
X126086443Y-69385227D01*
X126108387Y-69393079D01*
X126129457Y-69403044D01*
X126149448Y-69415026D01*
X126168168Y-69428910D01*
X126185438Y-69444562D01*
X126201090Y-69461832D01*
X126214974Y-69480552D01*
X126226956Y-69500543D01*
X126236921Y-69521613D01*
X126244773Y-69543557D01*
X126250437Y-69566166D01*
X126253856Y-69589221D01*
X126255000Y-69612500D01*
X126255000Y-70087500D01*
X126253856Y-70110779D01*
X126250437Y-70133834D01*
X126244773Y-70156443D01*
X126236921Y-70178387D01*
X126226956Y-70199457D01*
X126214974Y-70219448D01*
X126201090Y-70238168D01*
X126185438Y-70255438D01*
X126168168Y-70271090D01*
X126149448Y-70284974D01*
X126129457Y-70296956D01*
X126108387Y-70306921D01*
X126086443Y-70314773D01*
X126063834Y-70320437D01*
X126040779Y-70323856D01*
X126017500Y-70325000D01*
X125442500Y-70325000D01*
X125419221Y-70323856D01*
X125396166Y-70320437D01*
X125373557Y-70314773D01*
X125351613Y-70306921D01*
X125330543Y-70296956D01*
X125310552Y-70284974D01*
X125291832Y-70271090D01*
X125274562Y-70255438D01*
X125258910Y-70238168D01*
X125245026Y-70219448D01*
X125233044Y-70199457D01*
X125223079Y-70178387D01*
X125215227Y-70156443D01*
X125209563Y-70133834D01*
X125206144Y-70110779D01*
X125205000Y-70087500D01*
X125205000Y-69612500D01*
X125206144Y-69589221D01*
X125209563Y-69566166D01*
X125215227Y-69543557D01*
X125223079Y-69521613D01*
X125233044Y-69500543D01*
X125245026Y-69480552D01*
X125258910Y-69461832D01*
X125274562Y-69444562D01*
X125291832Y-69428910D01*
X125310552Y-69415026D01*
X125330543Y-69403044D01*
X125351613Y-69393079D01*
X125373557Y-69385227D01*
X125396166Y-69379563D01*
X125419221Y-69376144D01*
X125442500Y-69375000D01*
X126017500Y-69375000D01*
X126040779Y-69376144D01*
X126040779Y-69376144D01*
G37*
D13*
X125730000Y-69850000D03*
D12*
G36*
X124290779Y-69376144D02*
G01*
X124313834Y-69379563D01*
X124336443Y-69385227D01*
X124358387Y-69393079D01*
X124379457Y-69403044D01*
X124399448Y-69415026D01*
X124418168Y-69428910D01*
X124435438Y-69444562D01*
X124451090Y-69461832D01*
X124464974Y-69480552D01*
X124476956Y-69500543D01*
X124486921Y-69521613D01*
X124494773Y-69543557D01*
X124500437Y-69566166D01*
X124503856Y-69589221D01*
X124505000Y-69612500D01*
X124505000Y-70087500D01*
X124503856Y-70110779D01*
X124500437Y-70133834D01*
X124494773Y-70156443D01*
X124486921Y-70178387D01*
X124476956Y-70199457D01*
X124464974Y-70219448D01*
X124451090Y-70238168D01*
X124435438Y-70255438D01*
X124418168Y-70271090D01*
X124399448Y-70284974D01*
X124379457Y-70296956D01*
X124358387Y-70306921D01*
X124336443Y-70314773D01*
X124313834Y-70320437D01*
X124290779Y-70323856D01*
X124267500Y-70325000D01*
X123692500Y-70325000D01*
X123669221Y-70323856D01*
X123646166Y-70320437D01*
X123623557Y-70314773D01*
X123601613Y-70306921D01*
X123580543Y-70296956D01*
X123560552Y-70284974D01*
X123541832Y-70271090D01*
X123524562Y-70255438D01*
X123508910Y-70238168D01*
X123495026Y-70219448D01*
X123483044Y-70199457D01*
X123473079Y-70178387D01*
X123465227Y-70156443D01*
X123459563Y-70133834D01*
X123456144Y-70110779D01*
X123455000Y-70087500D01*
X123455000Y-69612500D01*
X123456144Y-69589221D01*
X123459563Y-69566166D01*
X123465227Y-69543557D01*
X123473079Y-69521613D01*
X123483044Y-69500543D01*
X123495026Y-69480552D01*
X123508910Y-69461832D01*
X123524562Y-69444562D01*
X123541832Y-69428910D01*
X123560552Y-69415026D01*
X123580543Y-69403044D01*
X123601613Y-69393079D01*
X123623557Y-69385227D01*
X123646166Y-69379563D01*
X123669221Y-69376144D01*
X123692500Y-69375000D01*
X124267500Y-69375000D01*
X124290779Y-69376144D01*
X124290779Y-69376144D01*
G37*
D13*
X123980000Y-69850000D03*
D12*
G36*
X98100779Y-61756144D02*
G01*
X98123834Y-61759563D01*
X98146443Y-61765227D01*
X98168387Y-61773079D01*
X98189457Y-61783044D01*
X98209448Y-61795026D01*
X98228168Y-61808910D01*
X98245438Y-61824562D01*
X98261090Y-61841832D01*
X98274974Y-61860552D01*
X98286956Y-61880543D01*
X98296921Y-61901613D01*
X98304773Y-61923557D01*
X98310437Y-61946166D01*
X98313856Y-61969221D01*
X98315000Y-61992500D01*
X98315000Y-62467500D01*
X98313856Y-62490779D01*
X98310437Y-62513834D01*
X98304773Y-62536443D01*
X98296921Y-62558387D01*
X98286956Y-62579457D01*
X98274974Y-62599448D01*
X98261090Y-62618168D01*
X98245438Y-62635438D01*
X98228168Y-62651090D01*
X98209448Y-62664974D01*
X98189457Y-62676956D01*
X98168387Y-62686921D01*
X98146443Y-62694773D01*
X98123834Y-62700437D01*
X98100779Y-62703856D01*
X98077500Y-62705000D01*
X97502500Y-62705000D01*
X97479221Y-62703856D01*
X97456166Y-62700437D01*
X97433557Y-62694773D01*
X97411613Y-62686921D01*
X97390543Y-62676956D01*
X97370552Y-62664974D01*
X97351832Y-62651090D01*
X97334562Y-62635438D01*
X97318910Y-62618168D01*
X97305026Y-62599448D01*
X97293044Y-62579457D01*
X97283079Y-62558387D01*
X97275227Y-62536443D01*
X97269563Y-62513834D01*
X97266144Y-62490779D01*
X97265000Y-62467500D01*
X97265000Y-61992500D01*
X97266144Y-61969221D01*
X97269563Y-61946166D01*
X97275227Y-61923557D01*
X97283079Y-61901613D01*
X97293044Y-61880543D01*
X97305026Y-61860552D01*
X97318910Y-61841832D01*
X97334562Y-61824562D01*
X97351832Y-61808910D01*
X97370552Y-61795026D01*
X97390543Y-61783044D01*
X97411613Y-61773079D01*
X97433557Y-61765227D01*
X97456166Y-61759563D01*
X97479221Y-61756144D01*
X97502500Y-61755000D01*
X98077500Y-61755000D01*
X98100779Y-61756144D01*
X98100779Y-61756144D01*
G37*
D13*
X97790000Y-62230000D03*
D12*
G36*
X96350779Y-61756144D02*
G01*
X96373834Y-61759563D01*
X96396443Y-61765227D01*
X96418387Y-61773079D01*
X96439457Y-61783044D01*
X96459448Y-61795026D01*
X96478168Y-61808910D01*
X96495438Y-61824562D01*
X96511090Y-61841832D01*
X96524974Y-61860552D01*
X96536956Y-61880543D01*
X96546921Y-61901613D01*
X96554773Y-61923557D01*
X96560437Y-61946166D01*
X96563856Y-61969221D01*
X96565000Y-61992500D01*
X96565000Y-62467500D01*
X96563856Y-62490779D01*
X96560437Y-62513834D01*
X96554773Y-62536443D01*
X96546921Y-62558387D01*
X96536956Y-62579457D01*
X96524974Y-62599448D01*
X96511090Y-62618168D01*
X96495438Y-62635438D01*
X96478168Y-62651090D01*
X96459448Y-62664974D01*
X96439457Y-62676956D01*
X96418387Y-62686921D01*
X96396443Y-62694773D01*
X96373834Y-62700437D01*
X96350779Y-62703856D01*
X96327500Y-62705000D01*
X95752500Y-62705000D01*
X95729221Y-62703856D01*
X95706166Y-62700437D01*
X95683557Y-62694773D01*
X95661613Y-62686921D01*
X95640543Y-62676956D01*
X95620552Y-62664974D01*
X95601832Y-62651090D01*
X95584562Y-62635438D01*
X95568910Y-62618168D01*
X95555026Y-62599448D01*
X95543044Y-62579457D01*
X95533079Y-62558387D01*
X95525227Y-62536443D01*
X95519563Y-62513834D01*
X95516144Y-62490779D01*
X95515000Y-62467500D01*
X95515000Y-61992500D01*
X95516144Y-61969221D01*
X95519563Y-61946166D01*
X95525227Y-61923557D01*
X95533079Y-61901613D01*
X95543044Y-61880543D01*
X95555026Y-61860552D01*
X95568910Y-61841832D01*
X95584562Y-61824562D01*
X95601832Y-61808910D01*
X95620552Y-61795026D01*
X95640543Y-61783044D01*
X95661613Y-61773079D01*
X95683557Y-61765227D01*
X95706166Y-61759563D01*
X95729221Y-61756144D01*
X95752500Y-61755000D01*
X96327500Y-61755000D01*
X96350779Y-61756144D01*
X96350779Y-61756144D01*
G37*
D13*
X96040000Y-62230000D03*
D12*
G36*
X98100779Y-69376144D02*
G01*
X98123834Y-69379563D01*
X98146443Y-69385227D01*
X98168387Y-69393079D01*
X98189457Y-69403044D01*
X98209448Y-69415026D01*
X98228168Y-69428910D01*
X98245438Y-69444562D01*
X98261090Y-69461832D01*
X98274974Y-69480552D01*
X98286956Y-69500543D01*
X98296921Y-69521613D01*
X98304773Y-69543557D01*
X98310437Y-69566166D01*
X98313856Y-69589221D01*
X98315000Y-69612500D01*
X98315000Y-70087500D01*
X98313856Y-70110779D01*
X98310437Y-70133834D01*
X98304773Y-70156443D01*
X98296921Y-70178387D01*
X98286956Y-70199457D01*
X98274974Y-70219448D01*
X98261090Y-70238168D01*
X98245438Y-70255438D01*
X98228168Y-70271090D01*
X98209448Y-70284974D01*
X98189457Y-70296956D01*
X98168387Y-70306921D01*
X98146443Y-70314773D01*
X98123834Y-70320437D01*
X98100779Y-70323856D01*
X98077500Y-70325000D01*
X97502500Y-70325000D01*
X97479221Y-70323856D01*
X97456166Y-70320437D01*
X97433557Y-70314773D01*
X97411613Y-70306921D01*
X97390543Y-70296956D01*
X97370552Y-70284974D01*
X97351832Y-70271090D01*
X97334562Y-70255438D01*
X97318910Y-70238168D01*
X97305026Y-70219448D01*
X97293044Y-70199457D01*
X97283079Y-70178387D01*
X97275227Y-70156443D01*
X97269563Y-70133834D01*
X97266144Y-70110779D01*
X97265000Y-70087500D01*
X97265000Y-69612500D01*
X97266144Y-69589221D01*
X97269563Y-69566166D01*
X97275227Y-69543557D01*
X97283079Y-69521613D01*
X97293044Y-69500543D01*
X97305026Y-69480552D01*
X97318910Y-69461832D01*
X97334562Y-69444562D01*
X97351832Y-69428910D01*
X97370552Y-69415026D01*
X97390543Y-69403044D01*
X97411613Y-69393079D01*
X97433557Y-69385227D01*
X97456166Y-69379563D01*
X97479221Y-69376144D01*
X97502500Y-69375000D01*
X98077500Y-69375000D01*
X98100779Y-69376144D01*
X98100779Y-69376144D01*
G37*
D13*
X97790000Y-69850000D03*
D12*
G36*
X96350779Y-69376144D02*
G01*
X96373834Y-69379563D01*
X96396443Y-69385227D01*
X96418387Y-69393079D01*
X96439457Y-69403044D01*
X96459448Y-69415026D01*
X96478168Y-69428910D01*
X96495438Y-69444562D01*
X96511090Y-69461832D01*
X96524974Y-69480552D01*
X96536956Y-69500543D01*
X96546921Y-69521613D01*
X96554773Y-69543557D01*
X96560437Y-69566166D01*
X96563856Y-69589221D01*
X96565000Y-69612500D01*
X96565000Y-70087500D01*
X96563856Y-70110779D01*
X96560437Y-70133834D01*
X96554773Y-70156443D01*
X96546921Y-70178387D01*
X96536956Y-70199457D01*
X96524974Y-70219448D01*
X96511090Y-70238168D01*
X96495438Y-70255438D01*
X96478168Y-70271090D01*
X96459448Y-70284974D01*
X96439457Y-70296956D01*
X96418387Y-70306921D01*
X96396443Y-70314773D01*
X96373834Y-70320437D01*
X96350779Y-70323856D01*
X96327500Y-70325000D01*
X95752500Y-70325000D01*
X95729221Y-70323856D01*
X95706166Y-70320437D01*
X95683557Y-70314773D01*
X95661613Y-70306921D01*
X95640543Y-70296956D01*
X95620552Y-70284974D01*
X95601832Y-70271090D01*
X95584562Y-70255438D01*
X95568910Y-70238168D01*
X95555026Y-70219448D01*
X95543044Y-70199457D01*
X95533079Y-70178387D01*
X95525227Y-70156443D01*
X95519563Y-70133834D01*
X95516144Y-70110779D01*
X95515000Y-70087500D01*
X95515000Y-69612500D01*
X95516144Y-69589221D01*
X95519563Y-69566166D01*
X95525227Y-69543557D01*
X95533079Y-69521613D01*
X95543044Y-69500543D01*
X95555026Y-69480552D01*
X95568910Y-69461832D01*
X95584562Y-69444562D01*
X95601832Y-69428910D01*
X95620552Y-69415026D01*
X95640543Y-69403044D01*
X95661613Y-69393079D01*
X95683557Y-69385227D01*
X95706166Y-69379563D01*
X95729221Y-69376144D01*
X95752500Y-69375000D01*
X96327500Y-69375000D01*
X96350779Y-69376144D01*
X96350779Y-69376144D01*
G37*
D13*
X96040000Y-69850000D03*
D12*
G36*
X118420779Y-102396144D02*
G01*
X118443834Y-102399563D01*
X118466443Y-102405227D01*
X118488387Y-102413079D01*
X118509457Y-102423044D01*
X118529448Y-102435026D01*
X118548168Y-102448910D01*
X118565438Y-102464562D01*
X118581090Y-102481832D01*
X118594974Y-102500552D01*
X118606956Y-102520543D01*
X118616921Y-102541613D01*
X118624773Y-102563557D01*
X118630437Y-102586166D01*
X118633856Y-102609221D01*
X118635000Y-102632500D01*
X118635000Y-103107500D01*
X118633856Y-103130779D01*
X118630437Y-103153834D01*
X118624773Y-103176443D01*
X118616921Y-103198387D01*
X118606956Y-103219457D01*
X118594974Y-103239448D01*
X118581090Y-103258168D01*
X118565438Y-103275438D01*
X118548168Y-103291090D01*
X118529448Y-103304974D01*
X118509457Y-103316956D01*
X118488387Y-103326921D01*
X118466443Y-103334773D01*
X118443834Y-103340437D01*
X118420779Y-103343856D01*
X118397500Y-103345000D01*
X117822500Y-103345000D01*
X117799221Y-103343856D01*
X117776166Y-103340437D01*
X117753557Y-103334773D01*
X117731613Y-103326921D01*
X117710543Y-103316956D01*
X117690552Y-103304974D01*
X117671832Y-103291090D01*
X117654562Y-103275438D01*
X117638910Y-103258168D01*
X117625026Y-103239448D01*
X117613044Y-103219457D01*
X117603079Y-103198387D01*
X117595227Y-103176443D01*
X117589563Y-103153834D01*
X117586144Y-103130779D01*
X117585000Y-103107500D01*
X117585000Y-102632500D01*
X117586144Y-102609221D01*
X117589563Y-102586166D01*
X117595227Y-102563557D01*
X117603079Y-102541613D01*
X117613044Y-102520543D01*
X117625026Y-102500552D01*
X117638910Y-102481832D01*
X117654562Y-102464562D01*
X117671832Y-102448910D01*
X117690552Y-102435026D01*
X117710543Y-102423044D01*
X117731613Y-102413079D01*
X117753557Y-102405227D01*
X117776166Y-102399563D01*
X117799221Y-102396144D01*
X117822500Y-102395000D01*
X118397500Y-102395000D01*
X118420779Y-102396144D01*
X118420779Y-102396144D01*
G37*
D13*
X118110000Y-102870000D03*
D12*
G36*
X116670779Y-102396144D02*
G01*
X116693834Y-102399563D01*
X116716443Y-102405227D01*
X116738387Y-102413079D01*
X116759457Y-102423044D01*
X116779448Y-102435026D01*
X116798168Y-102448910D01*
X116815438Y-102464562D01*
X116831090Y-102481832D01*
X116844974Y-102500552D01*
X116856956Y-102520543D01*
X116866921Y-102541613D01*
X116874773Y-102563557D01*
X116880437Y-102586166D01*
X116883856Y-102609221D01*
X116885000Y-102632500D01*
X116885000Y-103107500D01*
X116883856Y-103130779D01*
X116880437Y-103153834D01*
X116874773Y-103176443D01*
X116866921Y-103198387D01*
X116856956Y-103219457D01*
X116844974Y-103239448D01*
X116831090Y-103258168D01*
X116815438Y-103275438D01*
X116798168Y-103291090D01*
X116779448Y-103304974D01*
X116759457Y-103316956D01*
X116738387Y-103326921D01*
X116716443Y-103334773D01*
X116693834Y-103340437D01*
X116670779Y-103343856D01*
X116647500Y-103345000D01*
X116072500Y-103345000D01*
X116049221Y-103343856D01*
X116026166Y-103340437D01*
X116003557Y-103334773D01*
X115981613Y-103326921D01*
X115960543Y-103316956D01*
X115940552Y-103304974D01*
X115921832Y-103291090D01*
X115904562Y-103275438D01*
X115888910Y-103258168D01*
X115875026Y-103239448D01*
X115863044Y-103219457D01*
X115853079Y-103198387D01*
X115845227Y-103176443D01*
X115839563Y-103153834D01*
X115836144Y-103130779D01*
X115835000Y-103107500D01*
X115835000Y-102632500D01*
X115836144Y-102609221D01*
X115839563Y-102586166D01*
X115845227Y-102563557D01*
X115853079Y-102541613D01*
X115863044Y-102520543D01*
X115875026Y-102500552D01*
X115888910Y-102481832D01*
X115904562Y-102464562D01*
X115921832Y-102448910D01*
X115940552Y-102435026D01*
X115960543Y-102423044D01*
X115981613Y-102413079D01*
X116003557Y-102405227D01*
X116026166Y-102399563D01*
X116049221Y-102396144D01*
X116072500Y-102395000D01*
X116647500Y-102395000D01*
X116670779Y-102396144D01*
X116670779Y-102396144D01*
G37*
D13*
X116360000Y-102870000D03*
M02*
