G04 #@! TF.GenerationSoftware,KiCad,Pcbnew,(5.1.4)-1*
G04 #@! TF.CreationDate,2020-12-10T13:14:28-06:00*
G04 #@! TF.ProjectId,InstrumentationBoard2021,496e7374-7275-46d6-956e-746174696f6e,rev?*
G04 #@! TF.SameCoordinates,Original*
G04 #@! TF.FileFunction,Legend,Bot*
G04 #@! TF.FilePolarity,Positive*
%FSLAX46Y46*%
G04 Gerber Fmt 4.6, Leading zero omitted, Abs format (unit mm)*
G04 Created by KiCad (PCBNEW (5.1.4)-1) date 2020-12-10 13:14:28*
%MOMM*%
%LPD*%
G04 APERTURE LIST*
%ADD10C,0.300000*%
G04 APERTURE END LIST*
D10*
X84875857Y-99381571D02*
X84161571Y-99381571D01*
X84090142Y-100095857D01*
X84161571Y-100024428D01*
X84304428Y-99953000D01*
X84661571Y-99953000D01*
X84804428Y-100024428D01*
X84875857Y-100095857D01*
X84947285Y-100238714D01*
X84947285Y-100595857D01*
X84875857Y-100738714D01*
X84804428Y-100810142D01*
X84661571Y-100881571D01*
X84304428Y-100881571D01*
X84161571Y-100810142D01*
X84090142Y-100738714D01*
X85590142Y-100738714D02*
X85661571Y-100810142D01*
X85590142Y-100881571D01*
X85518714Y-100810142D01*
X85590142Y-100738714D01*
X85590142Y-100881571D01*
X86590142Y-99381571D02*
X86733000Y-99381571D01*
X86875857Y-99453000D01*
X86947285Y-99524428D01*
X87018714Y-99667285D01*
X87090142Y-99953000D01*
X87090142Y-100310142D01*
X87018714Y-100595857D01*
X86947285Y-100738714D01*
X86875857Y-100810142D01*
X86733000Y-100881571D01*
X86590142Y-100881571D01*
X86447285Y-100810142D01*
X86375857Y-100738714D01*
X86304428Y-100595857D01*
X86233000Y-100310142D01*
X86233000Y-99953000D01*
X86304428Y-99667285D01*
X86375857Y-99524428D01*
X86447285Y-99453000D01*
X86590142Y-99381571D01*
X87518714Y-99381571D02*
X88018714Y-100881571D01*
X88518714Y-99381571D01*
X88201428Y-97809857D02*
X87058571Y-97809857D01*
X85685428Y-95928571D02*
X84828285Y-95928571D01*
X85256857Y-95928571D02*
X85256857Y-94428571D01*
X85114000Y-94642857D01*
X84971142Y-94785714D01*
X84828285Y-94857142D01*
X86256857Y-94571428D02*
X86328285Y-94500000D01*
X86471142Y-94428571D01*
X86828285Y-94428571D01*
X86971142Y-94500000D01*
X87042571Y-94571428D01*
X87114000Y-94714285D01*
X87114000Y-94857142D01*
X87042571Y-95071428D01*
X86185428Y-95928571D01*
X87114000Y-95928571D01*
X87542571Y-94428571D02*
X88042571Y-95928571D01*
X88542571Y-94428571D01*
X87058571Y-79990142D02*
X88201428Y-79990142D01*
X87058571Y-82530142D02*
X88201428Y-82530142D01*
X87630000Y-83101571D02*
X87630000Y-81958714D01*
X114998571Y-79990142D02*
X116141428Y-79990142D01*
X114998571Y-82530142D02*
X116141428Y-82530142D01*
X115570000Y-83101571D02*
X115570000Y-81958714D01*
X114998571Y-64750142D02*
X116141428Y-64750142D01*
X114998571Y-67290142D02*
X116141428Y-67290142D01*
X115570000Y-67861571D02*
X115570000Y-66718714D01*
X87058571Y-67290142D02*
X88201428Y-67290142D01*
X87630000Y-67861571D02*
X87630000Y-66718714D01*
X87058571Y-64750142D02*
X88201428Y-64750142D01*
X86086285Y-114748571D02*
X86943428Y-114748571D01*
X86514857Y-116248571D02*
X86514857Y-114748571D01*
X87300571Y-116248571D02*
X88086285Y-115248571D01*
X87300571Y-115248571D02*
X88086285Y-116248571D01*
X86852142Y-113454571D02*
X86352142Y-112740285D01*
X85995000Y-113454571D02*
X85995000Y-111954571D01*
X86566428Y-111954571D01*
X86709285Y-112026000D01*
X86780714Y-112097428D01*
X86852142Y-112240285D01*
X86852142Y-112454571D01*
X86780714Y-112597428D01*
X86709285Y-112668857D01*
X86566428Y-112740285D01*
X85995000Y-112740285D01*
X87352142Y-113454571D02*
X88137857Y-112454571D01*
X87352142Y-112454571D02*
X88137857Y-113454571D01*
M02*
